/* XPM */
static char * bandit_xpm[] = {
"32 32 532 2",
"  	c #B8B8B8",
". 	c #919191",
"+ 	c #737372",
"@ 	c #50504F",
"# 	c #5C5B5B",
"$ 	c #636363",
"% 	c #201F1E",
"& 	c #5F5E5E",
"* 	c #393838",
"= 	c #100E0C",
"- 	c #252423",
"; 	c #373635",
"> 	c #3E3D3D",
", 	c #858584",
"' 	c #696968",
") 	c #3A3A39",
"! 	c #565656",
"~ 	c #2E2D2D",
"{ 	c #525251",
"] 	c #787877",
"^ 	c #999999",
"/ 	c #B7B7B7",
"( 	c #A6A6A6",
"_ 	c #B0B0B0",
": 	c #B5B4B4",
"< 	c #939292",
"[ 	c #4C4C4B",
"} 	c #302F2E",
"| 	c #242322",
"1 	c #605F5F",
"2 	c #70706F",
"3 	c #4E4D4D",
"4 	c #373736",
"5 	c #1A1917",
"6 	c #151412",
"7 	c #1F1E1D",
"8 	c #2F2E2D",
"9 	c #252523",
"0 	c #0D0B07",
"a 	c #292827",
"b 	c #484747",
"c 	c #3D3D3C",
"d 	c #11100D",
"e 	c #0F0D0A",
"f 	c #0D0B08",
"g 	c #323231",
"h 	c #2A2928",
"i 	c #1F1E1C",
"j 	c #0B0906",
"k 	c #100E0B",
"l 	c #1C1B19",
"m 	c #363534",
"n 	c #201F1D",
"o 	c #313130",
"p 	c #424241",
"q 	c #080603",
"r 	c #12100D",
"s 	c #0E0C09",
"t 	c #13110F",
"u 	c #110F0C",
"v 	c #141311",
"w 	c #343332",
"x 	c #1D1C1B",
"y 	c #1E1D1C",
"z 	c #22211F",
"A 	c #797979",
"B 	c #0C0906",
"C 	c #191816",
"D 	c #222120",
"E 	c #3F3F3E",
"F 	c #4F4F4F",
"G 	c #2F2E2E",
"H 	c #0C0A07",
"I 	c #080602",
"J 	c #0B0805",
"K 	c #0F0C09",
"L 	c #090703",
"M 	c #21201F",
"N 	c #1B1A19",
"O 	c #080502",
"P 	c #12100E",
"Q 	c #575656",
"R 	c #6B6B6B",
"S 	c #838383",
"T 	c #848483",
"U 	c #2D2C2B",
"V 	c #181615",
"W 	c #616160",
"X 	c #7D7D7D",
"Y 	c #C5C5C5",
"Z 	c #BABABA",
"` 	c #474646",
" .	c #454544",
"..	c #3D3C3C",
"+.	c #8D8C8C",
"@.	c #BEBEBE",
"#.	c #A7A7A6",
"$.	c #171614",
"%.	c #474746",
"&.	c #31302F",
"*.	c #555554",
"=.	c #3A3938",
"-.	c #595858",
";.	c #D4D2D4",
">.	c #DCD3E4",
",.	c #DBD3E8",
"'.	c #DBD2DF",
").	c #A5A5A7",
"!.	c #969696",
"~.	c #CFCFCF",
"{.	c #DFD9E5",
"].	c #DFD7EA",
"^.	c #DDD5E7",
"/.	c #A1A1A0",
"(.	c #A0A0A0",
"_.	c #B5B5B5",
":.	c #DBD4E2",
"<.	c #DCD3E8",
"[.	c #DBD3DD",
"}.	c #888888",
"|.	c #A4A4A4",
"1.	c #A8A8A8",
"2.	c #919090",
"3.	c #989797",
"4.	c #B9B9B9",
"5.	c #B3B3B3",
"6.	c #C9C9C9",
"7.	c #B2B2B2",
"8.	c #C7C7C7",
"9.	c #D1D1D1",
"0.	c #B2B2B1",
"a.	c #D0D0D0",
"b.	c #E3DCEC",
"c.	c #E2DBED",
"d.	c #E1D8EB",
"e.	c #DED7EA",
"f.	c #DDD5E8",
"g.	c #DDD4E8",
"h.	c #E5DFED",
"i.	c #EAE4F1",
"j.	c #E9E3F1",
"k.	c #E6DFEE",
"l.	c #DFD9E9",
"m.	c #D6D3D6",
"n.	c #E0D9E9",
"o.	c #E3DDED",
"p.	c #E1DAEB",
"q.	c #DDD5E9",
"r.	c #DCD4E8",
"s.	c #DFD7E9",
"t.	c #E0D8EA",
"u.	c #E2DBEC",
"v.	c #DFD8EA",
"w.	c #DCD3E9",
"x.	c #DBD2E7",
"y.	c #DED6EA",
"z.	c #ECE8F2",
"A.	c #E3DCED",
"B.	c #E8E4F1",
"C.	c #E7E1F0",
"D.	c #E0DAEB",
"E.	c #E2DAEC",
"F.	c #E6E2EE",
"G.	c #E0D8EB",
"H.	c #E5DFEE",
"I.	c #E1D9EB",
"J.	c #E5DEEE",
"K.	c #E5E0EE",
"L.	c #E4DEED",
"M.	c #DDD4E9",
"N.	c #DBD2E8",
"O.	c #E0D7EA",
"P.	c #F1ECF6",
"Q.	c #EFEBF5",
"R.	c #EDE9F3",
"S.	c #E6E1EF",
"T.	c #ECE8F3",
"U.	c #F0ECF5",
"V.	c #E9E3F0",
"W.	c #E9E5F1",
"X.	c #EAE6F1",
"Y.	c #EDE8F3",
"Z.	c #E7E2EE",
"`.	c #E8E2EF",
" +	c #E9E4F0",
".+	c #EFEAF4",
"++	c #F2EEF8",
"@+	c #EFECF5",
"#+	c #EAE5F2",
"$+	c #E5DEED",
"%+	c #E7E1EF",
"&+	c #DED6E9",
"*+	c #F3EEF9",
"=+	c #F2EDF8",
"-+	c #F3EFF8",
";+	c #F3EFF9",
">+	c #F1EDF6",
",+	c #F1EDF8",
"'+	c #F2EEF9",
")+	c #F1ECF8",
"!+	c #F6F4F9",
"~+	c #E7E6E7",
"{+	c #DEDEDE",
"]+	c #EDEDED",
"^+	c #F2F1F3",
"/+	c #F4F2F4",
"(+	c #F9F8FA",
"_+	c #F6F3FA",
":+	c #F2EFF8",
"<+	c #B2B1B1",
"[+	c #464545",
"}+	c #2A2728",
"|+	c #5A5859",
"1+	c #817F80",
"2+	c #989799",
"3+	c #CBCBCB",
"4+	c #EEEDEE",
"5+	c #F4F0F9",
"6+	c #242121",
"7+	c #0A0202",
"8+	c #0A0303",
"9+	c #150F0F",
"0+	c #504F4F",
"a+	c #908F8F",
"b+	c #D7D7D7",
"c+	c #F5F2F8",
"d+	c #DBD1E7",
"e+	c #1B1717",
"f+	c #1E1A1A",
"g+	c #717171",
"h+	c #D9D9D9",
"i+	c #E1DAEC",
"j+	c #0E0707",
"k+	c #0E0606",
"l+	c #343232",
"m+	c #585757",
"n+	c #272525",
"o+	c #302E2E",
"p+	c #A7A7A7",
"q+	c #F3F0F6",
"r+	c #3E3C3C",
"s+	c #130D0D",
"t+	c #323030",
"u+	c #747474",
"v+	c #A3A3A3",
"w+	c #CACACA",
"x+	c #9E9E9E",
"y+	c #F3F2F4",
"z+	c #F3F0F9",
"A+	c #F4F0F8",
"B+	c #F3F0F8",
"C+	c #F2F0F2",
"D+	c #F8F7F9",
"E+	c #F9F9F9",
"F+	c #D3D3D3",
"G+	c #6B6A6A",
"H+	c #A2A1A1",
"I+	c #EBEBEB",
"J+	c #EEEEEE",
"K+	c #E2E2E2",
"L+	c #C6C6C6",
"M+	c #C0C0C0",
"N+	c #BEBEBF",
"O+	c #BFBFBF",
"P+	c #BFBFC0",
"Q+	c #C9C9CA",
"R+	c #E7E7E7",
"S+	c #F7F6F9",
"T+	c #F7F4FB",
"U+	c #F7F6F8",
"V+	c #4A4949",
"W+	c #3F3D3D",
"X+	c #7F7E7E",
"Y+	c #8B8A8D",
"Z+	c #7A7A81",
"`+	c #6E6D77",
" @	c #5B596E",
".@	c #535272",
"+@	c #515078",
"@@	c #545370",
"#@	c #525176",
"$@	c #5B5A81",
"%@	c #888896",
"&@	c #CECDCE",
"*@	c #F3F1F5",
"=@	c #F5F2FA",
"-@	c #E4DDEE",
";@	c #F2EFF3",
">@	c #9A9A9A",
",@	c #282525",
"'@	c #201D2B",
")@	c #292646",
"!@	c #2D2B53",
"~@	c #211E68",
"{@	c #2C2986",
"]@	c #2F2D92",
"^@	c #3533B0",
"/@	c #3432B9",
"(@	c #3634B7",
"_@	c #403FA2",
":@	c #3837B3",
"<@	c #2926BF",
"[@	c #211EA2",
"}@	c #6D6C88",
"|@	c #CECECF",
"1@	c #F5F3F8",
"2@	c #E2DBEB",
"3@	c #E6E0EF",
"4@	c #F5F1FA",
"5@	c #EFEDEF",
"6@	c #312F38",
"7@	c #120B64",
"8@	c #150F9E",
"9@	c #3A39AC",
"0@	c #5959BA",
"a@	c #5655C4",
"b@	c #5958C3",
"c@	c #3533CF",
"d@	c #2F2DD0",
"e@	c #4543BE",
"f@	c #6E62A4",
"g@	c #4D4CB5",
"h@	c #201DC4",
"i@	c #312FC8",
"j@	c #424198",
"k@	c #84848F",
"l@	c #D5D5D7",
"m@	c #F1EEF2",
"n@	c #EAE5F1",
"o@	c #F9F6FC",
"p@	c #DFDFDF",
"q@	c #7B7A7A",
"r@	c #35334D",
"s@	c #3F3CA4",
"t@	c #2D2BCA",
"u@	c #3F3EC2",
"v@	c #7266C1",
"w@	c #8166A0",
"x@	c #8D7288",
"y@	c #896D92",
"z@	c #8570B6",
"A@	c #8C6E88",
"B@	c #855C49",
"C@	c #845C5D",
"D@	c #68527A",
"E@	c #6C5DA2",
"F@	c #6B65A6",
"G@	c #2F2D8E",
"H@	c #79789A",
"I@	c #97969B",
"J@	c #D6D6D6",
"K@	c #DBDBDB",
"L@	c #666565",
"M@	c #1D1A3F",
"N@	c #4C4BA4",
"O@	c #4847AF",
"P@	c #544D8B",
"Q@	c #7F535E",
"R@	c #81512F",
"S@	c #804F1F",
"T@	c #81542A",
"U@	c #8D6855",
"V@	c #8B664D",
"W@	c #804E19",
"X@	c #7F4D14",
"Y@	c #804F21",
"Z@	c #865E4F",
"`@	c #836B98",
" #	c #3331C9",
".#	c #3432B7",
"+#	c #282661",
"@#	c #838385",
"##	c #F1ECF5",
"$#	c #E0D9EB",
"%#	c #EEEAF3",
"&#	c #F7F5FB",
"*#	c #9B9A9A",
"=#	c #3D3B42",
"-#	c #413E6A",
";#	c #655778",
">#	c #815543",
",#	c #804F23",
"'#	c #804E1A",
")#	c #815124",
"!#	c #845730",
"~#	c #855833",
"{#	c #977966",
"]#	c #865A37",
"^#	c #80501B",
"/#	c #815121",
"(#	c #645175",
"_#	c #130DC3",
":#	c #2B28CA",
"<#	c #323072",
"[#	c #6A696B",
"}#	c #D5D5D5",
"|#	c #EEEAF4",
"1#	c #37353A",
"2#	c #312F3C",
"3#	c #675544",
"4#	c #845A3D",
"5#	c #8D6B55",
"6#	c #947867",
"7#	c #90735F",
"8#	c #907361",
"9#	c #A4958E",
"0#	c #9F8E84",
"a#	c #94796B",
"b#	c #8D6F5B",
"c#	c #855D42",
"d#	c #735E84",
"e#	c #2825C2",
"f#	c #231FA4",
"g#	c #4A4963",
"h#	c #A7A6A6",
"i#	c #ECECEC",
"j#	c #D4D4D4",
"k#	c #7A7979",
"l#	c #353332",
"m#	c #181413",
"n#	c #413F33",
"o#	c #56544D",
"p#	c #585651",
"q#	c #58554C",
"r#	c #585653",
"s#	c #585755",
"t#	c #55534E",
"u#	c #4D4C44",
"v#	c #4B4A40",
"w#	c #393757",
"x#	c #110B6E",
"y#	c #211E50",
"z#	c #7C7C7D",
"A#	c #EBE7F2",
"B#	c #F0ECF6",
"C#	c #D4D3D3",
"D#	c #7E7E7E",
"E#	c #1D1A1A",
"F#	c #3E3C3B",
"G#	c #565555",
"H#	c #585756",
"I#	c #494848",
"J#	c #2E2C2C",
"K#	c #2E2C2B",
"L#	c #3F3D3F",
"M#	c #302D34",
"N#	c #302F32",
"O#	c #757474",
"P#	c #D8D8D8",
"Q#	c #EBE6F2",
"R#	c #F2EFF5",
"S#	c #8C8C8C",
"T#	c #444343",
"U#	c #373535",
"V#	c #191515",
"W#	c #717070",
"X#	c #898989",
"Y#	c #383636",
"Z#	c #383737",
"`#	c #828282",
" $	c #2F2D2D",
".$	c #A3A2A2",
"+$	c #F1ECF3",
"@$	c #F6F4F8",
"#$	c #737272",
"$$	c #525151",
"%$	c #828181",
"&$	c #676666",
"*$	c #F4F1F8",
"=$	c #B6B6B6",
"-$	c #B3B2B2",
";$	c #C4C4C4",
">$	c #5E5D5D",
",$	c #2A2727",
"'$	c #6F6E6E",
")$	c #E8E3F0",
"!$	c #DAD9D9",
"~$	c #242222",
"{$	c #787878",
"]$	c #CECECE",
"^$	c #221F1F",
"/$	c #878787",
"($	c #E8E8E8",
"_$	c #999898",
":$	c #2E2B2B",
"<$	c #9F9F9F",
"[$	c #F1EDF3",
"}$	c #F2EEF6",
"|$	c #ADADAD",
"1$	c #292727",
"2$	c #989898",
"3$	c #E9E8E8",
"4$	c #727171",
"5$	c #636262",
"6$	c #6D6C6C",
"7$	c #DDDCDC",
"8$	c #E8E3EF",
"9$	c #AEAEAE",
"0$	c #414040",
"a$	c #F1ECF1",
"b$	c #F1ECF7",
"c$	c #515050",
"d$	c #F0ECF0",
"e$	c #8F8F8F",
"f$	c #3A3939",
"g$	c #A9A9A9",
"h$	c #F0ECF1",
"i$	c #F3F1F6",
"j$	c #A8A7A7",
"k$	c #3C3A3A",
"l$	c #706F6F",
"m$	c #BBBBBB",
"n$	c #424141",
"o$	c #232020",
"p$	c #929191",
"q$	c #F1ECF2",
"r$	c #F4F1F9",
"s$	c #A9A8A8",
"t$	c #D2D2D2",
"u$	c #6E6D6D",
"v$	c #7C7C7C",
"w$	c #DDDDDD",
"x$	c #F1EDF7",
"y$	c #F4F2F7",
"z$	c #4D4C4C",
"A$	c #8E8D8D",
"B$	c #E5E5E5",
"C$	c #B0AFAF",
"D$	c #F2EDF6",
"E$	c #F6F4FA",
"F$	c #F2EEF7",
"G$	c #666666",
"  . + @ # $ % & * = - ; > , ' ) ! ~ { ] ^ / ( _ : < [ } | 1 2 3 ",
"4 5 6 7 8 9 0 a b c d e f g h i 7 j k k l m n o p 8 l k q e r s ",
"t u v w x k y z A , y B C D E F G z H I J K L j M s N j q B O P ",
"Q R S T U V W X Y Z ` |  ...+.@.#.] M f | h $.7 %.&.*.h =.[ - -.",
";.>.,.'.).!.~.{.].^./.' (._.:.<.<.[.(.}.|.1.2.3.4.5.6.7.8.9.0.a.",
"b.c.d.e.f.g.h.i.j.k.l.m.n.o.p.q.r.s.b.t.u.v.q.r.w.,.r.f.r.x.<.y.",
"z.A.B.C.D.E.F.G.H.I.r.p.p.J.].,.x.<.p.r.G.K.L.v.M.x.r.<.<.x.N.O.",
"P.H.Q.R.u.e.S.T.U.V.c.W.X.U.Y.Z.o.`.Q. +.+++++@+#+$+ +%+G.x.N.&+",
"*+=+-+;+>+Y.++*+,+++=+,+=+*+;+'+'+++,+)+)+)+)+)+)+)+=+*+.+q.N.&+",
"!+~+{+]+^+/+(+_+=+,+)+)+,+,+,+,+)+=+,+)+)+)+)+)+)+)+,+++:+G.x.&+",
"<+[+}+|+1+2+3+4+5+*+)+)+)+)+)+)+)+)+)+)+=+,+)+)+)+)+'+'+=+&+x.q.",
"6+7+7+7+8+9+0+a+b+c+++)+)+)+=+++=+,+)+)+,+;+=+)+)+)+'+++=+q.d+,.",
"7+7+7+7+7+7+e+f+g+h+;+)+)+,+=+,+)+)+)+)+,+5+;+)+)+)+,+,+=+i+x.M.",
"j+7+7+7+k+l+m+n+o+p+q+,+)+)+)+)+)+)+)+)+)+;+;+)+)+,+,+)+,+b.x.&+",
"r+s+t+u+v+w+Z m+o+x+y+_+5+z+=+++-+A+A+B+;+=+=+)+,+=+=+)+)+L.N.].",
"Z (.a.C+D+E+F+G+* H+I+J+K+b+L+M+N+O+P+Q+R+-+;+;+=+=+=+)+)+H.,.o.",
"S+q+-+;+T+U+  V+W+X+^ Y+Z+`+ @.@+@@@#@$@%@&@*@=@,+,+)+)+)+A.x.-@",
"=@*+,+=+++;@>@,@'@)@!@~@{@]@^@/@(@_@:@<@[@}@|@1@++=+)+)+)+2@<.3@",
",+5+4@;+,+5@^ 6@7@8@9@0@a@b@c@d@e@f@g@h@i@j@k@l@m@=+)+)+)+o.M.n@",
")+4@o@5+=+p@q@r@s@t@u@v@w@x@y@z@A@B@C@D@E@F@G@H@I@J@)+)+)+u.g.#+",
")+;+5+=+5+K@L@M@N@O@P@Q@R@S@T@U@V@W@X@Y@Z@`@ #.#+#@#R+)+##$#].%#",
")+=+=+5+&#5@*#=#-#;#>#,#'#)#!#~#{#]#^#/#S@(#_#:#<#[#}#)+U.v.].|#",
"=+,+,+;+*+)+p@}.1#2#3#4#5#6#7#8#9#0#a#b#c#d#e#f#g#h#i#)+++%+u.##",
"=+,+,+,+)+)+=+j#k#l#m#n#o#p#q#q#r#s#t#u#v#w#x#y#z#p@)+)+;+A#b.B#",
"5+++=+,+)+)+++C#D#W+E#F#G#m+H#H#m+Q I#J#K#L#M#N#O#P#)+)+*+n@y.Q#",
"4@=+)+=+;+R#~.S#T#U#V#W#/ O+O+O+O+4.X#Y#Z#`#k# $t+.$+$,+++J.N.o.",
"++,+++_+@$w+#$$$%$&$f+X#i#++-+1@*$m@=$3 3 -$;$>$,$'$P#=+,+)$r.t.",
"=+,+)+5+!$g+~${$]$S#^$/$i#=+=+;+,+,+O+Q Q O+($_$ $:$<$[$++k.N.N.",
"5+=+=+}$|$l+1$2$3$v+Y#4$h+)+,+=+,+++M+m+Q O+>+}#5$V#6$7$=+8$,.x.",
";+)+=+q+9$0$V+4.a$=$I#b : b$,+,+)+-+L+>$c$  )+d$e$^$f$g$h$A#<.x.",
",+)+=+i$j$k$l$J@P.m$n$o$p$q$=+)+)+r$b+4$..s$P.)+t$u$Z#v$w$x$b.<.",
",+,+++y$5.z$A$B$,+w+& b C$D$*+)+=+E$B$A$z$5.F$++>+@.G${$j#,+)+R."};
