/* XPM */
static char * bandit2_xpm[] = {
"32 32 514 2",
"  	c #3E3E3E",
". 	c #1D1C1E",
"+ 	c #1A1A1B",
"@ 	c #2A2A2A",
"# 	c #303031",
"$ 	c #1A1A1C",
"% 	c #111116",
"& 	c #090910",
"* 	c #0B0B0E",
"= 	c #06060D",
"- 	c #040311",
"; 	c #060612",
"> 	c #17171B",
", 	c #19191B",
"' 	c #101012",
") 	c #070709",
"! 	c #0E0E11",
"~ 	c #252528",
"{ 	c #212125",
"] 	c #2B2B2E",
"^ 	c #1F1F21",
"/ 	c #09090C",
"( 	c #222222",
"_ 	c #2E2E2F",
": 	c #2B2B2B",
"< 	c #1E1E1F",
"[ 	c #151516",
"} 	c #181819",
"| 	c #676767",
"1 	c #3F3F3F",
"2 	c #0B0B0D",
"3 	c #161617",
"4 	c #3A3A3B",
"5 	c #444445",
"6 	c #303032",
"7 	c #121217",
"8 	c #030311",
"9 	c #040411",
"0 	c #0C0C14",
"a 	c #04030F",
"b 	c #020211",
"c 	c #121218",
"d 	c #101013",
"e 	c #06060C",
"f 	c #0A0A11",
"g 	c #0B0B11",
"h 	c #16161D",
"i 	c #14131C",
"j 	c #1F1F23",
"k 	c #2A292D",
"l 	c #111117",
"m 	c #14141A",
"n 	c #18181C",
"o 	c #1B1B1E",
"p 	c #0F0F12",
"q 	c #1E1E20",
"r 	c #383738",
"s 	c #343435",
"t 	c #2B2B2D",
"u 	c #333335",
"v 	c #414142",
"w 	c #3F3F40",
"x 	c #353536",
"y 	c #2C2C2E",
"z 	c #25252A",
"A 	c #080714",
"B 	c #0A0A16",
"C 	c #303033",
"D 	c #1C1C22",
"E 	c #070714",
"F 	c #060513",
"G 	c #1F1F24",
"H 	c #1C1C21",
"I 	c #18181F",
"J 	c #2A2A2E",
"K 	c #0A0A15",
"L 	c #1D1D23",
"M 	c #1A1A21",
"N 	c #202025",
"O 	c #090915",
"P 	c #1B1B22",
"Q 	c #48484A",
"R 	c #666666",
"S 	c #5E5E5F",
"T 	c #313134",
"U 	c #3F3F41",
"V 	c #2C2C30",
"W 	c #525254",
"X 	c #69696B",
"Y 	c #373739",
"Z 	c #101019",
"` 	c #040412",
" .	c #0E0E18",
"..	c #404043",
"+.	c #37373A",
"@.	c #13121B",
"#.	c #555557",
"$.	c #030312",
"%.	c #0F0F19",
"&.	c #050412",
"*.	c #0B0B16",
"=.	c #080815",
"-.	c #191920",
";.	c #48484B",
">.	c #242429",
",.	c #0C0C17",
"'.	c #414144",
").	c #29292E",
"!.	c #2E2D32",
"~.	c #6A6A6E",
"{.	c #737373",
"].	c #2E2E32",
"^.	c #040312",
"/.	c #222228",
"(.	c #3C3C3F",
"_.	c #636365",
":.	c #2C2C31",
"<.	c #515153",
"[.	c #434346",
"}.	c #12121B",
"|.	c #14141C",
"1.	c #2B2B30",
"2.	c #1A1921",
"3.	c #050513",
"4.	c #030211",
"5.	c #080814",
"6.	c #100F19",
"7.	c #11101A",
"8.	c #323236",
"9.	c #222227",
"0.	c #5C5C5E",
"a.	c #737375",
"b.	c #16161E",
"c.	c #515154",
"d.	c #8B8B8C",
"e.	c #454549",
"f.	c #202026",
"g.	c #212127",
"h.	c #0D0D18",
"i.	c #3E3E41",
"j.	c #1C1C23",
"k.	c #343438",
"l.	c #575759",
"m.	c #1D1D24",
"n.	c #17171F",
"o.	c #78787B",
"p.	c #ACACAE",
"q.	c #5B5B5D",
"r.	c #15151D",
"s.	c #15151E",
"t.	c #606062",
"u.	c #79797B",
"v.	c #57575A",
"w.	c #7E7E80",
"x.	c #A6A6A8",
"y.	c #8A8A8C",
"z.	c #454548",
"A.	c #10101A",
"B.	c #060613",
"C.	c #98989A",
"D.	c #535356",
"E.	c #191820",
"F.	c #303034",
"G.	c #5E5E60",
"H.	c #6C6C6E",
"I.	c #565659",
"J.	c #767678",
"K.	c #9C9C9E",
"L.	c #25252B",
"M.	c #58585A",
"N.	c #717173",
"O.	c #646466",
"P.	c #474749",
"Q.	c #59595B",
"R.	c #868688",
"S.	c #C3C3C5",
"T.	c #CACACB",
"U.	c #848485",
"V.	c #5B5B5E",
"W.	c #626264",
"X.	c #CFCFD0",
"Y.	c #939394",
"Z.	c #3A3A3D",
"`.	c #8C8C8D",
" +	c #727274",
".+	c #3B3B3E",
"++	c #49494B",
"@+	c #232328",
"#+	c #232329",
"$+	c #16151D",
"%+	c #16151E",
"&+	c #1B1A21",
"*+	c #36363A",
"=+	c #9F9FA1",
"-+	c #B6B6B8",
";+	c #808083",
">+	c #858586",
",+	c #AAAAAB",
"'+	c #BCBCBE",
")+	c #C4C4C5",
"!+	c #C8C8CA",
"~+	c #DADADB",
"{+	c #A7A7A8",
"]+	c #47474A",
"^+	c #AEAEAF",
"/+	c #787879",
"(+	c #212128",
"_+	c #313135",
":+	c #545456",
"<+	c #666668",
"[+	c #737374",
"}+	c #777778",
"|+	c #777779",
"1+	c #78787A",
"2+	c #757578",
"3+	c #616163",
"4+	c #6A6A6D",
"5+	c #B0B0B1",
"6+	c #878788",
"7+	c #2E2E33",
"8+	c #6E6E6F",
"9+	c #9D9D9E",
"0+	c #858587",
"a+	c #B4B4B5",
"b+	c #DADADC",
"c+	c #D2D2D2",
"d+	c #A0A0A1",
"e+	c #969697",
"f+	c #89898A",
"g+	c #8E8E90",
"h+	c #BBBBBD",
"i+	c #B7B7B9",
"j+	c #9D9D9F",
"k+	c #9B9B9C",
"l+	c #949496",
"m+	c #AFAFB0",
"n+	c #BBBBBC",
"o+	c #C3C3C4",
"p+	c #C5C5C7",
"q+	c #B3B3B5",
"r+	c #C8C8C9",
"s+	c #BEBEC0",
"t+	c #A1A1A2",
"u+	c #ADADAE",
"v+	c #BCBCBD",
"w+	c #88888A",
"x+	c #8D8D8E",
"y+	c #79797A",
"z+	c #7B7B7D",
"A+	c #C9C9CA",
"B+	c #99999B",
"C+	c #828283",
"D+	c #C2C2C4",
"E+	c #8D8D8F",
"F+	c #545457",
"G+	c #A3A3A5",
"H+	c #BDBDBF",
"I+	c #C1C1C2",
"J+	c #D7D7D8",
"K+	c #B9B9BB",
"L+	c #767677",
"M+	c #989899",
"N+	c #838385",
"O+	c #888889",
"P+	c #C0C0C1",
"Q+	c #959596",
"R+	c #919193",
"S+	c #808081",
"T+	c #BABABB",
"U+	c #949495",
"V+	c #4A4A4C",
"W+	c #6D6D6E",
"X+	c #868687",
"Y+	c #2A2A2F",
"Z+	c #B3B3B4",
"`+	c #24242A",
" @	c #D6D6D8",
".@	c #9B9B9D",
"+@	c #A9A9AA",
"@@	c #CBCBCD",
"#@	c #C7C7C8",
"$@	c #9A9A9C",
"%@	c #7D7D7F",
"&@	c #2D2D32",
"*@	c #747476",
"=@	c #C6C6C7",
"-@	c #B9B9BA",
";@	c #838384",
">@	c #B3B2B4",
",@	c #878789",
"'@	c #C2C2C3",
")@	c #DFDFE1",
"!@	c #E1E1E2",
"~@	c #DEDEDF",
"{@	c #DDDDDF",
"]@	c #DCDBDD",
"^@	c #818083",
"/@	c #6A6A6C",
"(@	c #A4A4A5",
"_@	c #CBCBCC",
":@	c #D3D3D5",
"<@	c #D7D7D9",
"[@	c #C7C7C9",
"}@	c #B8B8B9",
"|@	c #8F8F91",
"1@	c #D4D4D5",
"2@	c #CCCCCD",
"3@	c #A8A8AA",
"4@	c #CDCDCE",
"5@	c #D6D6D7",
"6@	c #D5D5D6",
"7@	c #CECED0",
"8@	c #EBEBEB",
"9@	c #E9E9EA",
"0@	c #E3E3E5",
"a@	c #E0E0E2",
"b@	c #DEDEE0",
"c@	c #DCDCDE",
"d@	c #CECECF",
"e@	c #D5D5D7",
"f@	c #DDDDDE",
"g@	c #E0E0E1",
"h@	c #DCDCDD",
"i@	c #E7E7E8",
"j@	c #E4E4E5",
"k@	c #DEDDDF",
"l@	c #E4E4E6",
"m@	c #DFDFE0",
"n@	c #D3D3D4",
"o@	c #E6E6E7",
"p@	c #E3E3E4",
"q@	c #EEEEEF",
"r@	c #F0F0F1",
"s@	c #E2E2E3",
"t@	c #EDEDED",
"u@	c #EAEAEB",
"v@	c #E2E2E4",
"w@	c #E5E5E7",
"x@	c #E1E1E3",
"y@	c #F1F1F2",
"z@	c #F5F5F6",
"A@	c #F9F9F9",
"B@	c #F3F3F4",
"C@	c #E5E5E6",
"D@	c #E8E8E9",
"E@	c #EAEAEA",
"F@	c #F0F0F0",
"G@	c #FCFCFC",
"H@	c #FAFAFB",
"I@	c #D9D9D9",
"J@	c #C4C4C4",
"K@	c #D4D4D4",
"L@	c #EBEBEC",
"M@	c #E8E8E8",
"N@	c #818182",
"O@	c #2D2D2E",
"P@	c #0D0D0E",
"Q@	c #202020",
"R@	c #656565",
"S@	c #ABABAC",
"T@	c #E6E6E6",
"U@	c #F6F6F6",
"V@	c #F7F7F7",
"W@	c #F6F6F7",
"X@	c #F5F5F5",
"Y@	c #F4F4F5",
"Z@	c #F4F4F4",
"`@	c #F3F3F3",
" #	c #EDEDEE",
".#	c #909090",
"+#	c #5E5E5E",
"@#	c #0C0C0E",
"##	c #000002",
"$#	c #010104",
"%#	c #1B1B1C",
"&#	c #969696",
"*#	c #EEEEEE",
"=#	c #F1F1F1",
"-#	c #EFEFF0",
";#	c #ECECEC",
">#	c #F2F2F3",
",#	c #FBFBFB",
"'#	c #FCFCFD",
")#	c #FAFAFA",
"!#	c #464646",
"~#	c #060608",
"{#	c #010103",
"]#	c #000003",
"^#	c #4B4B4C",
"/#	c #ACACAD",
"(#	c #9A9A9B",
"_#	c #919091",
":#	c #7D7D7E",
"<#	c #7F7E80",
"[#	c #848385",
"}#	c #868587",
"|#	c #8A8A8B",
"1#	c #CDCDCD",
"2#	c #FDFDFD",
"3#	c #FFFFFF",
"4#	c #AEAEAE",
"5#	c #8D8D8D",
"6#	c #7A7A7A",
"7#	c #6E6E6E",
"8#	c #474748",
"9#	c #101011",
"0#	c #0A090C",
"a#	c #353537",
"b#	c #38363A",
"c#	c #242128",
"d#	c #201D25",
"e#	c #1D1A23",
"f#	c #19151F",
"g#	c #110B19",
"h#	c #110C19",
"i#	c #120D1A",
"j#	c #14101B",
"k#	c #1C1922",
"l#	c #211F26",
"m#	c #515053",
"n#	c #E0E0E0",
"o#	c #FEFEFE",
"p#	c #E7E7E7",
"q#	c #CBCBCB",
"r#	c #737274",
"s#	c #252327",
"t#	c #090614",
"u#	c #0F0A26",
"v#	c #130E2D",
"w#	c #110C20",
"x#	c #0E0817",
"y#	c #0D071D",
"z#	c #0D062A",
"A#	c #0C0630",
"B#	c #0D0631",
"C#	c #0D0729",
"D#	c #0E0825",
"E#	c #0E0725",
"F#	c #0D062B",
"G#	c #0F0935",
"H#	c #282638",
"I#	c #636366",
"J#	c #DFDFDF",
"K#	c #DBDBDB",
"L#	c #C1C1C1",
"M#	c #8B8B8B",
"N#	c #151121",
"O#	c #0E0948",
"P#	c #18157D",
"Q#	c #1F1B86",
"R#	c #110B64",
"S#	c #0C0657",
"T#	c #0C0567",
"U#	c #0D068D",
"V#	c #0D079C",
"W#	c #0D069C",
"X#	c #0D0689",
"Y#	c #0C067C",
"Z#	c #0C057E",
"`#	c #0C0587",
" $	c #0C0596",
".$	c #0D0677",
"+$	c #0D073D",
"@$	c #201D28",
"#$	c #636264",
"$$	c #C8C8C8",
"%$	c #E2E2E2",
"&$	c #616162",
"*$	c #13101A",
"=$	c #0E0737",
"-$	c #161195",
";$	c #1E1BD8",
">$	c #0F0AE1",
",$	c #0E08CC",
"'$	c #100BCC",
")$	c #1916D5",
"!$	c #1B17EB",
"~$	c #1915F0",
"{$	c #1815EF",
"]$	c #1E1BE9",
"^$	c #221FE1",
"/$	c #1A17E4",
"($	c #150FE0",
"_$	c #0D07E8",
":$	c #0C06CD",
"<$	c #0C0578",
"[$	c #0C0629",
"}$	c #130E1A",
"|$	c #605F61",
"1$	c #D7D7D7",
"2$	c #686869",
"3$	c #797979",
"4$	c #434245",
"5$	c #434261",
"6$	c #4241C3",
"7$	c #130FEF",
"8$	c #0C06F2",
"9$	c #1411F0",
"0$	c #1713F2",
"a$	c #211FF3",
"b$	c #100BF4",
"c$	c #0D06F4",
"d$	c #0F08F4",
"e$	c #120CF4",
"f$	c #2624F4",
"g$	c #1B17F4",
"h$	c #2625F3",
"i$	c #1610F3",
"j$	c #1D1AE6",
"k$	c #1C1996",
"l$	c #100B34",
"m$	c #19161F",
"n$	c #28262C",
"o$	c #B0AFB0",
"  . + @ # @ $ % & * = - ; > , ' ) ! ~ { ] ^ / ( _ : + < , [ } | ",
"1 2 3 4 5 6 7 8 9 0 a b 8 c d e f g h i j j k l m n c o p q r s ",
"t u v w x y z A B C D E F G H I J J 8 8 K L M N O P O J Q R S T ",
"U V W X 5 Y Z `  ...L +.@.#.Q B z ..F ` $.%.&.*.E =.` L -.;.>.,.",
"'.).!.~.{.].8 ^.E /.(._.:.<.[.}.|.1.2.&.3.,.=.` ,.4.$.5.%.6.F 7.",
"1.8.9.0.a.b.^.`  .%.c.d.e.].f.1.,.f.:.}.g.h.D }.(.-.}.` }.^.8 h.",
"Q i.j.k.l.P m.n.I f.o.p.q.r.6...s.M t.u._.P v.w.x.y.z.F /.A.B.%.",
"C.D.b.E.F.I G.H.l.I.J.K.q.=.m.'.>.L.M.N.O.P.Q.R.S.T.U.k.V.H.q.W.",
"X.Y.i.M n.Z.`. +.+].g.z.++@+#+b.7.7.$+I %+A.&+*+=+-+;+>+,+'+)+!+",
"~+{+]+j.b.N.^+/+e.[.G (+_+:+<+[+}+}+|+1+2+3+]+4+5+6+7+8+9+0+a+b+",
"c+d+e+f+g+h+i+j+k+l+t.G.R.m+n+n+o+p+q+a+r+s+t+u+v+w+D.x+y+Z.z+A+",
"B+(.C+D+n+E+M.F+G+H+l+l+I+J+K+L+ +M+N+O+P+)+C.Q+R+D.S+T+U+V+W+v+",
"X+Y+_.Z+l+;.f.`+x+X.r+r+J+ @B+!.L X .@+@@@#@$@Q+%@&@*@=@-@;@y.)+",
">@N.,@s+Z+O+1+U.'@)@!@~@{@]@'@^@/@(@_@:@b+<@!+[@}@|@Z+1@2@{+3@4@",
"J+S.=@5@6@7@5@!@8@9@0@a@b@b@c@6@d@e@f@f@~@{@a@{@~+6@~+~+I+6+6+I+",
"g@{@h@f@f@)@i@j@)@~@~@~@~@~@~@~@k@~@~@~@~@g@l@b@~@~@~@f@d@,+,+4@",
"!@!@g@m@~@b@~@~@~@~@~@~@~@~@~@~@~@~@m@b@b@g@g@~@~@~@~@~@b+n@n@b+",
"b@~@~@~@~@~@~@~@~@~@~@~@b@~@~@b@m@)@o@j@)@)@g@b@~@~@~@~@~@f@f@p@",
"~@b@b@~@~@~@~@~@~@~@~@~@~@~@m@j@a@!@q@r@j@s@!@m@~@~@~@~@b@m@g@o@",
"!@0@p@!@m@~@~@~@~@~@b@~@b@~@!@p@)@a@t@u@m@~@~@~@~@~@~@m@m@m@m@)@",
"g@!@a@m@m@b@m@!@)@m@m@b@m@~@b@~@~@b@v@w@b@~@~@~@~@~@~@~@~@m@!@m@",
"!@x@s@l@i@p@m@s@s@)@)@g@b@~@~@~@~@~@~@i@i@j@g@~@b@~@~@~@b@g@g@o@",
"r@r@y@z@A@B@C@m@m@m@m@b@~@~@~@~@~@~@m@D@E@i@a@~@~@~@~@~@~@b@x@F@",
"G@H@F@I@J@K@D@i@C@j@j@0@s@a@g@g@m@b@g@a@)@m@m@m@~@~@~@~@~@b@m@L@",
"M@c+N@O@P@Q@R@S@T@U@V@W@X@Y@Z@`@ #D@p@s@j@w@9@8@o@C@x@b@~@~@~@p@",
".#+#@#######$#%#&#*#z@Z@F@M@*#=#=#-#;#L@>#V@,#'#G@)#q@m@~@~@~@!@",
"!#} ~#{#]#{###]#^#/#t+(#_#:#<#[#}#|#U+d+1#=#2#3#3#3#U@g@~@~@~@g@",
"4#5#6#7#R@8#9#0#a#b#c#d#e#f#g#h#i#j#k#l#m#(@n#V@o#3#A@s@~@~@~@j@",
"U@=#t@p#q#r#s#t#u#v#w#x#y#z#A#B#C#D#E#F#G#H#I#+@J#V@`@s@~@~@)@L@",
"o#U@K#L#M#k#N#O#P#Q#R#S#T#U#V#W#X#Y#Z#`# $.$+$@$#$$$o@)@g@s@j@i@",
"G@%$&#| &$*$=$-$;$>$,$'$)$!$~${$]$^$/$($_$:$<$[$}$|$1$b@)@)@m@a@",
"G@%$&#2$3$4$5$6$7$8$9$0$a$b$c$d$e$f$g$h$i$j$k$l$m$n$o$C@p@j@w@L@"};
