/* XPM */
static char * coll1_xpm[] = {
"32 32 127 2",
"  	c #B55E8D",
". 	c #B55C8D",
"+ 	c #B56C8D",
"@ 	c #B2698D",
"# 	c #B2768D",
"$ 	c #B28F8D",
"% 	c #B2958D",
"& 	c #B29E8D",
"* 	c #AFA88D",
"= 	c #B2A58D",
"- 	c #ADAA8D",
"; 	c #AABD8D",
"> 	c #AABE8D",
", 	c #AABF8D",
"' 	c #A9BF8D",
") 	c #A8C08D",
"! 	c #A7C28D",
"~ 	c #A8C28D",
"{ 	c #A9C38D",
"] 	c #A8C48D",
"^ 	c #A8CB8D",
"/ 	c #AAFF8D",
"( 	c #A9FF8D",
"_ 	c #A6FF8D",
": 	c #A0FF8D",
"< 	c #9EFF8D",
"[ 	c #98FF8D",
"} 	c #94FF8D",
"| 	c #8DFF8D",
"1 	c #85FF8D",
"2 	c #38FF8D",
"3 	c #00FF8D",
"4 	c #00E28D",
"5 	c #00BD8D",
"6 	c #00AB8D",
"7 	c #00AE8D",
"8 	c #00C58D",
"9 	c #00F78D",
"0 	c #00E38D",
"a 	c #00DA8D",
"b 	c #00F88D",
"c 	c #00D08D",
"d 	c #00A08D",
"e 	c #008F8D",
"f 	c #008B8D",
"g 	c #00968D",
"h 	c #00A48D",
"i 	c #00C18D",
"j 	c #00E98D",
"k 	c #00B88D",
"l 	c #009B8D",
"m 	c #00B18D",
"n 	c #00B28D",
"o 	c #008C8D",
"p 	c #009C8D",
"q 	c #00D18D",
"r 	c #00958D",
"s 	c #008D8D",
"t 	c #00A68D",
"u 	c #00998D",
"v 	c #00938D",
"w 	c #00A98D",
"x 	c #00D68D",
"y 	c #00B98D",
"z 	c #00B58D",
"A 	c #00FE8D",
"B 	c #00918D",
"C 	c #009F8D",
"D 	c #00C68D",
"E 	c #008E8D",
"F 	c #00988D",
"G 	c #00BF8D",
"H 	c #00AC8D",
"I 	c #00EF8D",
"J 	c #00928D",
"K 	c #009E8D",
"L 	c #00CE8D",
"M 	c #00A38D",
"N 	c #00948D",
"O 	c #00CA8D",
"P 	c #00A28D",
"Q 	c #00C28D",
"R 	c #00908D",
"S 	c #00DC8D",
"T 	c #00B68D",
"U 	c #00A58D",
"V 	c #00A88D",
"W 	c #00C78D",
"X 	c #009D8D",
"Y 	c #00BA8D",
"Z 	c #00A18D",
"` 	c #00B08D",
" .	c #00C08D",
"..	c #00B48D",
"+.	c #38BE8D",
"@.	c #4DC78D",
"#.	c #5CC78D",
"$.	c #5CD68D",
"%.	c #5CE98D",
"&.	c #5CFF8D",
"*.	c #99FF8D",
"=.	c #99F78D",
"-.	c #9CFF8D",
";.	c #A2FF8D",
">.	c #A9E38D",
",.	c #AACB8D",
"'.	c #AAC38D",
").	c #ACC08D",
"!.	c #B5BF8D",
"~.	c #B6BF8D",
"{.	c #B7BF8D",
"].	c #B3BF8D",
"^.	c #ADC08D",
"/.	c #ADBE8D",
"(.	c #ADBC8D",
"_.	c #ADBB8D",
":.	c #ADB98D",
"<.	c #ADB78D",
"[.	c #B2B58D",
"}.	c #B7A08D",
"|.	c #B8A08D",
"1.	c #B8988D",
"2.	c #B88D8D",
"3.	c #B87E8D",
"4.	c #B8738D",
"5.	c #B8658D",
"6.	c #B8528D",
"  . + + + @ @ @ # $ % & & * = = = = = = = = = = = = = = = = = - ",
"; > > , ' ) ! ! ! ~ { ~ ] ] ] { { { { { { { { { { { { { { { { ^ ",
"/ / / ( / / / / / ( _ ( _ _ _ _ _ _ _ _ _ _ _ _ _ _ _ _ _ _ _ _ ",
": : < < < : : : < [ } | | 1 1 1 1 1 1 1 1 1 1 1 1 1 1 1 1 1 1 1 ",
"2 3 3 3 3 3 3 3 3 3 3 3 3 3 3 3 3 3 4 5 6 7 8 4 9 3 3 3 3 3 3 3 ",
"3 3 3 3 3 3 3 0 a a b 3 3 3 3 3 3 c d e f e g h i j 3 3 3 3 3 3 ",
"3 3 3 3 3 3 9 k l m 9 3 3 3 3 3 a n f o g p g e l i j 3 3 3 3 3 ",
"3 3 3 3 3 3 q r s t 9 3 3 3 3 a k e u 6 8 4 8 7 r v w x 3 3 3 3 ",
"3 3 3 3 3 3 y s s z A 3 3 3 3 8 B C D 9 3 3 3 j n s E 7 3 3 3 3 ",
"3 3 3 3 3 j t s F q 3 3 3 3 3 G l H I 3 3 3 3 3 q J o K 3 3 3 3 ",
"3 3 3 3 3 i F g i 9 3 3 3 3 3 a D L 9 3 3 3 3 3 9 l f K 3 3 3 3 ",
"3 3 3 3 3 w f d j 3 3 3 3 3 3 b 9 9 A 3 3 3 3 3 3 d f d 3 3 3 3 ",
"3 3 3 3 9 d f M 3 3 3 3 3 3 3 3 3 3 3 3 3 3 3 3 3 d f d 3 3 3 3 ",
"3 3 3 3 q N s t 3 3 3 3 3 3 3 3 3 3 3 3 3 3 3 3 j d f w 3 3 3 3 ",
"3 3 3 3 y E E y 3 3 3 b 9 9 A 3 3 3 3 3 3 3 3 3 O g g 5 3 3 3 3 ",
"3 3 3 9 t s r q 3 3 3 a D L 9 3 3 3 3 3 3 3 3 3 7 e p 4 3 3 3 3 ",
"3 3 3 q r s t 9 3 3 3 G l H I 3 3 3 3 3 3 3 3 x F f P 9 3 3 3 3 ",
"3 3 3 Q E E n 3 3 3 3 y R C S 3 3 3 3 3 3 3 9 T E E T 3 3 3 3 3 ",
"3 3 3 U E s V W W W W P s E w 3 3 3 3 3 3 3 q r o u x 3 3 3 3 3 ",
"3 3 j l f s v g g g g R f f X 3 3 3 3 3 3 9 n E E 5 3 3 3 3 3 3 ",
"3 3 j g E e g g g g g e f f u 3 3 3 3 3 3 O K s M x 3 3 3 3 3 3 ",
"3 3 j i T Y W W W W W Z o o ` 3 3 3 3 3 x K f P a 3 3 3 3 3 3 3 ",
"3 3 3 3 3 3 3 3 3 3 3 Y R R Y 3 3 3 3 4 H s E T 3 3 3 3 3 3 3 3 ",
"3 3 3 3 3 3 3 3 3 3 3 5 g g q 3 3 3 W d E s M x 3 3 3 3 3 3 3 3 ",
"3 3 3 3 3 3 3 3 3 3 3 7 e p 4 3 3 j l f o K  .q W W W W W x j 3 ",
"3 3 3 3 3 3 3 3 3 3 3 M f d 9 3 a 7 o f o r p g g g g g g d c 3 ",
"3 3 3 3 3 3 3 3 3 3 3 n f n 3 3 c B f f R e e g g g g g g d c 3 ",
"3 3 3 3 3 3 3 3 3 3 3 c c c 3 3 c 6 d w 7 ....+.@.#.#.#.#.$.%.&.",
"1 1 1 1 1 1 1 1 1 1 1 1 | } *.*.=.=.=.*.*.-.< : ;.;.;.;.;.;.;.;.",
"_ _ _ _ _ _ _ _ _ _ _ _ _ ( ( ( ( ( ( ( ( ( / / ( ( ( >.,.'.'.'.",
").!.~.{.{.{.{.~.].^.^.^.^./././././././././.(._.:.<.<.<.[.[.[.[.",
"}.|.|.|.|.|.|.|.|.|.|.|.1.2.3.3.3.3.3.3.3.4.5.6.6.6.6.6.@ @ @ @ "};
