/* XPM */
static char * coll2_xpm[] = {
"32 32 109 2",
"  	c #B3C08D",
". 	c #B2C08D",
"+ 	c #B2C18D",
"@ 	c #B2C28D",
"# 	c #B2BF8D",
"$ 	c #B2B98D",
"% 	c #B2B58D",
"& 	c #B2B78D",
"* 	c #B2BB8D",
"= 	c #AAC38D",
"- 	c #AAFF8D",
"; 	c #A6FF8D",
"> 	c #A2FF8D",
", 	c #A0FF8D",
"' 	c #77FF8D",
") 	c #87FF8D",
"! 	c #91FF8D",
"~ 	c #9FFF8D",
"{ 	c #9EFF8D",
"] 	c #97FF8D",
"^ 	c #76FF8D",
"/ 	c #5CFF8D",
"( 	c #4DFF8D",
"_ 	c #38FF8D",
": 	c #00FF8D",
"< 	c #00D68D",
"[ 	c #00B68D",
"} 	c #00A68D",
"| 	c #00A88D",
"1 	c #00AD8D",
"2 	c #00BF8D",
"3 	c #00DA8D",
"4 	c #00E98D",
"5 	c #00A08D",
"6 	c #008E8D",
"7 	c #008B8D",
"8 	c #008F8D",
"9 	c #00B28D",
"0 	c #00D08D",
"a 	c #00ED8D",
"b 	c #008C8D",
"c 	c #00938D",
"d 	c #009C8D",
"e 	c #00958D",
"f 	c #00E28D",
"g 	c #009E8D",
"h 	c #008D8D",
"i 	c #00C28D",
"j 	c #00EF8D",
"k 	c #00E88D",
"l 	c #00AC8D",
"m 	c #00BD8D",
"n 	c #00A98D",
"o 	c #00CA8D",
"p 	c #00D18D",
"q 	c #00948D",
"r 	c #00F48D",
"s 	c #00CE8D",
"t 	c #00BB8D",
"u 	c #00B48D",
"v 	c #00D48D",
"w 	c #00F78D",
"x 	c #00A38D",
"y 	c #009F8D",
"z 	c #00978D",
"A 	c #00A28D",
"B 	c #009B8D",
"C 	c #00968D",
"D 	c #00998D",
"E 	c #00928D",
"F 	c #00C18D",
"G 	c #00AB8D",
"H 	c #7BE98D",
"I 	c #85E28D",
"J 	c #8DDB8D",
"K 	c #94E88D",
"L 	c #99E88D",
"M 	c #99EF8D",
"N 	c #99F78D",
"O 	c #99FF8D",
"P 	c #9CFF8D",
"Q 	c #A9FF8D",
"R 	c #A9F58D",
"S 	c #A9DA8D",
"T 	c #AAC48D",
"U 	c #A9C48D",
"V 	c #A9C38D",
"W 	c #A8C28D",
"X 	c #A9C18D",
"Y 	c #A9C08D",
"Z 	c #AABF8D",
"` 	c #ADBE8D",
" .	c #B2BD8D",
"..	c #AFBD8D",
"+.	c #B5BB8D",
"@.	c #B2AE8D",
"#.	c #B2A58D",
"$.	c #B29E8D",
"%.	c #B2958D",
"&.	c #B2898D",
"*.	c #B5848D",
"=.	c #B6818D",
"-.	c #B6808D",
";.	c #B5828D",
">.	c #B87E8D",
",.	c #B2808D",
"'.	c #B2768D",
").	c #B2698D",
"!.	c #B55F8D",
"  . . + @ @ + # $ % % % % % % % % % % % % % % % % % & $ * * * * ",
"= = = = = = = = = = = = = = = = = = = = = = = = = = = = = = = = ",
"- - - - - - - - ; > > > > > > > > > > > > > > > > > > , , , , , ",
"' ' ' ) ! ~ { ] ^ / / / / / / / / / / / / / / / / / ( _ : : : : ",
": : : : : : : : : : : : : : : : : : : : : : : : : : : : : : : : ",
": : < [ } | 1 2 3 : : : : : : : : : : : : : : : : : : : : : : : ",
": 4 5 6 7 8 8 8 9 0 : : : : : : : : : : : : : : : : : : : : : : ",
"a [ 8 b c d d e 7 5 < : : : : : : : : : : : : : : : : : : : : : ",
"f g h 5 i j k l h 6 m : : : : : : : : : : : : : : : : : : : : : ",
"f n n o : : : p q h } : : : : : : : : : : : : : : : : : : : : : ",
"r 4 4 r : : : j 5 7 | : : : : : : : : : : : : : : : : : : : : : ",
": : : : : : : j d 8 | : : : : : : : : : : : : : : : : : : : : : ",
": : : : : : : s d 8 t : : : : : : : : : : : : : : : : : : : : : ",
": : : : : : : u 8 d v : : : : : : : : : : : : : : : : : : : : : ",
": : : : : : w x 7 x w : : : : : : : : : : : : : : : : : : : : : ",
": : : : : : v d 8 u : : : : : : : : : : : : : : : : : : : : : : ",
": : : : : w u 8 y v : : : : : : : : : : : : : : : : : : : : : : ",
": : : : : p e h } w : : : : : : : : : : : : : : : : : : : : : : ",
": : : : : 9 6 6 m : : : : : : : : : : : : : : : : : : : : : : : ",
": : : : < z 7 z < : : : : : : : : : : : : : : : : : : : : : : : ",
": : : : [ 6 6 [ : : : : : : : : : : : : : : : : : : : : : : : : ",
": : : 4 A 7 B < : : : : : : : : : : : : : : : : : : : : : : : : ",
": : : o C C m : : : : : : : : : : : : : : : : : : : : : : : : : ",
": : < g h g f : : : : : : : : : : : : : : : : : : : : : : : : : ",
": o } h 8 [ w : : : : : : : : : : : : : : : : : : : : : : : : : ",
"< D 7 b E y 1 1 1 1 1 1 1 2 3 : : : : : : : : : : : : : : : : : ",
"F h 7 b 6 8 8 8 8 8 8 8 8 c 0 : : : : : : : : : : : : : : : : : ",
"F e c z d d d d d d d d d G 0 : : : : : : : : : : : : : : : : : ",
"H I J K L L L L L L L L L M N O O O O O O O O O O O O P { , , , ",
"; ; ; Q Q Q Q Q Q Q Q Q R S T T S R Q Q Q Q Q Q Q R S T = = = = ",
"U V V W W W W W W X Y Z Z `  . ...` ` ` Z Z X X X Z `  .* * * +.",
"@.#.$.%.&.&.&.&.&.*.=.-.;.;.&.&.;.>.>.>.>.&.;.&.&.;.;.,.'.).).!."};
