/* XPM */
static char * coll3_xpm[] = {
"32 32 98 2",
"  	c #B65B8D",
". 	c #B2698D",
"+ 	c #B8528D",
"@ 	c #B55C8D",
"# 	c #B3658D",
"$ 	c #A5B68D",
"% 	c #B1A68D",
"& 	c #B2A58D",
"* 	c #ADAA8D",
"= 	c #ABAC8D",
"- 	c #A9AE8D",
"; 	c #A8B08D",
"> 	c #A6B48D",
", 	c #A3B88D",
"' 	c #A0BE8D",
") 	c #9EC08D",
"! 	c #A7E38D",
"~ 	c #A8CB8D",
"{ 	c #A9C38D",
"] 	c #A6FF8D",
"^ 	c #A6FB8D",
"/ 	c #A6E98D",
"( 	c #A6ED8D",
"_ 	c #85FF8D",
": 	c #85CA8D",
"< 	c #85BB8D",
"[ 	c #85B78D",
"} 	c #85DA8D",
"| 	c #00FF8D",
"1 	c #00E98D",
"2 	c #00AE8D",
"3 	c #008B8D",
"4 	c #009E8D",
"5 	c #00DA8D",
"6 	c #00F78D",
"7 	c #00C18D",
"8 	c #00958D",
"9 	c #00B68D",
"0 	c #00ED8D",
"a 	c #00D48D",
"b 	c #00A48D",
"c 	c #008F8D",
"d 	c #00B48D",
"e 	c #00988D",
"f 	c #00CA8D",
"g 	c #00B88D",
"h 	c #00A98D",
"i 	c #00968D",
"j 	c #00FB8D",
"k 	c #00E28D",
"l 	c #009B8D",
"m 	c #00D18D",
"n 	c #008C8D",
"o 	c #00A68D",
"p 	c #00C78D",
"q 	c #00C28D",
"r 	c #00908D",
"s 	c #00B28D",
"t 	c #008E8D",
"u 	c #00C58D",
"v 	c #00BD8D",
"w 	c #00AB8D",
"x 	c #008D8D",
"y 	c #00948D",
"z 	c #00CB8D",
"A 	c #00928D",
"B 	c #00AD8D",
"C 	c #00BA8D",
"D 	c #00978D",
"E 	c #00918D",
"F 	c #00C98D",
"G 	c #00A38D",
"H 	c #00D08D",
"I 	c #00AC8D",
"J 	c #00A28D",
"K 	c #00998D",
"L 	c #00D58D",
"M 	c #00A88D",
"N 	c #00EF8D",
"O 	c #009F8D",
"P 	c #A0FF8D",
"Q 	c #A0EF8D",
"R 	c #A0C18D",
"S 	c #A0C38D",
"T 	c #AAFF8D",
"U 	c #AAF58D",
"V 	c #AAEB8D",
"W 	c #AAD28D",
"X 	c #AAC48D",
"Y 	c #AAC38D",
"Z 	c #AAE38D",
"` 	c #A9BF8D",
" .	c #AABD8D",
"..	c #ADBC8D",
"+.	c #AFBC8D",
"@.	c #B2BB8D",
"#.	c #B1BB8D",
"$.	c #AABE8D",
"  . . . . . . . . . . . . . . + + @ @ @ . . . . . . . . . . . # ",
"$ % & & & & & & & & & & & & & * = - ; > , ' ' ' ' ' ' ' ' ' , ) ",
"! ~ { { { { { { { { { { { { ~ ! ] ] ] ] ] ] ] ] ] ] ] ] ] ] ] ] ",
"] ] ] ] ] ] ] ] ] ] ] ] ] ] ] ] ] ] ] ] ] ] ] ] ^ / / ( ] ] ] ] ",
"_ _ _ _ _ _ _ _ _ _ _ _ _ _ _ _ _ _ _ _ _ _ _ _ : < [ } _ _ _ _ ",
"| | | | | | | | | | | | | | | | | | | | | | | 1 2 3 4 5 | | | | ",
"| | | | | | | | | | | | | | | | | | | | | | 6 7 8 8 9 0 | | | | ",
"| | | | | | | | | | | | | | | | | | | | | | a b c d 1 | | | | | ",
"| | | | | | | | | | | | | | | | | | | | | 1 d c b a | | | | | | ",
"| | | | | | | | | | | | | | | | | | | | 6 7 e e 7 6 | | | | | | ",
"| | | | | | | | | | | | | | | | | | | | f b c g 1 | | | | | | | ",
"| | | | | | | | | | | | | | | | | | | 1 2 3 h 5 | | | | | | | | ",
"| | | | | | | | | | | | | | | | | | | 7 i i 7 | | | | j 6 6 j | ",
"| | | | | | | | | | | | | | | | | | k l 3 4 1 | | | | 1 f f 1 | ",
"| | | | | | | | | | | | | | | | | | m c n o | | | | | p e e p | ",
"| | | | | | | | | | | | | | | | | | q r r s | | | | | d t t u | ",
"| | | | | | | | | | | | | | | | | | v i i m | | | | | w x y z | ",
"| | | | | | | | | | | | | | | | | | 2 t A B C p p p p D n E F | ",
"| | | | | | | | | | | | | | | | | | G 3 n x r i i i i x 3 n 7 | ",
"| | | | | | | | | | | | | | | | | | s 3 t t r i i i i x 3 c 7 | ",
"| | | | | | | | | | | | | | | | | | H 7 I C C p p p p J t K L | ",
"| | | | | | | | | | | | | | | | | | | | | | | | | | | v i i m | ",
"| | | | | | | | | | | | | | | | | | | | | | | | | | | p i i p | ",
"| | | | | | | | | | | | | | | | | | | | | | | | | | | C r r C | ",
"| | | | | | | | | | | | | | | | | | | | | | | | | | | C t t C | ",
"| | | | | | | | | | | | | | | | | | | | | | | | | | | p A r I 6 ",
"| | | | | | | | | | | | | | | | | | | | | | | | | | | k G c M 6 ",
"| | | | | | | | | | | | | | | | | | | | | | | | | | | N O c M 6 ",
"P P P P P P P P P P P P P P P P P P P P P P P P P P P Q R ' S P ",
"T U V W X Y Y Y Y Y Y Y Y Y Y Y Y Y Y Y Y Y Y Y Y Y Y Y Y Y Y Z ",
"`  ...+.@.@.@.@.@.@.@.@.@.@.@.@.@.@.@.@.@.@.@.@.@.@.@.@.@.@.#.$.",
"@ @ @ @ . . . . . . . . . . . . . . . . . . . . . . . . . . . @ "};
