/* XPM */
static char * collectible_xpm[] = {
"32 32 181 2",
"  	c #FFFFFF",
". 	c #FEFEFF",
"+ 	c #FAFBFF",
"@ 	c #FDFDFF",
"# 	c #F3F4FF",
"$ 	c #EAEDFF",
"% 	c #E0E4FF",
"& 	c #C5CCFF",
"* 	c #C7CEFF",
"= 	c #E4E7FF",
"- 	c #F3F5FF",
"; 	c #F8F9FF",
"> 	c #F9F9FF",
", 	c #F5F6FF",
"' 	c #EFF0FF",
") 	c #D0D5FF",
"! 	c #91A1FF",
"~ 	c #6B84FF",
"{ 	c #6B85FF",
"] 	c #6882FF",
"^ 	c #4D72FF",
"/ 	c #5375FF",
"( 	c #768CFF",
"_ 	c #99A7FF",
": 	c #B4BDFF",
"< 	c #C6CDFF",
"[ 	c #E8EBFF",
"} 	c #FBFCFF",
"| 	c #FCFDFF",
"1 	c #EBEDFF",
"2 	c #BEC5FF",
"3 	c #99A6FF",
"4 	c #8496FF",
"5 	c #5274FF",
"6 	c #3365FF",
"7 	c #2F63FF",
"8 	c #3164FF",
"9 	c #3766FF",
"0 	c #436CFF",
"a 	c #8A9BFF",
"b 	c #D7DCFF",
"c 	c #F9FAFF",
"d 	c #E7EAFF",
"e 	c #A6B1FF",
"f 	c #4F73FF",
"g 	c #3465FF",
"h 	c #3265FF",
"i 	c #3064FF",
"j 	c #3466FF",
"k 	c #3968FF",
"l 	c #3767FF",
"m 	c #3F6AFF",
"n 	c #3264FF",
"o 	c #7088FF",
"p 	c #D6DAFF",
"q 	c #FCFCFF",
"r 	c #A1AEFF",
"s 	c #5576FF",
"t 	c #3566FF",
"u 	c #5173FF",
"v 	c #758BFF",
"w 	c #748BFF",
"x 	c #98A7FF",
"y 	c #A4B1FF",
"z 	c #9EACFF",
"A 	c #AAB5FF",
"B 	c #9AA8FF",
"C 	c #7D91FF",
"D 	c #5E7CFF",
"E 	c #3E6AFF",
"F 	c #3867FF",
"G 	c #9FACFF",
"H 	c #FEFFFF",
"I 	c #F2F4FF",
"J 	c #B5BEFF",
"K 	c #5978FF",
"L 	c #3B68FF",
"M 	c #6E86FF",
"N 	c #CBD1FF",
"O 	c #EDEFFF",
"P 	c #F4F5FF",
"Q 	c #F6F7FF",
"R 	c #F4F6FF",
"S 	c #F7F8FF",
"T 	c #D3D8FF",
"U 	c #9BA9FF",
"V 	c #5676FF",
"W 	c #476EFF",
"X 	c #ABB6FF",
"Y 	c #D5DAFF",
"Z 	c #788DFF",
"` 	c #456DFF",
" .	c #406BFF",
"..	c #8396FF",
"+.	c #D9DDFF",
"@.	c #EFF1FF",
"#.	c #CFD4FF",
"$.	c #BBC3FF",
"%.	c #E6E8FF",
"&.	c #496FFF",
"*.	c #EEF0FF",
"=.	c #91A0FF",
"-.	c #3967FF",
";.	c #98A6FF",
">.	c #F1F3FF",
",.	c #8094FF",
"'.	c #3D69FF",
").	c #B6BFFF",
"!.	c #E0E3FF",
"~.	c #7C90FF",
"{.	c #466EFF",
"].	c #5D7BFF",
"^.	c #C0C7FF",
"/.	c #486FFF",
"(.	c #5878FF",
"_.	c #BAC2FF",
":.	c #E5E8FF",
"<.	c #889AFF",
"[.	c #466DFF",
"}.	c #9EABFF",
"|.	c #EEEFFF",
"1.	c #A6B2FF",
"2.	c #4B71FF",
"3.	c #C8CEFF",
"4.	c #EAECFF",
"5.	c #DADEFF",
"6.	c #F0F2FF",
"7.	c #AFB9FF",
"8.	c #446DFF",
"9.	c #3A68FF",
"0.	c #5979FF",
"a.	c #8497FF",
"b.	c #D7DBFF",
"c.	c #FAFAFF",
"d.	c #DDE0FF",
"e.	c #BCC5FF",
"f.	c #93A2FF",
"g.	c #7F93FF",
"h.	c #CBD2FF",
"i.	c #7289FF",
"j.	c #3666FF",
"k.	c #5475FF",
"l.	c #5777FF",
"m.	c #8E9EFF",
"n.	c #B4BEFF",
"o.	c #4A70FF",
"p.	c #B0BAFF",
"q.	c #4B70FF",
"r.	c #899BFF",
"s.	c #B9C2FF",
"t.	c #F2F3FF",
"u.	c #B8C1FF",
"v.	c #8C9DFF",
"w.	c #3E69FF",
"x.	c #F6F6FF",
"y.	c #A8B3FF",
"z.	c #637FFF",
"A.	c #4C71FF",
"B.	c #6983FF",
"C.	c #8FA0FF",
"D.	c #96A4FF",
"E.	c #7188FF",
"F.	c #456EFF",
"G.	c #3C69FF",
"H.	c #798EFF",
"I.	c #4E72FF",
"J.	c #96A5FF",
"K.	c #DFE3FF",
"L.	c #E8EAFF",
"M.	c #788EFF",
"N.	c #406AFF",
"O.	c #4F72FF",
"P.	c #909FFF",
"Q.	c #BEC6FF",
"R.	c #E9EBFF",
"S.	c #A5B1FF",
"T.	c #8B9CFF",
"U.	c #7C91FF",
"V.	c #E7E9FF",
"W.	c #DDE1FF",
"X.	c #E3E6FF",
"                                                                ",
"                                                                ",
"                                                                ",
"                                                                ",
"                                                                ",
"                            . + + .                             ",
"                    @ # $ $ % & * = - ; + .                     ",
"            . > , ' ) ! ~ { ] ^ / ( _ : < [ }                   ",
"          | 1 2 3 4 5 6 7 7 8 8 6 8 9 0 / a b c                 ",
"        | d e f g h 7 8 i j k l m 9 8 n 6 l o p q               ",
"      @ [ r s t 7 h u v w x y z A B C D E 8 F G ,               ",
"    H I J K L t F M N 1 O P Q R S R $ T U V W X Q               ",
"    } Y Z ` 0  ...+.+               H q @.#.$.%.@               ",
"    Q X &.^ l w Y +                     H } > @                 ",
"  H *.=.F u -.;.>.                                              ",
"  @ = ,.'.&.s ).S                                               ",
"  @ !.~.'.{.].^.>                                               ",
"  @ !.C E /.(._.S                                               ",
"  @ :.<.0 ^ [.}.|..                       . } .                 ",
"  H >.1.2.0 0 w 3., H               H | S 4.5.6..               ",
"    Q 7.8.9.0.f a.b.c.            @ # d.e.f.g.h.+               ",
"    | 5.i.j./ k.l.m.+.Q | H   @ S %.n.C / 9.o.7.S               ",
"      , p.2.L q.m o.r.s.+.*.t.!.u.v.^ w.9 8 g }.x.              ",
"      @ d y.z.-.{./ {.A.B.C.D.E.F.G.8 -.8 m H.b.q               ",
"        @ ' y.I.E L G.h 6 l l 8 i 8 l m I.J.K.+                 ",
"          @ L.: M.N.g j.j.t t t g 6 O.P.Q.R.|                   ",
"            @ , 5.S.T.U.( i.i.( M.<.u.V.; .                     ",
"                | , *.= K.W.W.K.X.O S .                         ",
"                    H @ @ @ @ @ @ H                             ",
"                                                                ",
"                                                                ",
"                                                                "};
