/* XPM */
static char * collectible1_xpm[] = {
"32 32 589 2",
"  	c #38BDFF",
". 	c #36BCFF",
"+ 	c #37BCFF",
"@ 	c #38BCFF",
"# 	c #39BDFF",
"$ 	c #3ABDFF",
"% 	c #40BEFF",
"& 	c #57C5FF",
"* 	c #60C8FF",
"= 	c #5DC7FF",
"- 	c #59C6FF",
"; 	c #50C3FF",
"> 	c #4CC2FF",
", 	c #46C0FF",
"' 	c #41BFFF",
") 	c #45C0FF",
"! 	c #48C1FF",
"~ 	c #4AC1FF",
"{ 	c #4BC1FF",
"] 	c #53C4FF",
"^ 	c #51C3FF",
"/ 	c #4DC2FF",
"( 	c #4CC1FF",
"_ 	c #49C1FF",
": 	c #44C0FF",
"< 	c #43BFFF",
"[ 	c #42BFFF",
"} 	c #3FBEFF",
"| 	c #3CBDFF",
"1 	c #3DBEFF",
"2 	c #81D7FF",
"3 	c #B3F3FF",
"4 	c #B8F6FF",
"5 	c #B6F5FF",
"6 	c #AFF1FF",
"7 	c #A3E9FF",
"8 	c #95E1FF",
"9 	c #91DFFF",
"0 	c #A0E8FF",
"a 	c #A8ECFF",
"b 	c #B2F2FF",
"c 	c #B4F4FF",
"d 	c #B5F4FF",
"e 	c #B2F3FF",
"f 	c #B1F2FF",
"g 	c #ADEFFF",
"h 	c #9BE4FF",
"i 	c #C0FCFF",
"j 	c #C5FFFF",
"k 	c #C3FEFF",
"l 	c #C1FCFF",
"m 	c #C3FDFF",
"n 	c #C4FEFF",
"o 	c #66CBFF",
"p 	c #A3EAFF",
"q 	c #C5EEC6",
"r 	c #B3C478",
"s 	c #A6AA4E",
"t 	c #9E9C3F",
"u 	c #9F9D45",
"v 	c #A19F44",
"w 	c #9F9E48",
"x 	c #9F9E50",
"y 	c #9F9E4E",
"z 	c #A5AC66",
"A 	c #B1C58B",
"B 	c #BAE2CD",
"C 	c #C5FBF4",
"D 	c #5AC6FF",
"E 	c #ABEEFF",
"F 	c #AAB984",
"G 	c #9D9730",
"H 	c #978C13",
"I 	c #938410",
"J 	c #AB9712",
"K 	c #AC9812",
"L 	c #BEA814",
"M 	c #AF9E14",
"N 	c #AA9510",
"O 	c #938311",
"P 	c #958811",
"Q 	c #958816",
"R 	c #9A9225",
"S 	c #A2A34D",
"T 	c #B1C691",
"U 	c #5FC8FF",
"V 	c #B3C08A",
"W 	c #BCA933",
"X 	c #B8A110",
"Y 	c #CCB110",
"Z 	c #C2AC16",
"` 	c #D3B91B",
" .	c #D4BA1C",
"..	c #D4BC17",
"+.	c #D4BB15",
"@.	c #C4AF12",
"#.	c #988D13",
"$.	c #918010",
"%.	c #928207",
"&.	c #99912F",
"*.	c #BAD391",
"=.	c #C6F6E1",
"-.	c #61C9FF",
";.	c #B3CA95",
">.	c #A8A449",
",.	c #C6AC10",
"'.	c #D7BB14",
").	c #D0B71B",
"!.	c #E2C436",
"~.	c #DDE53E",
"{.	c #DFED30",
"].	c #DFF51A",
"^.	c #DEF01A",
"/.	c #D3E447",
"(.	c #B6CB3F",
"_.	c #A9B82F",
":.	c #9CA137",
"<.	c #948924",
"[.	c #928111",
"}.	c #938307",
"|.	c #A2A020",
"1.	c #B6C55A",
"2.	c #C5EAB3",
"3.	c #62C9FF",
"4.	c #AEBF83",
"5.	c #B2AB47",
"6.	c #BDA511",
"7.	c #D0B834",
"8.	c #CDBA3C",
"9.	c #B7B05C",
"0.	c #AFC55B",
"a.	c #C3E446",
"b.	c #E1FF1D",
"c.	c #E1FF27",
"d.	c #DDFF52",
"e.	c #BCE39D",
"f.	c #7FAFC3",
"g.	c #658BCB",
"h.	c #5675D8",
"i.	c #5F86AE",
"j.	c #908E54",
"k.	c #928112",
"l.	c #938310",
"m.	c #988E10",
"n.	c #B6C764",
"o.	c #C5F6E1",
"p.	c #C3EEC6",
"q.	c #A09E31",
"r.	c #AA9507",
"s.	c #D0B727",
"t.	c #D0BD73",
"u.	c #92958C",
"v.	c #4D6789",
"w.	c #4A767E",
"x.	c #A3C464",
"y.	c #E2FF36",
"z.	c #E2FF51",
"A.	c #DBE3C4",
"B.	c #6A98F1",
"C.	c #3769FF",
"D.	c #0B52FF",
"E.	c #1B58FF",
"F.	c #1958FF",
"G.	c #4E78BF",
"H.	c #8C863F",
"I.	c #918110",
"J.	c #AEB321",
"K.	c #C5E9AE",
"L.	c #B9CF7F",
"M.	c #A29513",
"N.	c #B19A10",
"O.	c #CAB530",
"P.	c #BBB6CA",
"Q.	c #7B7FE0",
"R.	c #3758CC",
"S.	c #5C79C1",
"T.	c #A6C47C",
"U.	c #E2FF6B",
"V.	c #E2FF83",
"W.	c #D0C1DA",
"X.	c #3C6DFF",
"Y.	c #717AFE",
"Z.	c #9F9DFE",
"`.	c #9593FE",
" +	c #4D6AFE",
".+	c #4869E0",
"++	c #888C63",
"@+	c #B8A218",
"#+	c #A79310",
"$+	c #A19C16",
"%+	c #C1D979",
"&+	c #ADE2B3",
"*+	c #ADAC31",
"=+	c #C2AA07",
"-+	c #C9B014",
";+	c #C4BA47",
">+	c #708EE1",
",+	c #3D60FF",
"'+	c #2D64FF",
")+	c #B3AFC5",
"!+	c #C7E461",
"~+	c #E2FF46",
"{+	c #E1FF84",
"]+	c #A8B7DB",
"^+	c #2B61FF",
"/+	c #8E9CE6",
"(+	c #D8CBDF",
"_+	c #CDBBDF",
":+	c #5B71F8",
"<+	c #2C61E0",
"[+	c #758173",
"}+	c #D1BA28",
"|+	c #9B9207",
"1+	c #BDD060",
"2+	c #3BBDFF",
"3+	c #64CAFF",
"4+	c #ABD57D",
"5+	c #A59A11",
"6+	c #CCB436",
"7+	c #A2AA8E",
"8+	c #3D66E7",
"9+	c #6975FE",
"0+	c #AAA6FE",
"a+	c #DBF5A4",
"b+	c #E2FF40",
"c+	c #E2FF2B",
"d+	c #E0FF5F",
"e+	c #BFC4E0",
"f+	c #83B3FF",
"g+	c #AAC3CB",
"h+	c #DEFF94",
"i+	c #D8D3B1",
"j+	c #7A81F2",
"k+	c #2760F0",
"l+	c #7281AE",
"m+	c #C7B730",
"n+	c #AB9612",
"o+	c #958607",
"p+	c #ACB246",
"q+	c #9CE5FF",
"r+	c #56C5FF",
"s+	c #4FC3FF",
"t+	c #64CAE1",
"u+	c #B2B33F",
"v+	c #C4AC07",
"w+	c #CFB411",
"x+	c #AFA442",
"y+	c #6680CB",
"z+	c #4466FF",
"A+	c #B2A4FD",
"B+	c #DDC2FC",
"C+	c #E0FFBA",
"D+	c #DAFF5A",
"E+	c #DDFF4B",
"F+	c #E2FF6C",
"G+	c #D9F599",
"H+	c #D0F59D",
"I+	c #C9F583",
"J+	c #DEFF6A",
"K+	c #E1F59C",
"L+	c #A69DF2",
"M+	c #4A66FF",
"N+	c #7786BD",
"O+	c #B9B54C",
"P+	c #AE9A13",
"Q+	c #928210",
"R+	c #A7AA33",
"S+	c #C5ECBD",
"T+	c #97E3FF",
"U+	c #64CAC6",
"V+	c #AFA726",
"W+	c #D2B710",
"X+	c #D2B711",
"Y+	c #A0A964",
"Z+	c #3B6BD8",
"`+	c #BCAAFC",
" @	c #E2CBFC",
".@	c #DEF2DF",
"+@	c #D0E3C5",
"@@	c #D5E3BC",
"#@	c #DEF295",
"$@	c #DEFF68",
"%@	c #D1FF57",
"&@	c #DEFF73",
"*@	c #D3DAC4",
"=@	c #8A8DF8",
"-@	c #8C92E0",
";@	c #D6C360",
">@	c #C0A918",
",@	c #938412",
"'@	c #A09C16",
")@	c #C5DF7D",
"!@	c #97E2FF",
"~@	c #3CBEFF",
"{@	c #64CAAE",
"]@	c #B9A71C",
"^@	c #C9AF11",
"/@	c #CAB11C",
"(@	c #A3AD89",
"_@	c #2B63FF",
":@	c #5F70FF",
"<@	c #C1B0FC",
"[@	c #DDFFFC",
"}@	c #D2CBFD",
"|@	c #939CFF",
"1@	c #7F95F4",
"2@	c #D8CBBB",
"3@	c #E2FF8B",
"4@	c #E0FF57",
"5@	c #D6FF6E",
"6@	c #DAFFA0",
"7@	c #C1C4DF",
"8@	c #5F74FE",
"9@	c #1F5EC6",
"0@	c #A09D94",
"a@	c #DCD969",
"b@	c #D0B72F",
"c@	c #A19D12",
"d@	c #C5DE72",
"e@	c #64C4A6",
"f@	c #CBB418",
"g@	c #D9BC10",
"h@	c #D5BB1A",
"i@	c #8FA4A7",
"j@	c #1556FF",
"k@	c #2156FF",
"l@	c #5E78FF",
"m@	c #7796FF",
"n@	c #5F7CFF",
"o@	c #1857FF",
"p@	c #1D59FF",
"q@	c #D1BDF8",
"r@	c #E0FFA6",
"s@	c #E0FF65",
"t@	c #DCFF5C",
"u@	c #D7FFBD",
"v@	c #89A1FF",
"w@	c #3867FF",
"x@	c #4563A5",
"y@	c #AAAA5B",
"z@	c #E1E658",
"A@	c #D5BA33",
"B@	c #9E9818",
"C@	c #C5DF79",
"D@	c #64BF9F",
"E@	c #CBB316",
"F@	c #E1C311",
"G@	c #D8BE16",
"H@	c #92ABAE",
"I@	c #1C59FF",
"J@	c #235CFF",
"K@	c #1455FF",
"L@	c #0C53FF",
"M@	c #0D53FF",
"N@	c #C1B1DF",
"O@	c #E2FF87",
"P@	c #E2FF3A",
"Q@	c #C7D0C1",
"R@	c #7392FF",
"S@	c #6E9383",
"T@	c #D7E349",
"U@	c #D3B92E",
"V@	c #9E9815",
"W@	c #C5E499",
"X@	c #64BAA5",
"Y@	c #C2AD17",
"Z@	c #C9B011",
"`@	c #CEB81B",
" #	c #B4CB77",
".#	c #BDB4FE",
"+#	c #BEAEFE",
"@#	c #BCAEFE",
"##	c #8C91FE",
"$#	c #5F72FF",
"%#	c #0E53FF",
"&#	c #1054FF",
"*#	c #B5ABDF",
"=#	c #E1FF79",
"-#	c #E2FF67",
";#	c #D0C19D",
">#	c #8690DD",
",#	c #3C5FFF",
"'#	c #4978FF",
")#	c #8ABBB3",
"!#	c #D5FF4F",
"~#	c #D5E683",
"{#	c #C5AF34",
"]#	c #9E991B",
"^#	c #3EBEFF",
"/#	c #60BDC4",
"(#	c #C0AC20",
"_#	c #C0A811",
":#	c #D1B812",
"<#	c #DAFF4F",
"[#	c #E1FFC5",
"}#	c #E1F5AD",
"|#	c #E1EBC4",
"1#	c #DCE2CA",
"2#	c #C6B5E5",
"3#	c #225CFF",
"4#	c #245DFF",
"5#	c #A2AFE6",
"6#	c #CEBFCA",
"7#	c #C8B5CA",
"8#	c #B0A1E5",
"9#	c #1154FF",
"0#	c #4172FF",
"a#	c #80B0CB",
"b#	c #93B8BC",
"c#	c #A0BCA4",
"d#	c #9E9431",
"e#	c #938413",
"f#	c #9E9924",
"g#	c #55BFE9",
"h#	c #C5AF25",
"i#	c #E2C407",
"j#	c #D5BA12",
"k#	c #DFF63D",
"l#	c #E1FF4B",
"m#	c #E2FF74",
"n#	c #E2FF4B",
"o#	c #E2FF56",
"p#	c #D0BBA1",
"q#	c #4575FF",
"r#	c #79A8FF",
"s#	c #3165FF",
"t#	c #0B53FF",
"u#	c #1E5AFF",
"v#	c #4C7BD5",
"w#	c #90892A",
"x#	c #9E9A35",
"y#	c #52C3FF",
"z#	c #C9B437",
"A#	c #D6BA07",
"B#	c #DBBE17",
"C#	c #D6E82B",
"D#	c #DCFF4B",
"E#	c #E0FF59",
"F#	c #E2FF3D",
"G#	c #E2FF27",
"H#	c #D7C09D",
"I#	c #4F65FF",
"J#	c #7C9DFF",
"K#	c #96BCFF",
"L#	c #6C76FE",
"M#	c #5E6DFF",
"N#	c #6872FF",
"O#	c #4F66FF",
"P#	c #6B75FF",
"Q#	c #5A70FF",
"R#	c #5D76FF",
"S#	c #4C7B7E",
"T#	c #908919",
"U#	c #A6AA47",
"V#	c #44BFFF",
"W#	c #55C4FF",
"X#	c #ACAA63",
"Y#	c #CAB11D",
"Z#	c #CAC117",
"`#	c #D7FB1E",
" $	c #E0FF3C",
".$	c #E2FF45",
"+$	c #E2FF57",
"@$	c #DCC473",
"#$	c #CBC4A1",
"$$	c #C3C39B",
"%$	c #C8D0A1",
"&$	c #D4BEB2",
"*$	c #D3BCC4",
"=$	c #D2BBDF",
"-$	c #C7B8C4",
";$	c #CFBBDF",
">$	c #C7BBA7",
",$	c #C0BFB2",
"'$	c #889B75",
")$	c #928D33",
"!$	c #9D9616",
"~$	c #B3C57D",
"{$	c #63C9FF",
"]$	c #ADD1CE",
"^$	c #B0A442",
"/$	c #D6BC12",
"($	c #DAC516",
"_$	c #E1FF24",
":$	c #E1FF53",
"<$	c #E1FF67",
"[$	c #E1FF48",
"}$	c #E0FF37",
"|$	c #D9FF41",
"1$	c #DBFF29",
"2$	c #E0FF4F",
"3$	c #E2FF6D",
"4$	c #E1FF6C",
"5$	c #E0FF78",
"6$	c #DFFF49",
"7$	c #E1FF2F",
"8$	c #D9E81B",
"9$	c #A09518",
"0$	c #928110",
"a$	c #A7AA3D",
"b$	c #70CFFF",
"c$	c #B5EEF4",
"d$	c #A2AA73",
"e$	c #C0A815",
"f$	c #D4B807",
"g$	c #D4BB18",
"h$	c #D4CA26",
"i$	c #D8E14F",
"j$	c #D7E950",
"k$	c #DEE92C",
"l$	c #DDE91D",
"m$	c #D8E916",
"n$	c #D3E930",
"o$	c #DEE932",
"p$	c #E0E922",
"q$	c #E0DD39",
"r$	c #D6CB3D",
"s$	c #D8C219",
"t$	c #DDC211",
"u$	c #D5BD11",
"v$	c #9D8C12",
"w$	c #978C1A",
"x$	c #BAD69D",
"y$	c #73D0FF",
"z$	c #ACD0C6",
"A$	c #AFA149",
"B$	c #AB9610",
"C$	c #B19D07",
"D$	c #A09419",
"E$	c #A1951B",
"F$	c #9E9317",
"G$	c #AF9F13",
"H$	c #AB9C13",
"I$	c #9E9315",
"J$	c #AF9F16",
"K$	c #BEAA15",
"L$	c #BBA714",
"M$	c #AF9D13",
"N$	c #B29E12",
"O$	c #B9A412",
"P$	c #B8A010",
"Q$	c #A29607",
"R$	c #A2A12F",
"S$	c #AAB25D",
"T$	c #6FCEFF",
"U$	c #7BD4FF",
"V$	c #7EB1BC",
"W$	c #829C65",
"X$	c #8E8827",
"Y$	c #928313",
"Z$	c #958814",
"`$	c #95881B",
" %	c #9E9D27",
".%	c #AAB860",
"+%	c #BFE8B3",
"@%	c #BFF8F4",
"#%	c #BFFBFF",
"$%	c #C0FBFF",
"%%	c #BDFAFF",
"&%	c #52C4FF",
"*%	c #3CB0E1",
"=%	c #41A09E",
"-%	c #449265",
";%	c #4C8D49",
">%	c #528B44",
",%	c #568B44",
"'%	c #5D8C44",
")%	c #688D44",
"!%	c #738E44",
"~%	c #768E44",
"{%	c #798E44",
"]%	c #7D9140",
"^%	c #7F994E",
"/%	c #80A466",
"(%	c #80B792",
"_%	c #80C5BD",
":%	c #80D6E1",
"<%	c #80D6FF",
"[%	c #88DAFF",
"}%	c #8FDEFF",
"|%	c #90DEFF",
"1%	c #77D2FF",
"2%	c #66CAFF",
"3%	c #65CAFF",
"4%	c #63CAFF",
"5%	c #60C9FF",
"6%	c #5BC7FF",
"7%	c #48C0FF",
"8%	c #47C0FF",
"  . + . . . . + + + @ @ @ + + + . . + + + + + + + @ #   # $ $ + ",
"+ . . . . . . . . . . . . . . . . . . . . . . . . . . . . . . + ",
"+ + % & * = - ; > , ' % ' ) ! ~ { ; ] ] ] ^ / ( { _ : ) < [ } | ",
"+ + 1 2 3 4 5 3 6 7 8 9 8 0 a 6 b c d d d c 3 e e f 6 6 g h * [ ",
"+ + [ 9 i j j j j k l i l m n j j j j j j j j j j j j j k g o < ",
"+ + ; p m j j j j q r s t u v w x y z A B C j j j j j j k g o < ",
"+ + D E k j j C F G H I J K L M N O P Q R S T j j j j j k g o < ",
". @ U g k j j V W X Y Z `  ...+.@.#.P P $.%.&.*.=.j j j k g o < ",
".   -.g k C ;.>.,.'.).!.~.{.].^./.(._.:.<.[.}.|.1.2.j j k g o < ",
"+ # 3.g k 4.5.6.7.8.9.0.a.b.c.d.e.f.g.h.i.j.k.l.m.n.o.j k g o < ",
"+ # 3.g p.q.r.s.t.u.v.w.x.y.z.A.B.C.D.E.F.G.H.I.l.J.K.j k g o < ",
". # -.g L.M.N.O.P.Q.R.S.T.U.V.W.X.Y.Z.`. +.+++@+#+$+%+j k g o < ",
"+ $ 3.&+*+=+-+;+>+,+'+)+!+~+{+]+^+/+(+_+:+<+[+}+J |+1+j m a 3.) ",
"  2+3+4+5+,.6+7+8+9+0+a+b+c+d+e+f+g+h+i+j+k+l+m+n+o+p+C l q+r+s+",
"# | t+u+v+w+x+y+z+A+B+C+D+E+F+G+H+I+J+K+L+M+N+O+P+Q+R+S+i T+] ] ",
"$ | U+V+W+X+Y+Z+z+`+ @.@+@@@#@~+$@%@&@*@=@D.-@;@>@,@'@)@i !@] ] ",
"2+~@{@]@^@/@(@_@:@<@[@}@|@1@2@3@4@5@6@7@8@9@0@a@b@,@c@d@i !@] ] ",
"| 1 e@f@g@h@i@j@k@l@m@n@o@p@q@r@s@t@u@v@w@x@y@z@A@O B@C@i !@] ] ",
"1 1 D@E@F@G@H@p@j@I@J@K@L@M@N@O@P@4@Q@R@D.S@T@z@U@l.V@W@i !@] ] ",
"1 1 X@Y@Z@`@ #.#+#@###$#%#&#*#=#-#;#>#,#'#)#!#~#{#O ]#W@i !@] ] ",
"} ^#/#(#_#:#<#[#}#|#1#2#3#4#5#6#7#8#M@9#0#a#b#c#d#e#f#q i !@] ] ",
"< : g#h#i#j#k#l#m#n#o#p#J@q#r#s#%#D.t#M@u#C.C.v#w#}.x#o.i !@] ] ",
") , y#z#A#B#C#D#E#F#G#H#I#J#K#L#M#N#O#P#Q#R#C.S#T#l.U#j i !@] ] ",
"V#: W#X#Y#:#Z#`# $.$+$@$#$$$%$&$*$=$-$;$>$,$'$)$$.!$~$j i !@] ] ",
"' 1 {$]$^$Z@/$($_$:$<$[$}$|$1$2$3$4$5$6$7$8$9$0$l.a$q j i !@] ] ",
"1 # b$c$d$e$f$g$h$i$j$k$l$m$n$o$p$q$r$s$t$u$v$0$w$x$j j i !@] ] ",
"  $ y$c z$A$B$C$D$E$F$G$G$H$I$J$K$L$M$N$O$P$Q$R$S$o.j j i !@] ] ",
". + / T$U$V$W$X$Y$$.$.$.$.$.$.$.$.$.l.Z$`$ %.%+%@%#%$%l %%8 &%] ",
". . + @ 2+2+*%=%-%;%>%,%'%)%!%~%{%]%^%/%(%_%:%<%<%2 [%}%|%1%( ^ ",
". . + @ + + + + + . . . . + + + + @ @               # $ 2+2+$ ! ",
". . + + + + + + + + . . . . . . . . . . . . . . . . . . . . . % ",
"= , & 3+2%3%3%3+3+4%3.5%6%] / { ~ 7%8%8%8%8%8%8%8%, ) [ ^#$ $ / "};
