/* XPM */
static char * exit_xpm[] = {
"32 32 335 2",
"  	c #FFB1B6",
". 	c #FF828C",
"+ 	c #FF8791",
"@ 	c #FF6171",
"# 	c #FF596B",
"$ 	c #FF7480",
"% 	c #FF7D88",
"& 	c #FFA9AF",
"* 	c #FF8E97",
"= 	c #FF6A78",
"- 	c #FFACB1",
"; 	c #FFEEEF",
"> 	c #FFFEFE",
", 	c #FFFFFF",
"' 	c #FFFDFD",
") 	c #FFE7E8",
"! 	c #FFB3B8",
"~ 	c #FF959D",
"{ 	c #FF99A0",
"] 	c #FFA3AA",
"^ 	c #FF7E89",
"/ 	c #FF6675",
"( 	c #FF6574",
"_ 	c #FF6474",
": 	c #FF7682",
"< 	c #FFCACD",
"[ 	c #FF5F70",
"} 	c #FF3F59",
"| 	c #FF3E58",
"1 	c #FF3A56",
"2 	c #FF3B57",
"3 	c #FF5568",
"4 	c #FF4B61",
"5 	c #FF8F98",
"6 	c #FFD7D9",
"7 	c #FFF8F8",
"8 	c #FFFEFF",
"9 	c #FFF7F8",
"0 	c #FFE2E4",
"a 	c #FFB9BD",
"b 	c #FF717E",
"c 	c #FF5669",
"d 	c #FF6373",
"e 	c #FF6473",
"f 	c #FF5E6F",
"g 	c #FF5064",
"h 	c #FFA6AC",
"i 	c #FF5467",
"j 	c #FF3C57",
"k 	c #FF3955",
"l 	c #FF4C62",
"m 	c #FF576A",
"n 	c #FF4F64",
"o 	c #FF5367",
"p 	c #FF8C95",
"q 	c #FFD9DB",
"r 	c #FFF9F9",
"s 	c #FFFBFB",
"t 	c #FFEBEC",
"u 	c #FFBABF",
"v 	c #FF7C88",
"w 	c #FF5D6E",
"x 	c #FF7C87",
"y 	c #FF9FA6",
"z 	c #FF8D96",
"A 	c #FF485F",
"B 	c #FF4A60",
"C 	c #FF6776",
"D 	c #FF4960",
"E 	c #FF4C61",
"F 	c #FF8B94",
"G 	c #FFDBDD",
"H 	c #FFFAFA",
"I 	c #FFF2F3",
"J 	c #FFD4D7",
"K 	c #FF9CA3",
"L 	c #FF5769",
"M 	c #FF7986",
"N 	c #FF99A1",
"O 	c #FF6071",
"P 	c #FF5165",
"Q 	c #FF415A",
"R 	c #FFDADC",
"S 	c #FFE8E9",
"T 	c #FFB9BE",
"U 	c #FF7D89",
"V 	c #FF586A",
"W 	c #FF8892",
"X 	c #FF6B79",
"Y 	c #FF465D",
"Z 	c #FF475E",
"` 	c #FF5065",
" .	c #FF9099",
"..	c #FFE0E2",
"+.	c #FBF8F7",
"@.	c #EFF2EE",
"#.	c #E9EEE8",
"$.	c #EAEEE9",
"%.	c #ECF0EB",
"&.	c #EEF1ED",
"*.	c #EEF2ED",
"=.	c #F0F3EF",
"-.	c #F1F4F0",
";.	c #F3F6F2",
">.	c #F9FAF9",
",.	c #FEFEFE",
"'.	c #FFD1D4",
").	c #FF8992",
"!.	c #FF4D62",
"~.	c #FF838C",
"{.	c #FF6D7A",
"].	c #FF989F",
"^.	c #FFB0B5",
"/.	c #FFDFE1",
"(.	c #FAF7F5",
"_.	c #CEDACB",
":.	c #81A674",
"<.	c #6B9A56",
"[.	c #6C9B59",
"}.	c #76A065",
"|.	c #7BA36C",
"1.	c #76A066",
"2.	c #7FA571",
"3.	c #85A878",
"4.	c #88AA7C",
"5.	c #8DAD81",
"6.	c #87A97B",
"7.	c #9AB591",
"8.	c #C3D1BE",
"9.	c #FF9BA2",
"0.	c #FF4A61",
"a.	c #FF6A79",
"b.	c #FFB5BA",
"c.	c #FFE6E8",
"d.	c #FFF5F6",
"e.	c #FEFBFB",
"f.	c #E5EBE3",
"g.	c #7DA46F",
"h.	c #478B12",
"i.	c #468A0D",
"j.	c #478A0F",
"k.	c #478B11",
"l.	c #468A0E",
"m.	c #488B14",
"n.	c #488B15",
"o.	c #488B17",
"p.	c #4B8C1F",
"q.	c #6A9A56",
"r.	c #CAD7C7",
"s.	c #FAFBFA",
"t.	c #FFFCFC",
"u.	c #FFF1F2",
"v.	c #FFA7AD",
"w.	c #FFD0D3",
"x.	c #FF9BA3",
"y.	c #CAD6C6",
"z.	c #63964B",
"A.	c #4A8C1D",
"B.	c #508E2B",
"C.	c #58913A",
"D.	c #559034",
"E.	c #4C8D22",
"F.	c #4B8C20",
"G.	c #4E8D27",
"H.	c #4D8D25",
"I.	c #498B1A",
"J.	c #FFC4C8",
"K.	c #FFE5E6",
"L.	c #BFCEBA",
"M.	c #58913B",
"N.	c #498B17",
"O.	c #6B9A57",
"P.	c #BACAB5",
"Q.	c #C1D0BC",
"R.	c #AAC0A2",
"S.	c #98B48F",
"T.	c #A4BC9D",
"U.	c #ACC1A5",
"V.	c #A7BEA0",
"W.	c #95B28B",
"X.	c #88AA7B",
"Y.	c #BCCDB8",
"Z.	c #569036",
"`.	c #6D9B5A",
" +	c #D9E1D7",
".+	c #F8F9F8",
"++	c #F6F8F6",
"@+	c #F3F6F3",
"#+	c #F5F7F5",
"$+	c #F7F8F6",
"%+	c #F6F8F5",
"&+	c #F3F5F2",
"*+	c #6D9B59",
"=+	c #DBE3D8",
"-+	c #FDFDFD",
";+	c #BDCDB9",
">+	c #679852",
",+	c #C7D4C3",
"'+	c #E6EAE4",
")+	c #E7ECE5",
"!+	c #E8EDE6",
"~+	c #F0F4F0",
"{+	c #C5D2C1",
"]+	c #579138",
"^+	c #4C8C20",
"/+	c #5B923E",
"(+	c #62964B",
"_+	c #62964A",
":+	c #64964C",
"<+	c #8BAC7F",
"[+	c #FCFDFC",
"}+	c #CED9CB",
"|+	c #538F32",
"1+	c #468A0C",
"2+	c #488B16",
"3+	c #699954",
"4+	c #BBCBB6",
"5+	c #4B8C1E",
"6+	c #478A10",
"7+	c #4A8C1B",
"8+	c #6A9955",
"9+	c #F8F9F7",
"0+	c #B0C4AB",
"a+	c #4E8D26",
"b+	c #86A979",
"c+	c #8AAC7E",
"d+	c #83A776",
"e+	c #F5F7F4",
"f+	c #9DB794",
"g+	c #498B19",
"h+	c #739E61",
"i+	c #CFDACC",
"j+	c #F2F5F1",
"k+	c #F4F7F4",
"l+	c #9CB794",
"m+	c #4A8C1C",
"n+	c #7BA26C",
"o+	c #DFE6DD",
"p+	c #F4F6F3",
"q+	c #7AA26B",
"r+	c #D6DFD3",
"s+	c #F3F6F1",
"t+	c #F2F6F1",
"u+	c #96B28C",
"v+	c #5D9343",
"w+	c #84A778",
"x+	c #91B086",
"y+	c #92B088",
"z+	c #91B088",
"A+	c #90AE83",
"B+	c #97B38D",
"C+	c #AAC0A3",
"D+	c #E1E8DF",
"E+	c #FFF6F6",
"F+	c #A5BC9D",
"G+	c #4C8D23",
"H+	c #488B13",
"I+	c #478B13",
"J+	c #528F2F",
"K+	c #A8BEA1",
"L+	c #FFA8AE",
"M+	c #FFD4D6",
"N+	c #FFF1F1",
"O+	c #F9FBF9",
"P+	c #528F30",
"Q+	c #FFD5D8",
"R+	c #FF7984",
"S+	c #ECF0EA",
"T+	c #B0C3A9",
"U+	c #7CA36D",
"V+	c #80A571",
"W+	c #80A672",
"X+	c #84A877",
"Y+	c #90AE84",
"Z+	c #9BB692",
"`+	c #9CB793",
" @	c #ABC0A4",
".@	c #FF858E",
"+@	c #FF465E",
"@@	c #FDFEFD",
"#@	c #E3E9E1",
"$@	c #E0E7DE",
"%@	c #E1E7DF",
"&@	c #E5EAE3",
"*@	c #FF838D",
"=@	c #FF4F63",
"-@	c #FF8D95",
";@	c #FF495F",
">@	c #FF8A93",
",@	c #FFE2E3",
"'@	c #FEFFFE",
")@	c #FFF3F4",
"!@	c #FFD7DA",
"~@	c #FFAFB4",
"{@	c #FF435B",
"]@	c #FFAAAF",
"^@	c #FFEDEE",
"/@	c #FFA5AC",
"(@	c #FF848E",
"_@	c #FF445C",
":@	c #FF9AA2",
"<@	c #FF455D",
"[@	c #FF4059",
"}@	c #FF6C7A",
"|@	c #FFCDD1",
"1@	c #FFD2D5",
"2@	c #FF929B",
"3@	c #FF707D",
"4@	c #FF4E63",
"5@	c #FF425B",
"6@	c #FF818C",
"7@	c #FFB4B9",
"8@	c #FFCED1",
"9@	c #FFEFF0",
"0@	c #FF979E",
"a@	c #FF6876",
"b@	c #FF9DA4",
"c@	c #FF435C",
"d@	c #FF3B56",
"e@	c #FF5266",
"f@	c #FF7783",
"g@	c #FFCDD0",
"h@	c #FFB0B6",
"i@	c #FF5A6B",
"j@	c #FF7884",
"k@	c #FF405A",
"l@	c #FF949C",
"m@	c #FF7985",
"n@	c #FF6372",
"o@	c #FFE9EA",
"p@	c #FF707E",
"q@	c #FF7F8B",
"r@	c #FF425A",
"s@	c #FF5B6D",
"t@	c #FFBABE",
"  . + @ # $ % & * = - ; > , , , , , ' ) ! ~ % { ] ^ = / ( _ : < ",
"[ } | 1 2 | 3 ( 4 5 6 7 8 , , , , , > 9 0 a b c ( ( d e f g 3 h ",
"i j k 1 l m n o p q r > , , , , , , , > s t u v i w x y z A | e ",
"B 1 1 g C D E F G H , , , , , , , , , , , ' I J K = L M N O 2 A ",
"P k Q ( 4 c 5 R H , , , , , , , , , , , , , > H S T U 3 V f V W ",
"X Y Z m `  ...+.@.#.$.%.&.%.*.=.=.-.=.;.>.,., , ' I '.).A j !.] ",
"~.: {.].^./.(._.:.<.[.}.|.1.2.3.4.5.6.7.8.*.,., , > r G 9._ A z ",
"0.a.b.c.d.e.f.g.h.i.i.j.k.l.k.m.n.o.h.p.q.r.s., , , , t.u.'.v.w.",
"f x.) t., s.y.z.A.B.C.D.E.o.F.G.H.I.h.p.q.r.s., , , , , , t.d.H ",
"J.K.t., , >.L.M.N.O.P.Q.R.S.T.U.V.W.X.7.8.*.,., , , , , , , , , ",
"r ' , , , >.Y.Z.m.`. +.+++@+#+$+%+&+=.;.>.,., , , , , , , , , , ",
", , , , , >.Y.Z.m.*+=+-+, , , , , , , , , , , , , , , , , , , , ",
", , , , , >.Y.Z.m.*+=+-+, , , , , , , , , , , , , , , , , , , , ",
", , , , , >.;+Z.m.>+,+'+)+!+~+>.,., , , , , , , , , , , , , , , ",
", , , , , s.{+]+j.^+/+(+_+:+<+Q.*.,., , , , , , , , , , , , , , ",
", , , , , [+}+|+1+1+1+1+1+1+2+3+r.s., , , , , , , , , , , , , , ",
", , , , , s.4+5+1+1+i.j.6+l.7+8+r.s., , , , , , , , , , , , , , ",
", , , , , 9+0+a+l.a+8+b+c+d+S.8.*.,., , , , , , , , , , , , , , ",
", , , , , e+f+g+g+h+i+@.j+=.;.>.,., , , , , , , , , , , , , , , ",
", , , , , k+l+p.m+n+o+-+, , , , , , , , , , , , , , , , , , , , ",
", , , , , p+W.o.A.q+r+-.;.;.;.;.;.;.s+j+t+%+[+, , , , , , , , , ",
", , , , , p+u+o.g+v+w+x+y+y+y+y+y+z+A+5.B+C+D+[+, , , , , , t.E+",
"s > , , , %+F+G+h.k.m.2+2+2+2+2+n.n.H+I+A.J+K+%+, , , , , r 6 L+",
"M+N+> , , O+8.v+o.g+A.5+5+5+5+5+5+A.n.m+p.P+K+%+, , , , H Q+v A ",
"R+J.9 , , ,.S+T+U+|.V+W+W+W+W+W+W+X+Y+Z+`+ @D+[+, , , H 6 .@E !.",
"+@. R s , , @@&+#@$@$@$@$@$@$@$@%@&@@.@+p+%+[+, , , H R *@A =@-@",
"m ;@>@,@' , , '@@@-+-+-+-+-+-+-+-+@@'@, , , , > s )@!@>@!.Q ` ~@",
"{@j 4 ]@t t., , , , , , , , , , , , , , , , s ^@w./@(@E C i _@:@",
"<@j [@}@9.|@; 7 H > , , , , , , , , , , > d.1@2@3@4@c p ^.b ;@y ",
"l j | 5@} !.6@7@8@9@> , , , , , , , , ' t a 3@5@B {.0@J.^.a@Z b@",
"Z c@| d@k k d@e@f@g@H , , , , , , , 8 )@h@i@Q B [ j@6@6@( D k@l@",
"m@n@V P | 1 d@n : g@H , , , , , , , > o@* B p@q@<@r@B _@s@s@O t@"};
