/* XPM */
static char * exit2_xpm[] = {
"32 32 746 2",
"  	c #31042B",
". 	c #250221",
"+ 	c #270222",
"@ 	c #280223",
"# 	c #23021E",
"$ 	c #23031F",
"% 	c #2B0326",
"& 	c #2D0327",
"* 	c #2D0227",
"= 	c #2C0227",
"- 	c #2F0229",
"; 	c #3A0232",
"> 	c #3E0235",
", 	c #3E0236",
"' 	c #3D0235",
") 	c #34022D",
"! 	c #290324",
"~ 	c #35032E",
"{ 	c #3E0335",
"] 	c #3F0337",
"^ 	c #420339",
"/ 	c #48023E",
"( 	c #380437",
"_ 	c #40023A",
": 	c #48023F",
"< 	c #4F0245",
"[ 	c #5B034E",
"} 	c #600353",
"| 	c #610354",
"1 	c #660458",
"2 	c #670559",
"3 	c #650457",
"4 	c #620455",
"5 	c #5A044E",
"6 	c #57044C",
"7 	c #55044A",
"8 	c #530348",
"9 	c #520247",
"0 	c #4D0243",
"a 	c #420239",
"b 	c #3F0236",
"c 	c #36042F",
"d 	c #2A0425",
"e 	c #370430",
"f 	c #410438",
"g 	c #410439",
"h 	c #3D0434",
"i 	c #31032A",
"j 	c #32022B",
"k 	c #3C0441",
"l 	c #740268",
"m 	c #90037D",
"n 	c #A4068F",
"o 	c #BB08A3",
"p 	c #C108A9",
"q 	c #C609AC",
"r 	c #CB0AB2",
"s 	c #CC0AB3",
"t 	c #C90AAF",
"u 	c #C809AE",
"v 	c #C709AD",
"w 	c #C309AA",
"x 	c #BB09A3",
"y 	c #B709A0",
"z 	c #B5099E",
"A 	c #AE0798",
"B 	c #A90693",
"C 	c #A2068D",
"D 	c #960683",
"E 	c #91067F",
"F 	c #92067F",
"G 	c #960682",
"H 	c #930780",
"I 	c #870776",
"J 	c #950781",
"K 	c #9D0789",
"L 	c #740465",
"M 	c #410444",
"N 	c #880278",
"O 	c #AD0497",
"P 	c #CF0AB5",
"Q 	c #DC0DC0",
"R 	c #DD0DC1",
"S 	c #DE0DC2",
"T 	c #DB0DC0",
"U 	c #DB0DBF",
"V 	c #DA0DBE",
"W 	c #D90CBE",
"X 	c #D80CBC",
"Y 	c #D60CBB",
"Z 	c #D60CBA",
"` 	c #D70DBB",
" .	c #D40CBA",
"..	c #D60EBC",
"+.	c #D80FBD",
"@.	c #D10DB7",
"#.	c #A50490",
"$.	c #5D0251",
"%.	c #54054F",
"&.	c #950283",
"*.	c #B808A2",
"=.	c #DD17C3",
"-.	c #E118C8",
";.	c #DE19C7",
">.	c #DC1CC6",
",.	c #D81BC5",
"'.	c #D613C2",
").	c #D60FC1",
"!.	c #D50FC1",
"~.	c #D80FC2",
"{.	c #D90FC2",
"].	c #DB0FC3",
"^.	c #DB10C3",
"/.	c #DA11C4",
"(.	c #DA12C5",
"_.	c #D813C4",
":.	c #D914C4",
"<.	c #DF14C6",
"[.	c #E217C7",
"}.	c #E51ECB",
"|.	c #EA26D0",
"1.	c #E51FCB",
"2.	c #DF11C4",
"3.	c #D80DBC",
"4.	c #AB0495",
"5.	c #610254",
"6.	c #480448",
"7.	c #910381",
"8.	c #C011A8",
"9.	c #F131DA",
"0.	c #F034DE",
"a.	c #CF2ED0",
"b.	c #A429C5",
"c.	c #9226BF",
"d.	c #9725C1",
"e.	c #9B25C2",
"f.	c #9925C1",
"g.	c #9423BF",
"h.	c #9523BE",
"i.	c #9423BE",
"j.	c #9D25C2",
"k.	c #AD29CA",
"l.	c #B72BCF",
"m.	c #BE2DD3",
"n.	c #B92DD2",
"o.	c #B42DD4",
"p.	c #AE2DD2",
"q.	c #AD2CD1",
"r.	c #B22DD0",
"s.	c #DF32DB",
"t.	c #F834E0",
"u.	c #FA35E2",
"v.	c #EF2AD6",
"w.	c #D80CBD",
"x.	c #AD0496",
"y.	c #660259",
"z.	c #420445",
"A.	c #8E037E",
"B.	c #C215AC",
"C.	c #F333DD",
"D.	c #D82FD5",
"E.	c #721EB3",
"F.	c #3516A5",
"G.	c #2A15A2",
"H.	c #2E15A4",
"I.	c #3316A5",
"J.	c #2E15A3",
"K.	c #3015A4",
"L.	c #2D15A3",
"M.	c #3517A5",
"N.	c #3E18A8",
"O.	c #451AAB",
"P.	c #4F1DAF",
"Q.	c #491BAC",
"R.	c #4D1DAF",
"S.	c #471CAD",
"T.	c #511EB1",
"U.	c #5D21B6",
"V.	c #B530D3",
"W.	c #F738E5",
"X.	c #FD37E5",
"Y.	c #ED27D3",
"Z.	c #DE0EC3",
"`.	c #D90CBD",
" +	c #AD0596",
".+	c #670259",
"++	c #400444",
"@+	c #8D037D",
"#+	c #C112AA",
"$+	c #EC2FD6",
"%+	c #B929C7",
"&+	c #4016A5",
"*+	c #2013A1",
"=+	c #2213A3",
"-+	c #2714A5",
";+	c #2E15A5",
">+	c #2514A3",
",+	c #2814A3",
"'+	c #2413A1",
")+	c #2814A2",
"!+	c #1F13A0",
"~+	c #2113A1",
"{+	c #2013A0",
"]+	c #571CAE",
"^+	c #BF2FD1",
"/+	c #F938E5",
"(+	c #FE38E5",
"_+	c #EE28D4",
":+	c #D70CBC",
"<+	c #A0058E",
"[+	c #5A0255",
"}+	c #3A0341",
"|+	c #8A037B",
"1+	c #BF08A7",
"2+	c #DF20C9",
"3+	c #AB26C1",
"4+	c #3415A3",
"5+	c #2213A1",
"6+	c #3F18AB",
"7+	c #6E21C0",
"8+	c #8225CD",
"9+	c #8E28CF",
"0+	c #8226D0",
"a+	c #8526CB",
"b+	c #7F24C3",
"c+	c #8225C1",
"d+	c #7020B8",
"e+	c #6C1FB7",
"f+	c #681EB8",
"g+	c #581AB3",
"h+	c #5A1AAF",
"i+	c #5318A9",
"j+	c #5C1AAA",
"k+	c #A328C1",
"l+	c #E935DF",
"m+	c #FE39E6",
"n+	c #FE38E6",
"o+	c #F22DD9",
"p+	c #DE0FC3",
"q+	c #D30BB9",
"r+	c #840478",
"s+	c #2D023D",
"t+	c #33033D",
"u+	c #860378",
"v+	c #BB07A5",
"w+	c #D816C1",
"x+	c #B024C1",
"y+	c #3816A5",
"z+	c #2113A2",
"A+	c #621FBB",
"B+	c #CB34E6",
"C+	c #CB38EE",
"D+	c #C838F0",
"E+	c #BF37F2",
"F+	c #C137F1",
"G+	c #C838EF",
"H+	c #CB37EE",
"I+	c #D237EB",
"J+	c #D136EB",
"K+	c #CB36EC",
"L+	c #C634EB",
"M+	c #CB33E3",
"N+	c #D030D7",
"O+	c #CE2FD0",
"P+	c #EC36DD",
"Q+	c #FD3BE5",
"R+	c #FF3BE7",
"S+	c #F632DD",
"T+	c #D00BB6",
"U+	c #940483",
"V+	c #530253",
"W+	c #410344",
"X+	c #950383",
"Y+	c #C307AA",
"Z+	c #D810BF",
"`+	c #B823C2",
" @	c #3D17A6",
".@	c #1F13A1",
"+@	c #5B1EB9",
"@@	c #D133E7",
"#@	c #CD39F0",
"$@	c #C039F3",
"%@	c #BB39F3",
"&@	c #BC39F3",
"*@	c #C339F2",
"=@	c #BF39F2",
"-@	c #BD39F3",
";@	c #C938F1",
">@	c #EB38EA",
",@	c #FF39E7",
"'@	c #F933E0",
")@	c #E014C5",
"!@	c #DB0CC0",
"~@	c #C308AA",
"{@	c #920382",
"]@	c #590257",
"^@	c #3F0343",
"/@	c #990386",
"(@	c #C608AC",
"_@	c #DA0EC1",
":@	c #CB24C8",
"<@	c #4A1AAA",
"[@	c #1C12A0",
"}@	c #3E17AA",
"|@	c #CA30D8",
"1@	c #E739EA",
"2@	c #D639EF",
"3@	c #C439F1",
"4@	c #C539F1",
"5@	c #CC39F1",
"6@	c #D039F0",
"7@	c #DB39EE",
"8@	c #D139F0",
"9@	c #C939F1",
"0@	c #D939EF",
"a@	c #F439E9",
"b@	c #FE39E7",
"c@	c #FB35E2",
"d@	c #E41AC9",
"e@	c #BE06A6",
"f@	c #A0028D",
"g@	c #7C026F",
"h@	c #9D038A",
"i@	c #C708AE",
"j@	c #DA0DC1",
"k@	c #D225CB",
"l@	c #5C1DB0",
"m@	c #3115A3",
"n@	c #B129C7",
"o@	c #F638E4",
"p@	c #FA39E8",
"q@	c #F839E8",
"r@	c #F939E8",
"s@	c #FB39E8",
"t@	c #F539E8",
"u@	c #F039EA",
"v@	c #F539E9",
"w@	c #FD39E7",
"x@	c #FC36E4",
"y@	c #EA23D0",
"z@	c #DD10C2",
"A@	c #CA09B0",
"B@	c #A2038E",
"C@	c #880277",
"D@	c #57054E",
"E@	c #A40390",
"F@	c #D90DC1",
"G@	c #C923C7",
"H@	c #4A19AA",
"I@	c #9C25BD",
"J@	c #F437E2",
"K@	c #FF3AE7",
"L@	c #FF3CE7",
"M@	c #FF3FE7",
"N@	c #FF40E7",
"O@	c #FE3FE6",
"P@	c #F639DE",
"Q@	c #E929D0",
"R@	c #E423CB",
"S@	c #CE0CB6",
"T@	c #920481",
"U@	c #680261",
"V@	c #55054F",
"W@	c #A1048D",
"X@	c #D90DC0",
"Y@	c #C421C5",
"Z@	c #4819A9",
"`@	c #1D13A0",
" #	c #2F15A3",
".#	c #AB28C3",
"+#	c #E734DB",
"@#	c #E634DB",
"##	c #EC35DE",
"$#	c #F036E0",
"%#	c #F036E1",
"&#	c #E834DD",
"*#	c #DA31D4",
"=#	c #D72FD3",
"-#	c #E032DA",
";#	c #ED35DE",
">#	c #F638E2",
",#	c #FD3CE5",
"'#	c #FC37E4",
")#	c #E822CE",
"!#	c #E119C6",
"~#	c #CD0EB4",
"{#	c #88057B",
"]#	c #4E0350",
"^#	c #430446",
"/#	c #9B0489",
"(#	c #C809AF",
"_#	c #DA0EC0",
":#	c #C621C5",
"<#	c #4E1AAA",
"[#	c #3A17A6",
"}#	c #771EB2",
"|#	c #7F20B5",
"1#	c #791FB3",
"2#	c #8221B6",
"3#	c #8121B6",
"4#	c #701EB0",
"5#	c #4C17A7",
"6#	c #4416A4",
"7#	c #5117A5",
"8#	c #781EAF",
"9#	c #A927C0",
"0#	c #E633DA",
"a#	c #FD39E5",
"b#	c #E41BCA",
"c#	c #D70DBC",
"d#	c #B608A1",
"e#	c #7E0471",
"f#	c #52044C",
"g#	c #A60691",
"h#	c #D00BB7",
"i#	c #DC11C2",
"j#	c #C625C7",
"k#	c #2313A1",
"l#	c #2A14A2",
"m#	c #2513A0",
"n#	c #5117A6",
"o#	c #C12BCB",
"p#	c #F937E3",
"q#	c #FC36E3",
"r#	c #E720CD",
"s#	c #DE0EC2",
"t#	c #D10CB7",
"u#	c #950582",
"v#	c #4E0449",
"w#	c #A70993",
"x#	c #E31FCA",
"y#	c #4C1CAC",
"z#	c #3317A7",
"A#	c #521FB5",
"B#	c #5D22BA",
"C#	c #6323BB",
"D#	c #5E22B9",
"E#	c #5C21BD",
"F#	c #5C21BF",
"G#	c #5420B8",
"H#	c #4219AE",
"I#	c #4617AD",
"J#	c #4F17AC",
"K#	c #631AAE",
"L#	c #8B21BC",
"M#	c #D631DA",
"N#	c #F739E6",
"O#	c #FD38E5",
"P#	c #EE28D5",
"Q#	c #DF10C3",
"R#	c #D20BB7",
"S#	c #810570",
"T#	c #390340",
"U#	c #9B078A",
"V#	c #D70FBD",
"W#	c #E823CF",
"X#	c #D42FD4",
"Y#	c #571CAF",
"Z#	c #2714A3",
"`#	c #5D21BF",
" $	c #A633E2",
".$	c #BC36E7",
"+$	c #BF36E3",
"@$	c #BE36E6",
"#$	c #BC36ED",
"$$	c #BC36EF",
"%$	c #BC36EB",
"&$	c #BE35E7",
"*$	c #C833E9",
"=$	c #D132E4",
"-$	c #CF31E3",
";$	c #D533E4",
">$	c #D537ED",
",$	c #EE39EB",
"'$	c #F42FDB",
")$	c #DF12C4",
"!$	c #CD0BB2",
"~$	c #720563",
"{$	c #4D0349",
"]$	c #A90695",
"^$	c #D90EBE",
"/$	c #D530D5",
"($	c #5B1EB0",
"_$	c #2A15A6",
":$	c #7425CD",
"<$	c #C937EE",
"[$	c #D239EF",
"}$	c #D839EE",
"|$	c #BE39F3",
"1$	c #C139F2",
"2$	c #CA39F1",
"3$	c #CC39F0",
"4$	c #D439EF",
"5$	c #C639F2",
"6$	c #E339ED",
"7$	c #FC39E8",
"8$	c #E116C7",
"9$	c #DC0DC1",
"0$	c #C20AA9",
"a$	c #600553",
"b$	c #A60692",
"c$	c #D90DBE",
"d$	c #E824D0",
"e$	c #DB31D7",
"f$	c #611EB1",
"g$	c #2915A5",
"h$	c #7224C5",
"i$	c #D336E9",
"j$	c #E739EC",
"k$	c #C439F2",
"l$	c #CF39F0",
"m$	c #DF39EE",
"n$	c #DA39EE",
"o$	c #E039ED",
"p$	c #DC39EE",
"q$	c #E839EC",
"r$	c #E439EC",
"s$	c #E319C9",
"t$	c #BF0AA6",
"u$	c #5B054F",
"v$	c #34033D",
"w$	c #8F057F",
"x$	c #D60DBB",
"y$	c #E820CD",
"z$	c #E632DC",
"A$	c #7221B6",
"B$	c #6121B9",
"C$	c #D135E0",
"D$	c #EB39EB",
"E$	c #F139EA",
"F$	c #F739E9",
"G$	c #FB35E3",
"H$	c #BE0AA6",
"I$	c #3D0340",
"J$	c #940584",
"K$	c #D50DBB",
"L$	c #E61ECC",
"M$	c #EB34DE",
"N$	c #7D24BB",
"O$	c #2915A3",
"P$	c #5A1EB1",
"Q$	c #CD33D9",
"R$	c #FB39E6",
"S$	c #FB36E3",
"T$	c #E61DCB",
"U$	c #5C0550",
"V$	c #3B033F",
"W$	c #910581",
"X$	c #D60DBC",
"Y$	c #E51DCB",
"Z$	c #EA33DD",
"`$	c #8025BD",
" %	c #2A15A3",
".%	c #541DAF",
"+%	c #BD30D2",
"@%	c #EB37E2",
"#%	c #F238E4",
"$%	c #F137E3",
"%%	c #EE37E2",
"&%	c #EF36E1",
"*%	c #F438E4",
"=%	c #FD39E6",
"-%	c #E51CCB",
";%	c #C30AA9",
">%	c #610554",
",%	c #230338",
"'%	c #7E0872",
")%	c #D40EB9",
"!%	c #E41BC9",
"~%	c #E831D9",
"{%	c #8827BF",
"]%	c #3818A6",
"^%	c #6221B4",
"/%	c #8529C3",
"(%	c #942CC9",
"_%	c #962BC9",
":%	c #8E29C4",
"<%	c #8126BE",
"[%	c #8F29C4",
"}%	c #8124BB",
"|%	c #8224BB",
"1%	c #A02BC9",
"2%	c #DF35DE",
"3%	c #CC0BB3",
"4%	c #700561",
"5%	c #3E0440",
"6%	c #A11491",
"7%	c #DA13C0",
"8%	c #EB2BD6",
"9%	c #B22BC8",
"0%	c #3B17A7",
"a%	c #3016A5",
"b%	c #3A18A8",
"c%	c #3C18A8",
"d%	c #3B18A8",
"e%	c #3216A5",
"f%	c #2714A2",
"g%	c #3116A5",
"h%	c #A82DCC",
"i%	c #E821CE",
"j%	c #CF0BB4",
"k%	c #6F0661",
"l%	c #500547",
"m%	c #BB1BA6",
"n%	c #DE15C3",
"o%	c #E115C6",
"p%	c #ED2AD5",
"q%	c #E333DD",
"r%	c #9A26C7",
"s%	c #4718AD",
"t%	c #2B14A2",
"u%	c #4118A8",
"v%	c #4218A8",
"w%	c #4018A8",
"x%	c #3716A5",
"y%	c #2914A2",
"z%	c #4418A8",
"A%	c #B42DCC",
"B%	c #F838E4",
"C%	c #FD37E4",
"D%	c #EA24D1",
"E%	c #C40AAC",
"F%	c #5B0554",
"G%	c #48053F",
"H%	c #BC1CA8",
"I%	c #DE14C3",
"J%	c #E521D1",
"K%	c #E433E6",
"L%	c #D332E9",
"M%	c #C22BD6",
"N%	c #A124C0",
"O%	c #AA26C2",
"P%	c #AE28C6",
"Q%	c #AD28C6",
"R%	c #AC28C6",
"S%	c #A326C2",
"T%	c #9523BC",
"U%	c #A426C2",
"V%	c #AE28C7",
"W%	c #A026C2",
"X%	c #8422B9",
"Y%	c #8522B9",
"Z%	c #E431DB",
"`%	c #F731DE",
" &	c #E51CCA",
".&	c #B3099D",
"+&	c #400445",
"@&	c #36052F",
"#&	c #A71594",
"$&	c #D910BF",
"%&	c #DD0DC2",
"&&	c #DA10CB",
"*&	c #CF1AE1",
"=&	c #C519EB",
"-&	c #D218D9",
";&	c #DA18C7",
">&	c #DC18C6",
",&	c #DB18C6",
"'&	c #D918C5",
")&	c #DB1AC7",
"!&	c #DD1AC7",
"~&	c #DD1BC8",
"{&	c #DC1BC7",
"]&	c #D81BC6",
"^&	c #DE1CC8",
"/&	c #E41CCA",
"(&	c #C20BAA",
"_&	c #570450",
":&	c #2F0329",
"<&	c #8D067C",
"[&	c #C70AAE",
"}&	c #CD0AB4",
"|&	c #D00BBA",
"1&	c #D00CCA",
"2&	c #CA0CD0",
"3&	c #D00CC3",
"4&	c #DA0CBE",
"5&	c #DA0CBF",
"6&	c #DB0CBF",
"7&	c #D30DB8",
"8&	c #D30CB9",
"9&	c #D30CB8",
"0&	c #D20CB7",
"a&	c #CE0CB4",
"b&	c #B2099B",
"c&	c #57054C",
"d&	c #2E032B",
"e&	c #65035D",
"f&	c #8E047E",
"g&	c #8B047C",
"h&	c #990487",
"i&	c #9F058E",
"j&	c #920486",
"k&	c #87047A",
"l&	c #88047B",
"m&	c #9F058A",
"n&	c #AB0696",
"o&	c #AC0697",
"p&	c #AD0698",
"q&	c #B0069A",
"r&	c #B4069D",
"s&	c #B4079D",
"t&	c #AE0698",
"u&	c #B7079F",
"v&	c #BB08A2",
"w&	c #BC08A4",
"x&	c #BD08A5",
"y&	c #B907A1",
"z&	c #AB0796",
"A&	c #9A0787",
"B&	c #8D067B",
"C&	c #7D066D",
"D&	c #7F066E",
"E&	c #7D066E",
"F&	c #770667",
"G&	c #710662",
"H&	c #5D0551",
"I&	c #36032F",
"J&	c #310335",
"K&	c #2E033C",
"L&	c #440347",
"M&	c #390341",
"N&	c #4A034A",
"O&	c #4D024C",
"P&	c #380241",
"Q&	c #2D023C",
"R&	c #2B023B",
"S&	c #3E0244",
"T&	c #440346",
"U&	c #3E0343",
"V&	c #3F0344",
"W&	c #4A0349",
"X&	c #54034E",
"Y&	c #4B0349",
"Z&	c #400343",
"`&	c #4E034A",
" *	c #55034E",
".*	c #5D0453",
"+*	c #5E0452",
"@*	c #520448",
"#*	c #43043A",
"$*	c #280423",
"%*	c #2C0426",
"&*	c #240520",
"**	c #2C0526",
"=*	c #2C0326",
"  . + @ # # # # # $ $ $ $ $ % & * = * - ; > , ' ) ! ~ { ] ^ / ; ",
"( _ : < [ } | 1 2 1 1 1 3 4 5 6 7 8 9 0 a b , { c d e f g h i j ",
"k l m n o p q r s t u u v w x y z A B C D E F G H I J K K H L 0 ",
"M N O P Q R R S S R R R R R T U U V W X Y Z Y ` Y  ...+.+.@.#.$.",
"%.&.*.=.-.;.>.,.'.).).!.!.!.!.~.{.].^./.(._.:.<.[.}.|.1.2.3.4.5.",
"6.7.8.9.0.a.b.c.d.e.f.g.h.i.j.k.l.m.n.o.p.q.r.s.t.u.v.2.S w.x.y.",
"z.A.B.C.D.E.F.G.H.I.F.J.K.L.M.N.O.P.Q.R.S.T.U.V.W.X.Y.Z.S `. +.+",
"++@+#+$+%+&+*+*+=+-+;+>+,+'+)+*+!+!+!+~+{+L.]+^+/+(+_+Z.S :+<+[+",
"}+|+1+2+3+4+5+6+7+8+9+0+a+b+c+d+e+f+g+h+i+j+k+l+m+n+o+p+S q+r+s+",
"t+u+v+w+x+y+z+A+B+C+D+E+F+G+H+I+J+K+L+M+N+O+P+Q+R+R+S+2.R T+U+V+",
"W+X+Y+Z+`+ @.@+@@@#@$@%@%@&@&@*@*@=@-@;@>@/+m+,@,@,@'@)@!@~@{@]@",
"^@/@(@_@:@<@[@}@|@1@2@3@4@5@6@7@7@8@9@0@a@b@,@,@,@,@c@d@U e@f@g@",
"W+h@i@j@k@l@*+m@n@o@p@a@a@q@r@s@p@t@u@v@w@,@,@,@,@,@x@y@z@A@B@C@",
"D@E@i@F@G@H@[@'+I@J@m+b@,@,@,@w@w@,@b@,@K@R+L@M@N@O@P@Q@R@S@T@U@",
"V@W@i@X@Y@Z@`@ #.#+#@###$#%#&#*#=#-#;#>#,#L@R+K@K@'#)#p+!#~#{#]#",
"^#/#(#_#:#<#{+[#}#|#1#|#2#3#4#5#6#7#8#9#0#a#,@,@,@c@b#Z.p+c#d#e#",
"f#g#h#i#j#Z@`@*+5+k#l#k#5+5+.@[@[@[@m#n#o#p#,@,@,@q#r#Z.s#S t#u#",
"v#w#..x#O+y#*+z#A#B#C#D#E#F#G#H#I#J#K#L#M#N#,@,@,@O#P#Q#S S R#S#",
"T#U#V#W#X#Y#Z#`# $.$+$@$#$$$%$&$*$=$-$;$>$,$w@,@,@n+'$)$S S !$~$",
"{$]$^$W#/$($_$:$<$[$1@}$|$&@1$2$|$3$2$4$5$6$7$,@,@,@'@8$S 9$0$a$",
"{$b$c$d$e$f$g$h$i$6$a@j$9@k$l$m$n$o$p$q$r$a@b@,@,@,@u.s$S Q t$u$",
"v$w$x$y$z$A$5+B$C$t@w@p@,$D$E$r@r@p@F$s@7$b@,@,@,@,@G$b#S Q H$u$",
"I$J$K$L$M$N$O$P$Q$R$,@,@w@b@b@,@,@,@b@,@,@,@,@,@,@,@S$T$s#Q t$U$",
"V$W$X$Y$Z$`$ %.%+%@%#%#%#%$%%%$%#%#%#%$%&%&%*%=%,@,@S$-%S 9$;%>%",
",%'%)%!%~%{% %]%^%/%(%_%_%:%<%:%_%_%_%[%}%|%1%2%=%,@G$b#S S 3%4%",
"5%6%7%[.8%9%0%*+5+a%b%c%d%e%f%e%d%c%d%g%k#'+N.h%o@,@'#i%Z.S j%k%",
"l%m%n%o%p%q%r%s%t%y+u%v%w%x%y%x%w%v%w%F.k#'+z%A%B%,@C%D%Z.R E%F%",
"G%H%I%2.J%K%L%M%N%O%P%Q%R%S%T%U%Q%V%Q%W%X%Y%V%Z%u.G$`% &s#U .&+&",
"@&#&$&%&&&*&=&-&;&>&>&>&>&,&'&)&!&!&~&{&]&]&^&/& &b#[.p+S R (&_&",
":&<&[&}&|&1&2&3& .:+4&4&4&4&5&6&5&6&!@T T T c$X$ .7&8&9&0&a&b&c&",
"d&e&f&g&h&i&j&k&l&m&n&o&p&q&r&s&t&u&v&w&x&y&z&A&B&C&D&E&F&G&H&I&",
"J&K&L&M&N&O&P&Q&R&S&T&U&V&W&X&Y&Z&`& *.*4 +*@*#*c $*d %*&*&***=*"};
