/* XPM */
static char * floor_xpm[] = {
"32 32 108 2",
"  	c #38BDFF",
". 	c #36BCFF",
"+ 	c #37BCFF",
"@ 	c #38BCFF",
"# 	c #39BDFF",
"$ 	c #3ABDFF",
"% 	c #40BEFF",
"& 	c #57C5FF",
"* 	c #60C8FF",
"= 	c #5DC7FF",
"- 	c #59C6FF",
"; 	c #50C3FF",
"> 	c #4CC2FF",
", 	c #46C0FF",
"' 	c #41BFFF",
") 	c #45C0FF",
"! 	c #48C1FF",
"~ 	c #4AC1FF",
"{ 	c #4BC1FF",
"] 	c #53C4FF",
"^ 	c #51C3FF",
"/ 	c #4DC2FF",
"( 	c #4CC1FF",
"_ 	c #49C1FF",
": 	c #44C0FF",
"< 	c #43BFFF",
"[ 	c #42BFFF",
"} 	c #3FBEFF",
"| 	c #3CBDFF",
"1 	c #3DBEFF",
"2 	c #81D7FF",
"3 	c #B3F3FF",
"4 	c #B8F6FF",
"5 	c #B6F5FF",
"6 	c #AFF1FF",
"7 	c #A3E9FF",
"8 	c #95E1FF",
"9 	c #91DFFF",
"0 	c #A0E8FF",
"a 	c #A8ECFF",
"b 	c #B2F2FF",
"c 	c #B4F4FF",
"d 	c #B5F4FF",
"e 	c #B2F3FF",
"f 	c #B1F2FF",
"g 	c #ADEFFF",
"h 	c #9BE4FF",
"i 	c #C0FCFF",
"j 	c #C5FFFF",
"k 	c #C3FEFF",
"l 	c #C1FCFF",
"m 	c #C3FDFF",
"n 	c #C4FEFF",
"o 	c #66CBFF",
"p 	c #A3EAFF",
"q 	c #5AC6FF",
"r 	c #ABEEFF",
"s 	c #5FC8FF",
"t 	c #C6FFFF",
"u 	c #61C9FF",
"v 	c #62C9FF",
"w 	c #3BBDFF",
"x 	c #64CAFF",
"y 	c #9CE5FF",
"z 	c #56C5FF",
"A 	c #4FC3FF",
"B 	c #97E3FF",
"C 	c #97E2FF",
"D 	c #3CBEFF",
"E 	c #3EBEFF",
"F 	c #55C4FF",
"G 	c #52C3FF",
"H 	c #98E3FF",
"I 	c #44BFFF",
"J 	c #63C9FF",
"K 	c #70CFFF",
"L 	c #73D0FF",
"M 	c #BDFAFF",
"N 	c #BEFAFF",
"O 	c #C0FBFF",
"P 	c #6FCEFF",
"Q 	c #7BD4FF",
"R 	c #7ED5FF",
"S 	c #82D7FF",
"T 	c #8EDDFF",
"U 	c #A5EBFF",
"V 	c #BAF8FF",
"W 	c #BCF9FF",
"X 	c #BDF9FF",
"Y 	c #BFFBFF",
"Z 	c #52C4FF",
"` 	c #68CCFF",
" .	c #76D2FF",
"..	c #79D3FF",
"+.	c #7DD5FF",
"@.	c #7FD6FF",
"#.	c #80D6FF",
"$.	c #88DAFF",
"%.	c #8FDEFF",
"&.	c #90DEFF",
"*.	c #77D2FF",
"=.	c #66CAFF",
"-.	c #65CAFF",
";.	c #63CAFF",
">.	c #60C9FF",
",.	c #5BC7FF",
"'.	c #48C0FF",
").	c #47C0FF",
"  . + . . . . + + + @ @ @ + + + . . + + + + + + + @ #   # $ $ + ",
"+ . . . . . . . . . . . . . . . . . . . . . . . . . . . . . . + ",
"+ + % & * = - ; > , ' % ' ) ! ~ { ; ] ] ] ^ / ( { _ : ) < [ } | ",
"+ + 1 2 3 4 5 3 6 7 8 9 8 0 a 6 b c d d d c 3 e e f 6 6 g h * [ ",
"+ + [ 9 i j j j j k l i l m n j j j j j j j j j j j j j k g o < ",
"+ + ; p m j j j j j j j j j j j j j j j j j j j j j j j k g o < ",
"+ + q r k j j j j j j j j j j j j j j j j j j j j j j j k g o < ",
". @ s g k j j j j j j j j j j j j j j j j j j j t j j j k g o < ",
".   u g k j j j j j j j j j j j j j j j j j j j j j j j k g o < ",
"+ # v g k j j j j j j j j j j j j j j j j j j j j j j j k g o < ",
"+ # v g k j j j j j j j j j j j j j j j j j j j j j j j k g o < ",
". # u g k j j j j j j j j j j j j j j j j j j j j j j j k g o < ",
"+ $ v g k j j j j j j j j j j j j j j j j j j j j j j j m a v ) ",
"  w x g k j j j j j j j j j j j j j j j j j j j j j j j l y z A ",
"# | x g k j j j j j j j j j j j j j j j j j j j j j j j i B ] ] ",
"$ | x g k j j j j j j j j j j j j j j j j j j j j j j j i C ] ] ",
"w D x g k j j j j j j j j j j j j j j j j j j j j j j j i C ] ] ",
"| 1 x g k j j j j j j j j j j j j j j j j j j j j j j j i C ] ] ",
"1 1 x g k j j j j j j j j j j j j j j j j j j j j j j j i C ] ] ",
"1 1 x g k j j j j j j j j j j j j j j j j j j j j j j j i C ] ] ",
"} E * a m j j j j j j j j j j j j j j j j j j j j j j j i C ] ] ",
"< : F y l j j j j j j j j j j j j j j j j j j j j j j j i C ] ] ",
") , G H i j j j j j j j j j j j j j j j j j j j j j j j i C ] ] ",
"I : F y l j j j j j j j j j j j j j j j j j j j j j j j i C ] ] ",
"' 1 J r k j j j j j j j j j j j j j j j j j j j j j j j i C ] ] ",
"1 # K 4 j j j j j j j j j j j j j j j j j j j j j j j j i C ] ] ",
"  $ L c M M N O l k j j j j j j j j j j j j j j j j j j i C ] ] ",
". + / P Q R S T C U f 5 4 V W X M N Y Y Y Y Y Y Y Y O l M 8 Z ] ",
". . + @ w w | ' : > Z z = ` L  ...+.@.#.#.#.#.#.#.2 $.%.&.*.( ^ ",
". . + @ + + + + + . . . . + + + + @ @               # $ w w $ ! ",
". . + + + + + + + + . . . . . . . . . . . . . . . . . . . . . % ",
"= , & x =.-.-.x x ;.v >.,.] / { ~ '.).).).).).).)., ) [ E $ $ / "};
