/* XPM */
static char * floor2_xpm[] = {
"32 32 318 2",
"  	c #ABFFFF",
". 	c #ABFFFE",
"+ 	c #A9FDFD",
"@ 	c #A8FCFB",
"# 	c #A7FBFA",
"$ 	c #A6FAF8",
"% 	c #A6FAF9",
"& 	c #AAFEFE",
"* 	c #A9FDFC",
"= 	c #AAFEFD",
"- 	c #A5F9F7",
"; 	c #9FF3EF",
"> 	c #9EF2EE",
", 	c #9DF1EC",
"' 	c #9DF1ED",
") 	c #9DF0EC",
"! 	c #9BEFEA",
"~ 	c #98ECE6",
"{ 	c #8FE3DA",
"] 	c #83D8CA",
"^ 	c #78CEBD",
"/ 	c #6FC6B1",
"( 	c #6EC5B0",
"_ 	c #87DBCF",
": 	c #97EBE5",
"< 	c #9BEEE9",
"[ 	c #90E4DB",
"} 	c #9CEFEB",
"| 	c #70C7B3",
"1 	c #4BAB87",
"2 	c #47A983",
"3 	c #40A57B",
"4 	c #42A67D",
"5 	c #43A67E",
"6 	c #43A67F",
"7 	c #38A174",
"8 	c #3AA175",
"9 	c #3BA276",
"0 	c #3AA174",
"a 	c #309C6C",
"b 	c #239862",
"c 	c #1A955C",
"d 	c #17955A",
"e 	c #16955A",
"f 	c #15945A",
"g 	c #1D965D",
"h 	c #2E9C6A",
"i 	c #46A882",
"j 	c #4AAB86",
"k 	c #41A67D",
"l 	c #6DC5AF",
"m 	c #A4F8F6",
"n 	c #219760",
"o 	c #139458",
"p 	c #139459",
"q 	c #129458",
"r 	c #43A77F",
"s 	c #92E6DE",
"t 	c #B0FFFF",
"u 	c #B1FDFC",
"v 	c #97E1D7",
"w 	c #3EA277",
"x 	c #1B965C",
"y 	c #18955B",
"z 	c #1C965C",
"A 	c #1F965F",
"B 	c #249862",
"C 	c #229861",
"D 	c #229760",
"E 	c #149459",
"F 	c #1E965E",
"G 	c #299A66",
"H 	c #279964",
"I 	c #40A57C",
"J 	c #92E6DD",
"K 	c #ACFFFF",
"L 	c #A3F7F4",
"M 	c #5FB99E",
"N 	c #159459",
"O 	c #1C965D",
"P 	c #309D6C",
"Q 	c #68C1AA",
"R 	c #3AA275",
"S 	c #3CA378",
"T 	c #1D975D",
"U 	c #42A67E",
"V 	c #93E7E0",
"W 	c #9FF2EF",
"X 	c #46A881",
"Y 	c #179459",
"Z 	c #169459",
"` 	c #2D9A67",
" .	c #19955B",
"..	c #71C8B4",
"+.	c #2C9B69",
"@.	c #A1F5F2",
"#.	c #55B191",
"$.	c #159559",
"%.	c #259963",
"&.	c #189459",
"*.	c #1A955A",
"=.	c #2D9C6A",
"-.	c #67BFA7",
";.	c #309D6D",
">.	c #96EAE3",
",.	c #AFFFFF",
"'.	c #A8F6F4",
").	c #64B89C",
"!.	c #1B965B",
"~.	c #52AA84",
"{.	c #67B394",
"].	c #25965E",
"^.	c #2D9760",
"/.	c #1C955A",
"(.	c #149458",
"_.	c #2F9C6B",
":.	c #2D9C69",
"<.	c #45A880",
"[.	c #BCFFFF",
"}.	c #B1F6F4",
"|.	c #64B89B",
"1.	c #2F9A66",
"2.	c #1F955B",
"3.	c #209760",
"4.	c #A2F6F4",
"5.	c #5BB79A",
"6.	c #19945A",
"7.	c #50AF8D",
"8.	c #A1F5F1",
"9.	c #A3F6F4",
"0.	c #5AB597",
"a.	c #1F965E",
"b.	c #20955C",
"c.	c #20955B",
"d.	c #1B955A",
"e.	c #2A975E",
"f.	c #2D975F",
"g.	c #24975F",
"h.	c #299A65",
"i.	c #1E975F",
"j.	c #19965B",
"k.	c #A2F6F3",
"l.	c #B2FFFF",
"m.	c #A8F4F1",
"n.	c #51AD89",
"o.	c #1D955A",
"p.	c #3D9A67",
"q.	c #379964",
"r.	c #23955C",
"s.	c #1E955B",
"t.	c #1D965E",
"u.	c #319D6D",
"v.	c #1B955C",
"w.	c #16945A",
"x.	c #5DB79B",
"y.	c #A3F7F3",
"z.	c #9CF0EC",
"A.	c #1E955C",
"B.	c #199459",
"C.	c #3B9A65",
"D.	c #309860",
"E.	c #23965C",
"F.	c #1F9760",
"G.	c #5DB89B",
"H.	c #21965D",
"I.	c #159458",
"J.	c #3C9A65",
"K.	c #319861",
"L.	c #2C975F",
"M.	c #2A975F",
"N.	c #269862",
"O.	c #1A965C",
"P.	c #A0F4F2",
"Q.	c #53AF8D",
"R.	c #1D955B",
"S.	c #2A965F",
"T.	c #309861",
"U.	c #2F9761",
"V.	c #2E9760",
"W.	c #2F9863",
"X.	c #17955B",
"Y.	c #5CB79A",
"Z.	c #5CB698",
"`.	c #179559",
" +	c #1C955B",
".+	c #1D945A",
"++	c #24965D",
"@+	c #58B496",
"#+	c #A2F6F2",
"$+	c #A4F6F4",
"%+	c #5AB596",
"&+	c #18955A",
"*+	c #26965E",
"=+	c #21955B",
"-+	c #24965C",
";+	c #1A945A",
">+	c #50AE8C",
",+	c #A3F4F0",
"'+	c #A2F5F3",
")+	c #25975F",
"!+	c #21955C",
"~+	c #17945A",
"{+	c #4EAD8A",
"]+	c #A1F4F0",
"^+	c #ADFFFF",
"/+	c #A7F7F5",
"(+	c #65BCA2",
"_+	c #22965E",
":+	c #A0F4F0",
"<+	c #A9F8F6",
"[+	c #6BC0A9",
"}+	c #28975F",
"|+	c #3C9A66",
"1+	c #25965D",
"2+	c #1F955C",
"3+	c #43A67D",
"4+	c #9FF1ED",
"5+	c #68C1A9",
"6+	c #1B965D",
"7+	c #259964",
"8+	c #229862",
"9+	c #259862",
"0+	c #389B68",
"a+	c #339862",
"b+	c #29965E",
"c+	c #499D6D",
"d+	c #37A073",
"e+	c #9BEEEA",
"f+	c #A6F8F6",
"g+	c #6AC1AA",
"h+	c #1E965F",
"i+	c #239761",
"j+	c #19955A",
"k+	c #169559",
"l+	c #3B9A67",
"m+	c #359963",
"n+	c #459C6B",
"o+	c #309761",
"p+	c #4DAC89",
"q+	c #6BC2AC",
"r+	c #229860",
"s+	c #22955C",
"t+	c #2F9860",
"u+	c #A3F6F3",
"v+	c #A4F7F5",
"w+	c #69C1AA",
"x+	c #209860",
"y+	c #2B9B68",
"z+	c #48A983",
"A+	c #3DA378",
"B+	c #29975F",
"C+	c #50A072",
"D+	c #60A57C",
"E+	c #18945A",
"F+	c #60B99E",
"G+	c #A5F8F7",
"H+	c #6FC5B1",
"I+	c #48A883",
"J+	c #7DD1C1",
"K+	c #6CC1AA",
"L+	c #41A379",
"M+	c #2C9A66",
"N+	c #23975F",
"O+	c #1B955B",
"P+	c #349B69",
"Q+	c #64B393",
"R+	c #309B67",
"S+	c #5DAB87",
"T+	c #43A57D",
"U+	c #62BBA1",
"V+	c #93E7DF",
"W+	c #55B293",
"X+	c #57B393",
"Y+	c #66BEA6",
"Z+	c #5EB89D",
"`+	c #51AF8E",
" @	c #4AAA86",
".@	c #42A67C",
"+@	c #38A073",
"@@	c #349E70",
"#@	c #48A984",
"$@	c #57B495",
"%@	c #41A67C",
"&@	c #269964",
"*@	c #1E965C",
"=@	c #4CA071",
"-@	c #68AE8C",
";@	c #2A9A65",
">@	c #72C8B4",
",@	c #A9FCFB",
"'@	c #75CBB9",
")@	c #2D9B69",
"!@	c #279965",
"~@	c #259863",
"{@	c #249863",
"]@	c #219761",
"^@	c #20975E",
"/@	c #20975F",
"(@	c #97EAE3",
"_@	c #ABFEFD",
":@	c #85DACE",
"<@	c #5CB79B",
"[@	c #52AF8E",
"}@	c #51AF8D",
"|@	c #50AF8C",
"1@	c #4FAE8C",
"2@	c #4FAE8B",
"3@	c #52B08E",
"4@	c #59B697",
"5@	c #5BB699",
"6@	c #5BB698",
"7@	c #73C9B6",
"8@	c #98EBE5",
"9@	c #99EDE8",
"0@	c #98E9E2",
"a@	c #95E8E2",
"b@	c #95E9E2",
"c@	c #9CF0EB",
"                                                                ",
"                                . + @ # $ % $ +     & * =       ",
"      & - ; > , , ' ' ' ) ! ! ! ~ { ] ^ / ( ( _ : > < [ } @     ",
"    & } | 1 2 3 4 5 6 5 3 7 8 9 0 a b c d e f g h i j k l ' &   ",
"    m / n o p q o o o o o q q q q o q q q q q q q o p e r s *   ",
"t u v w p o d x d y z A n B C D g e E F G H x q E E q E I J +   ",
"K L M y E E E o q q o E N N y O y o q P l Q R B S T q E U V +   ",
"  W X q q q q q q q q q q q q o Y o q Z ` H  .i ..+.q E 5 V +   ",
"  @.#.$.%.%.e q q q q q q q N &.*.o q q q q o =.-.;.q p 5 >.=   ",
",.'.).!.~.{.].q q q q q q N ^./.(.q q q q q o q _.:.q q <.}     ",
"[.}.|. .1.].(.q q q q q q N 2.Y o q q q q q o E c 3.o o 1 ;     ",
"  4.5.e y E q q q q o q q (.N &.Y (.Z 6.(.q E C  .y o p 7.8.    ",
"  9.0.e a.b.c.d./.Y (.o Z Z Y /.d.e.f./.o *.g.h.i.j.o N 0.k.    ",
"l.m.n.o N Y d.o.p.q.r.6.Y o o o *.s.Z (.o o o t.u.v.o w.x.y.    ",
"  z.S q E A.*.o B.Z o q q q q &.C.D./.d.E.(.q E F.f q w.G.y.    ",
"  z.9 q N H./.Y I.I.(.q q q q q ^.J.K.L.M.Z Y N.O.w.q w.G.y.    ",
"  P.Q.N R./.Y o q q o q q q q (.S.T.U.c.Z B.V.W.Z X.q f Y.y.    ",
"  4.Z.`. +&.q q q &.Z q q q q q .+I.&.o (.(.Y ++Z  .q E @+#+    ",
"K $+%+$.&+*+B.q q =+-+;+(.q q q o q q q o o Z E.*.w.q p >+,+K K ",
"  '+@+E e )+/.!+Z (.q q q q q q q q q q q q (.o.d.~+q o {+]+    ",
"^+/+(+x Z o *._+&+~+o q o I.o q q q o d.Z s.!+(.;+ .q o {+:+    ",
"t <+[+F d p E X.y E Z }+|+!+1+q q q N /.T.d.;+o Z 2+q q 3+4+K K ",
"  m 5+t.d p 6+7+8+N 9+0+1+a+o.o q b+c+b+-+Y Y o (.Z q q d+e+  K ",
"K f+g+h+d E x i+j+k+*.l+m+=+Z q B.n+o+Z B.d.o q q q q o p+:+    ",
"^+f+q+r+C y E o q (.s+1+Z N o /.t+Y o B.I.Z q q q N p d G.u+    ",
"  v+w+x+y+z+A+a.o (.(.q q (.B+C+D+c.Z &.(.o q q E+a d y F+y.    ",
"  G+H+n c I+J+K+L+M+N+E+E &+O+P+Q+R+&+o q q q /.S+T+E y U+$+K K ",
"  * V+W+h =.X+Y+Z+`+ @.@+@@@9 #@$@%@&@b O O.*@=@-@;@q O.>@$ K K ",
"K K ,@~ '@p+)@!@!@&@&@7+~@{@~@&@!@{@]@]@3.3.^@x O 3./@>+(@_@K   ",
"K     = @.:@<@[@}@7.7.7.7.|@7.7.7.|@1@1@2@2@3@4@5@6@7@8@*       ",
"        & G+9@0@a@a@a@a@a@a@a@a@a@a@a@a@a@b@~ W ; c@v+=         ",
"            = + + + + + + + + + + + + + + + = .   &             "};
