/* XPM */
static char * playerf2_xpm[] = {
"32 32 431 2",
"  	c #38BDFF",
". 	c #36BCFF",
"+ 	c #37BCFF",
"@ 	c #38BCFF",
"# 	c #39BDFF",
"$ 	c #3ABDFF",
"% 	c #40BEFF",
"& 	c #57C5FF",
"* 	c #60C8FF",
"= 	c #5DC7FF",
"- 	c #59C6FF",
"; 	c #50C3FF",
"> 	c #4CC2FF",
", 	c #46C0FF",
"' 	c #51C9FF",
") 	c #62D5FF",
"! 	c #94DCFF",
"~ 	c #88DCFF",
"{ 	c #7DDDFF",
"] 	c #76DDFD",
"^ 	c #AEDBF4",
"/ 	c #A2D8F6",
"( 	c #95D4FA",
"_ 	c #85CFFA",
": 	c #72CAFC",
"< 	c #57C4FF",
"[ 	c #4DC2FF",
"} 	c #4CC1FF",
"| 	c #4BC1FF",
"1 	c #49C1FF",
"2 	c #44C0FF",
"3 	c #45C0FF",
"4 	c #43BFFF",
"5 	c #42BFFF",
"6 	c #3FBEFF",
"7 	c #3CBDFF",
"8 	c #3DBEFF",
"9 	c #81D7FF",
"0 	c #B3F3FF",
"a 	c #B8F6FF",
"b 	c #B6F5FF",
"c 	c #AFF1FF",
"d 	c #A3E9FF",
"e 	c #D7FCFF",
"f 	c #C6FFF8",
"g 	c #FFFFDD",
"h 	c #FFFFAC",
"i 	c #FFFFB3",
"j 	c #FFFFBE",
"k 	c #FFFFB4",
"l 	c #FFFF96",
"m 	c #FFFFCC",
"n 	c #FFFFBC",
"o 	c #FFFF6E",
"p 	c #EFFCDB",
"q 	c #BCF5FF",
"r 	c #B2F3FF",
"s 	c #B1F2FF",
"t 	c #ADEFFF",
"u 	c #9BE4FF",
"v 	c #91DFFF",
"w 	c #C0FCFF",
"x 	c #C5FFFF",
"y 	c #C0FFFF",
"z 	c #E1FFFF",
"A 	c #ABFFFF",
"B 	c #FFFFD8",
"C 	c #FFFF6C",
"D 	c #FFFF4E",
"E 	c #F4F43E",
"F 	c #CACA88",
"G 	c #B4B47F",
"H 	c #B4B469",
"I 	c #C1C19A",
"J 	c #D7D79E",
"K 	c #E1E15A",
"L 	c #FFFF37",
"M 	c #FFFF8A",
"N 	c #FFFFBD",
"O 	c #CAFFFD",
"P 	c #C3FEFF",
"Q 	c #66CBFF",
"R 	c #A3EAFF",
"S 	c #C3FDFF",
"T 	c #A2FFF4",
"U 	c #FFFF47",
"V 	c #C6C629",
"W 	c #AB912E",
"X 	c #A36933",
"Y 	c #8E4E37",
"Z 	c #622E26",
"` 	c #663831",
" .	c #6A4E47",
"..	c #74564C",
"+.	c #AAA56B",
"@.	c #E1E15D",
"#.	c #FFFF33",
"$.	c #FFFF7E",
"%.	c #F9FFDC",
"&.	c #5AC6FF",
"*.	c #ABEEFF",
"=.	c #CDFFFB",
"-.	c #FFFFD7",
";.	c #FFFF97",
">.	c #FFFF42",
",.	c #BCBC51",
"'.	c #9F6334",
").	c #8E351A",
"!.	c #673100",
"~.	c #4A361A",
"{.	c #203420",
"].	c #183118",
"^.	c #1B351B",
"/.	c #243D24",
"(.	c #4C4733",
"_.	c #A38953",
":.	c #E1E14C",
"<.	c #FFFF5A",
"[.	c #FBFFD6",
"}.	c #5FC8FF",
"|.	c #C0FFFD",
"1.	c #BCBC6A",
"2.	c #988964",
"3.	c #392C00",
"4.	c #203819",
"5.	c #194D19",
"6.	c #1C7A1C",
"7.	c #297C29",
"8.	c #497C49",
"9.	c #178517",
"0.	c #176317",
"a.	c #223222",
"b.	c #9A472A",
"c.	c #C6C63F",
"d.	c #FFFF61",
"e.	c #FAFFD4",
"f.	c #61C9FF",
"g.	c #C4FFFF",
"h.	c #E1E184",
"i.	c #99896D",
"j.	c #002C00",
"k.	c #265B26",
"l.	c #1B911B",
"m.	c #1DC61D",
"n.	c #2DFF2D",
"o.	c #70FF70",
"p.	c #96FF96",
"q.	c #8AFF8A",
"r.	c #5AA65A",
"s.	c #2E3D2E",
"t.	c #943D28",
"u.	c #AC9D1F",
"v.	c #FFFF58",
"w.	c #F8FFC5",
"x.	c #62C9FF",
"y.	c #F9FFDD",
"z.	c #E1E197",
"A.	c #AAA570",
"B.	c #784738",
"C.	c #275627",
"D.	c #1AA51A",
"E.	c #2DF52D",
"F.	c #52CB52",
"G.	c #77CB7A",
"H.	c #ABD8AB",
"I.	c #D2F0E7",
"J.	c #CDE1E1",
"K.	c #B4B4B4",
"L.	c #535353",
"M.	c #893421",
"N.	c #A98D3D",
"O.	c #FFFF3C",
"P.	c #F6FFCC",
"Q.	c #FAFFB0",
"R.	c #B3B347",
"S.	c #A1562B",
"T.	c #6B473C",
"U.	c #3E9D3E",
"V.	c #23E123",
"W.	c #64F464",
"X.	c #9EAC9F",
"Y.	c #6F7777",
"Z.	c #AECBCB",
"`.	c #BFE1E1",
" +	c #90A5A5",
".+	c #8E9090",
"++	c #4D4D4D",
"@+	c #472D29",
"#+	c #987F5D",
"$+	c #F5FFD8",
"%+	c #F9FFA8",
"&+	c #AA822D",
"*+	c #97361E",
"=+	c #6E5942",
"-+	c #66D766",
";+	c #79FF79",
">+	c #97F497",
",+	c #BABABA",
"'+	c #A1ACAC",
")+	c #B4CBCB",
"!+	c #C5E1E1",
"~+	c #96A5A5",
"{+	c #2B2B2B",
"]+	c #7F7F7F",
"^+	c #9DFFFF",
"/+	c #B4FFFF",
"(+	c #EFF5C8",
"_+	c #8F6C52",
":+	c #702200",
"<+	c #656C5D",
"[+	c #84F484",
"}+	c #8BFF8B",
"|+	c #E0FEE0",
"1+	c #F4F4F4",
"2+	c #F1F4F4",
"3+	c #F1F5F5",
"4+	c #EDF0F0",
"5+	c #E1E1E1",
"6+	c #8D8D8D",
"7+	c #D8FFFF",
"8+	c #A8ECFF",
"9+	c #3BBDFF",
"0+	c #64CAFF",
"a+	c #C1FEFE",
"b+	c #7C7C7C",
"c+	c #485248",
"d+	c #658A65",
"e+	c #8BBD8B",
"f+	c #D7F4D7",
"g+	c #FFFFFF",
"h+	c #9D9D9D",
"i+	c #474747",
"j+	c #B3B3B3",
"k+	c #B8FFFF",
"l+	c #C3FFFF",
"m+	c #C1FCFF",
"n+	c #9CE5FF",
"o+	c #56C5FF",
"p+	c #4FC3FF",
"q+	c #BCBDBD",
"r+	c #898989",
"s+	c #000000",
"t+	c #222222",
"u+	c #3F3F3F",
"v+	c #6C6C6C",
"w+	c #828282",
"x+	c #AEAEAE",
"y+	c #919191",
"z+	c #696969",
"A+	c #E1E7E7",
"B+	c #97E3FF",
"C+	c #53C4FF",
"D+	c #C1FFFF",
"E+	c #BDC1C1",
"F+	c #636363",
"G+	c #1D1D1D",
"H+	c #434343",
"I+	c #CACDCD",
"J+	c #97E2FF",
"K+	c #3CBEFF",
"L+	c #C6C6C6",
"M+	c #727272",
"N+	c #252525",
"O+	c #2F2F2F",
"P+	c #707070",
"Q+	c #CBCBCB",
"R+	c #9AF2F2",
"S+	c #CAFFFF",
"T+	c #C2FFFF",
"U+	c #C2FDFD",
"V+	c #C8D6D6",
"W+	c #787878",
"X+	c #868686",
"Y+	c #D1D1D1",
"Z+	c #BCFFFF",
"`+	c #D4D4D4",
" @	c #999999",
".@	c #5B5B5B",
"+@	c #717171",
"@@	c #BAFFFF",
"#@	c #BDFFFF",
"$@	c #2D2D2D",
"%@	c #3A3A3A",
"&@	c #939393",
"*@	c #B2FBFB",
"=@	c #3EBEFF",
"-@	c #1C1C1C",
";@	c #151540",
">@	c #0B0B56",
",@	c #060655",
"'@	c #383850",
")@	c #BDBDBD",
"!@	c #BEFFFF",
"~@	c #55C4FF",
"{@	c #BFFFFF",
"]@	c #A5A5A5",
"^@	c #313131",
"/@	c #101010",
"(@	c #383861",
"_@	c #121283",
":@	c #010183",
"<@	c #5F5F5F",
"[@	c #AAAAAA",
"}@	c #52C3FF",
"|@	c #98E3FF",
"1@	c #94F5D3",
"2@	c #78B678",
"3@	c #00A400",
"4@	c #50525E",
"5@	c #4C5D8D",
"6@	c #101094",
"7@	c #020291",
"8@	c #030355",
"9@	c #090909",
"0@	c #5E5E5E",
"a@	c #A7ACAC",
"b@	c #DFE3E3",
"c@	c #44BFFF",
"d@	c #91F4D0",
"e@	c #7CE07C",
"f@	c #3EA93E",
"g@	c #8F9296",
"h@	c #4B5B8F",
"i@	c #06069E",
"j@	c #020280",
"k@	c #24244E",
"l@	c #2C2C2C",
"m@	c #63A563",
"n@	c #ACCCB2",
"o@	c #B7FFF6",
"p@	c #41BFFF",
"q@	c #63C9FF",
"r@	c #92F4D1",
"s@	c #A8CFAF",
"t@	c #C3C4CB",
"u@	c #47518B",
"v@	c #000090",
"w@	c #05058D",
"x@	c #535871",
"y@	c #63B063",
"z@	c #96DDA3",
"A@	c #B1FFEF",
"B@	c #70CFFF",
"C@	c #454667",
"D@	c #05058A",
"E@	c #09098A",
"F@	c #6F7785",
"G@	c #B1FFFF",
"H@	c #BCBCBC",
"I@	c #9BC5A3",
"J@	c #B7E1BE",
"K@	c #AAFFEA",
"L@	c #73D0FF",
"M@	c #B4F4FF",
"N@	c #BDFAFF",
"O@	c #BEFAFF",
"P@	c #C0FBFF",
"Q@	c #8CEBF4",
"R@	c #74777D",
"S@	c #1F1F7F",
"T@	c #0C0C85",
"U@	c #181885",
"V@	c #717883",
"W@	c #B3FFFF",
"X@	c #6FCEFF",
"Y@	c #7BD4FF",
"Z@	c #7ED5FF",
"`@	c #82D7FF",
" #	c #8EDDFF",
".#	c #A5EBFF",
"+#	c #B0F2FF",
"@#	c #B0F7FF",
"##	c #949FC2",
"$#	c #464E88",
"%#	c #0E0E8F",
"&#	c #1F1F9B",
"*#	c #1F1F78",
"=#	c #6F6F6F",
"-#	c #B9FCFF",
";#	c #BFFBFF",
">#	c #95E1FF",
",#	c #52C4FF",
"'#	c #5ECDFF",
")#	c #E7E7E7",
"!#	c #627490",
"~#	c #1B1B9B",
"{#	c #3E3E91",
"]#	c #464D88",
"^#	c #202078",
"/#	c #3C3C3C",
"(#	c #91F4F4",
"_#	c #81D8FF",
":#	c #80D6FF",
"<#	c #88DAFF",
"[#	c #8FDEFF",
"}#	c #90DEFF",
"|#	c #77D2FF",
"1#	c #51C3FF",
"2#	c #8FF2F4",
"3#	c #2D2D70",
"4#	c #0E0E6B",
"5#	c #464B7E",
"6#	c #A2A7AE",
"7#	c #696C73",
"8#	c #151515",
"9#	c #595959",
"0#	c #41C1FF",
"a#	c #48C1FF",
"b#	c #C8D9CB",
"c#	c #6CB26C",
"d#	c #13A513",
"e#	c #007800",
"f#	c #777B7F",
"g#	c #3FBFFE",
"h#	c #008500",
"i#	c #83B083",
"j#	c #8FF2D8",
"k#	c #66CAFF",
"l#	c #65CAFF",
"m#	c #65CCFF",
"n#	c #B7D5D9",
"o#	c #61CA94",
"p#	c #48C782",
"q#	c #78A497",
"r#	c #ADB9C4",
"s#	c #8D9CA9",
"t#	c #3FA06D",
"u#	c #79D18A",
"v#	c #8EF1CD",
"w#	c #4EC4FF",
"x#	c #47C0FF",
"  . + . . . . + + + @ @ @ + + + . . + + + + + + + @ #   # $ $ + ",
"+ . . . . . . . . . . . . . . . . . . . . . . . . . . . . . . + ",
"+ + % & * = - ; > , ' ) ! ~ { ] ^ / ( _ : < [ } | 1 2 3 4 5 6 7 ",
"+ + 8 9 0 a b 0 c d e f g h i j k l m n o l p q r s c c t u * 5 ",
"+ + 5 v w x x y z A B l C D E F G H I J K L M N O x x x P t Q 4 ",
"+ + ; R S x x y T n l U V W X Y Z `  ...+.@.#.$.%.x x x P t Q 4 ",
"+ + &.*.P x x =.-.;.>.,.'.).!.~.{.].^./.(._.:.<.[.x x x P t Q 4 ",
". @ }.t P x x |.h o 1.2.3.4.5.6.7.8.9.0.a.b.c.d.e.x x x P t Q 4 ",
".   f.t P x x g.k h.i.j.k.l.m.n.o.p.q.r.s.t.u.v.w.x x x P t Q 4 ",
"+ # x.t P x x y.z.A.B.C.D.E.F.G.H.I.J.K.L.M.N.O.P.x x x P t Q 4 ",
"+ # x.t P x x Q.R.S.T.U.V.W.X.Y.Z.`. +.+++@+#+n $+x x x P t Q 4 ",
". # f.t P x x %+&+*+=+-+;+>+,+'+)+!+~+.+++{+]+^+/+x x x P t Q 4 ",
"+ $ x.t P x x (+_+:+<+[+}+|+1+2+3+4+5+K.L.{+6+^+7+x x x S 8+x.3 ",
"  9+0+t P x x a+b+{+c+d+e+f+g+g+g+g+g+h+i+i+j+k+l+x x x m+n+o+p+",
"# 7 0+t P x x x q+r+s+t+u+v+w+h+x+x+y+z+s+r+A+x x x x x w B+C+C+",
"$ 7 0+t P x x x D+E+F+t+G+s+{+H+H+H+i+s+r+I+l+x x x x x w J+C+C+",
"9+K+0+t P x x x x g.L+h+M+v+L.{+N+O+P+Q+R+g.x x x x x x w J+C+C+",
"7 8 0+t P x x x x x S+x T+U+V+W+X+Y+k+T+g.x x x x x x x w J+C+C+",
"8 8 0+t P x x x x x x x Z+`+ @.@+@L+@@x x x x x x x x x w J+C+C+",
"8 8 0+t P x x x x x x #@L+]+$@G+%@&@*@g.x x x x x x x x w J+C+C+",
"6 =@* 8+S x x x x x T+5+F+-@;@>@,@'@)@!@x x x x x x x x w J+C+C+",
"4 2 ~@n+m+x x x x x {@]@^@/@(@_@:@,@<@[@y x x x x x x x w J+C+C+",
"3 , }@|@w x x x x l+1@2@3@4@5@6@7@8@9@0@a@b@b@#@x x x x w J+C+C+",
"c@2 ~@n+m+x x x x g.d@e@f@g@h@i@j@k@l@s+F+m@n@o@x x x x w J+C+C+",
"p@8 q@*.P x x x x x r@s@s@t@u@v@w@x@h+M+s+y@z@A@x x x x w J+C+C+",
"8 # B@a x x x x x x x x D+L+C@D@E@F@G@H@]@I@J@K@x x x x w J+C+C+",
"  $ L@M@N@N@O@P@m+P x g.Q@R@S@T@U@V@W@x x x x x x x x x w J+C+C+",
". + [ X@Y@Z@`@ #J+.#+#@###$#%#&#*#=#5+-#;#;#;#;#;#;#P@m+N@>#,#C+",
". . + @ 9+9+7 p@2 > '#)#!#~#{#]#^#/#r+(#_#:#:#:#:#9 <#[#}#|#} 1#",
". . + @ + + + + + . 2#]@3#4#5#6#7#8#9#j+0#          # $ 9+9+$ a#",
". . + + + + + + +   b#c#d#e#f#g#j+0@h#i#j#0#. . . . . . . . . % ",
"= , & 0+k#l#l#0+0+m#n#o#p#q#r#| > s#t#u#v#w#x#x#x#, 3 5 =@$ $ [ "};
