/* XPM */
static char * player1_xpm[] = {
"32 32 331 2",
"  	c #9DFFFF",
". 	c #9DFFF9",
"+ 	c #FFFFE1",
"@ 	c #FFFFE7",
"# 	c #9DFFF4",
"$ 	c #FFFFDD",
"% 	c #FFFFAC",
"& 	c #FFFFB3",
"* 	c #FFFFBE",
"= 	c #FFFFB4",
"- 	c #FFFF96",
"; 	c #FFFFCC",
"> 	c #FFFFBC",
", 	c #FFFF6E",
"' 	c #FFFFD8",
") 	c #FFFF6C",
"! 	c #FFFF4E",
"~ 	c #F4F43E",
"{ 	c #CACA88",
"] 	c #B4B47F",
"^ 	c #B4B469",
"/ 	c #C1C19A",
"( 	c #D7D79E",
"_ 	c #E1E15A",
": 	c #FFFF37",
"< 	c #FFFF8A",
"[ 	c #FFFF47",
"} 	c #C6C629",
"| 	c #AB912E",
"1 	c #A36933",
"2 	c #8E4E37",
"3 	c #622E26",
"4 	c #663831",
"5 	c #6A4E47",
"6 	c #74564C",
"7 	c #AAA56B",
"8 	c #E1E15D",
"9 	c #FFFF33",
"0 	c #FFFF7E",
"a 	c #FFFFD7",
"b 	c #FFFF97",
"c 	c #FFFF42",
"d 	c #BCBC51",
"e 	c #9F6334",
"f 	c #8E351A",
"g 	c #673100",
"h 	c #4A361A",
"i 	c #203420",
"j 	c #183118",
"k 	c #1B351B",
"l 	c #243D24",
"m 	c #4C4733",
"n 	c #A38953",
"o 	c #E1E14C",
"p 	c #FFFF5A",
"q 	c #FFFFD2",
"r 	c #9EFFFF",
"s 	c #9FFFFF",
"t 	c #9EFFF4",
"u 	c #BCBC6A",
"v 	c #988964",
"w 	c #392C00",
"x 	c #203819",
"y 	c #194D19",
"z 	c #1C7A1C",
"A 	c #297C29",
"B 	c #497C49",
"C 	c #178517",
"D 	c #176317",
"E 	c #223222",
"F 	c #9A472A",
"G 	c #C6C63F",
"H 	c #FFFF61",
"I 	c #FFFFCE",
"J 	c #E1E184",
"K 	c #99896D",
"L 	c #002C00",
"M 	c #265B26",
"N 	c #1B911B",
"O 	c #1DC61D",
"P 	c #2DFF2D",
"Q 	c #70FF70",
"R 	c #96FF96",
"S 	c #8AFF8A",
"T 	c #5AA65A",
"U 	c #2E3D2E",
"V 	c #943D28",
"W 	c #AC9D1F",
"X 	c #FFFF58",
"Y 	c #FFFFBA",
"Z 	c #A0FFFF",
"` 	c #9DFFFE",
" .	c #E1E197",
"..	c #AAA570",
"+.	c #784738",
"@.	c #275627",
"#.	c #1AA51A",
"$.	c #2DF52D",
"%.	c #52CB52",
"&.	c #77CB7A",
"*.	c #ABD8AB",
"=.	c #D2F0E7",
"-.	c #CDE1E1",
";.	c #B4B4B4",
">.	c #535353",
",.	c #893421",
"'.	c #A98D3D",
").	c #FFFF3C",
"!.	c #FFFFBF",
"~.	c #FFFFA4",
"{.	c #B3B347",
"].	c #A1562B",
"^.	c #6B473C",
"/.	c #3E9D3E",
"(.	c #23E123",
"_.	c #64F464",
":.	c #9EAC9F",
"<.	c #6F7777",
"[.	c #AECBCB",
"}.	c #BFE1E1",
"|.	c #90A5A5",
"1.	c #8E9090",
"2.	c #4D4D4D",
"3.	c #472D29",
"4.	c #987F5D",
"5.	c #FFFF98",
"6.	c #AA822D",
"7.	c #97361E",
"8.	c #6E5942",
"9.	c #66D766",
"0.	c #79FF79",
"a.	c #97F497",
"b.	c #BABABA",
"c.	c #A1ACAC",
"d.	c #B4CBCB",
"e.	c #C5E1E1",
"f.	c #96A5A5",
"g.	c #2B2B2B",
"h.	c #7F7F7F",
"i.	c #9DFFF5",
"j.	c #F4F4BF",
"k.	c #8F6C52",
"l.	c #702200",
"m.	c #656C5D",
"n.	c #84F484",
"o.	c #8BFF8B",
"p.	c #E0FEE0",
"q.	c #F4F4F4",
"r.	c #F1F4F4",
"s.	c #F1F5F5",
"t.	c #EDF0F0",
"u.	c #E1E1E1",
"v.	c #8D8D8D",
"w.	c #9DF4F4",
"x.	c #7C7C7C",
"y.	c #485248",
"z.	c #658A65",
"A.	c #8BBD8B",
"B.	c #D7F4D7",
"C.	c #FFFFFF",
"D.	c #9D9D9D",
"E.	c #474747",
"F.	c #B3B3B3",
"G.	c #BCBCBC",
"H.	c #898989",
"I.	c #000000",
"J.	c #222222",
"K.	c #3F3F3F",
"L.	c #6C6C6C",
"M.	c #828282",
"N.	c #AEAEAE",
"O.	c #919191",
"P.	c #696969",
"Q.	c #636363",
"R.	c #1D1D1D",
"S.	c #434343",
"T.	c #D7D7D7",
"U.	c #BDD7BD",
"V.	c #E1FFE1",
"W.	c #C6C6C6",
"X.	c #727272",
"Y.	c #595959",
"Z.	c #323232",
"`.	c #2C2C2C",
" +	c #838383",
".+	c #303F30",
"++	c #4A894A",
"@+	c #BCFFBC",
"#+	c #646464",
"$+	c #272727",
"%+	c #5C5C5C",
"&+	c #B9BDC1",
"*+	c #9B9EA6",
"=+	c #838390",
"-+	c #59595C",
";+	c #1A2D1A",
">+	c #E5F4E9",
",+	c #ABF4EF",
"'+	c #686868",
")+	c #4A4A4A",
"!+	c #8589B4",
"~+	c #5E5EBA",
"{+	c #0000A8",
"]+	c #2B2B57",
"^+	c #5E5E5E",
"/+	c #728272",
"(+	c #9EB39E",
"_+	c #84BC84",
":+	c #608960",
"<+	c #556155",
"[+	c #757575",
"}+	c #7F7F9A",
"|+	c #7F7FB0",
"1+	c #7A7A97",
"2+	c #22225D",
"3+	c #000079",
"4+	c #0D0D7A",
"5+	c #2020A4",
"6+	c #1D1DCF",
"7+	c #6C6CBD",
"8+	c #93959F",
"9+	c #CBCBCB",
"0+	c #6EBC6E",
"a+	c #002F00",
"b+	c #272F27",
"c+	c #2B2B7E",
"d+	c #2B2BC3",
"e+	c #27277D",
"f+	c #050579",
"g+	c #0000B8",
"h+	c #0303B8",
"i+	c #2323A6",
"j+	c #6C6CA9",
"k+	c #B1CBD5",
"l+	c #9DFCFF",
"m+	c #E7FFE7",
"n+	c #96BC96",
"o+	c #779577",
"p+	c #626C62",
"q+	c #616161",
"r+	c #59598D",
"s+	c #5959B5",
"t+	c #4D4D88",
"u+	c #13139D",
"v+	c #0606CF",
"w+	c #2828CF",
"x+	c #8D97BD",
"y+	c #A7FFFF",
"z+	c #E5E9E9",
"A+	c #DCDFDF",
"B+	c #D8DEDF",
"C+	c #B0B6BC",
"D+	c #2E2EB7",
"E+	c #1414D7",
"F+	c #4E4ED7",
"G+	c #D5EBF4",
"H+	c #1818C0",
"I+	c #0000D9",
"J+	c #2929C9",
"K+	c #91A5CA",
"L+	c #C1DDE2",
"M+	c #CCF8FF",
"N+	c #797988",
"O+	c #0A0AA8",
"P+	c #0505B3",
"Q+	c #1212AE",
"R+	c #4747C4",
"S+	c #8083D1",
"T+	c #9FB3C9",
"U+	c #DEEDF4",
"V+	c #9DFDFF",
"W+	c #626292",
"X+	c #000088",
"Y+	c #3F3F90",
"Z+	c #6B6B9E",
"`+	c #4D4DB3",
" @	c #0000C5",
".@	c #6C6CD0",
"+@	c #8FA5CD",
"@@	c #D3DFE1",
"#@	c #C2F2F4",
"$@	c #2B2BAF",
"%@	c #6161CC",
"&@	c #9BB3CD",
"*@	c #DDE1E1",
"=@	c #A2A5AC",
"-@	c #7878B3",
";@	c #2B2BCC",
">@	c #4D4DCF",
",@	c #8895C8",
"'@	c #BCCBD1",
")@	c #A1FFFF",
"!@	c #ABC2D0",
"~@	c #6161BB",
"{@	c #2B2BC9",
"]@	c #828ED3",
"^@	c #C5E7F4",
"/@	c #BFCBD0",
"(@	c #8C95BC",
"_@	c #4343CC",
":@	c #2020C4",
"<@	c #6C6C96",
"[@	c #888EB6",
"}@	c #2B2BD0",
"|@	c #6161C6",
"1@	c #B0C2CD",
"2@	c #E7F6FF",
"3@	c #D2DFE1",
"4@	c #8A91B8",
"5@	c #2F2F9A",
"6@	c #0B0B6E",
"7@	c #5B5B5B",
"8@	c #5F6199",
"9@	c #30309A",
"0@	c #8C95B9",
"a@	c #ADF2F4",
"b@	c #1C1C1C",
"c@	c #0B1B0B",
"d@	c #505B50",
"e@	c #AEC6AE",
"f@	c #CCFFCC",
"g@	c #64AA64",
"h@	c #425D42",
"i@	c #1F231F",
"j@	c #142814",
"k@	c #193219",
"l@	c #5C9D5C",
"m@	c #1A2F1A",
"n@	c #444744",
"o@	c #546954",
"p@	c #233823",
"                                                                ",
"                                                                ",
"                            . + + @ + + +                       ",
"                    # $ % & * = - ; > , - ;                     ",
"                  ' - ) ! ~ { ] ^ / ( _ : < > #                 ",
"              # > - [ } | 1 2 3 4 5 6 7 8 9 0 a                 ",
"            . a b c d e f g h i j k l m n o p q                 ",
"    r r s s t % , u v w x y z A B C D E F G H I                 ",
"s r r r     # = J K L M N O P Q R S T U V W X Y                 ",
"Z r       ` '  ...+.@.#.$.%.&.*.=.-.;.>.,.'.).!.                ",
"r         # ~.{.].^./.(._.:.<.[.}.|.1.2.3.4.> ;                 ",
"          # 5.6.7.8.9.0.a.b.c.d.e.f.1.2.g.h.                    ",
"          i.j.k.l.m.n.o.p.q.r.s.t.u.;.>.g.v.                    ",
"            w.x.g.y.z.A.B.C.C.C.C.C.D.E.E.F.                    ",
"            w.G.H.I.J.K.L.M.D.N.N.O.P.I.H.u.                    ",
"                G.Q.J.R.I.g.S.S.S.E.I.H.G.C.T.U.U.V.            ",
"                  W.D.X.L.Y.Z.`.Z.E.H.;.F. +E..+++@+          s ",
"                        w.T.#+$+%+&+*+=+-+I.I.;+++@+          r ",
"          . # >+,+w.        '+I.)+!+~+{+]+Q.^+/+(+V.            ",
"          V._+:+<+[+}+|+|+1+2+3+4+5+6+7+8+9+                    ",
"          V.0+a+b+g.c+d+d+e+f+g+h+i+j+k+l+                    r ",
"          m+n+o+p+q+r+s+s+t+u+v+w+x+W.                      r y+",
"                w.z+A+B+B+C+D+E+F+G+                            ",
"                          *+H+I+J+K+L+M+                        ",
"                          N+O+P+Q+R+S+T+U+V+                    ",
"                        9+W+X+Y+Z+`+ @.@+@@@V+      r r     r Z ",
"                      #@8+$@%@&@*@=@-@;@>@,@'@        r r s Z )@",
"                      !@~@{@]@^@    /@(@_@:@<@F.        s s s r ",
"                    w.[@}@|@1@2@      3@4@5@6@7@N.r Z r         ",
"                m+B.(+8@9@0@a@          T.X.b@c@d@e@.           ",
"                f@g@h@i@M.9+              T.^+j@k@:+#           ",
"r r             f@l@m@n@F.                  W.o@p@:+#           "};
