/* XPM */
static char * testsolong_xpm[] = {
"32 32 285 2",
"  	c #FFFFFF",
". 	c #FEFFFF",
"+ 	c #FDFFFF",
"@ 	c #FAFFFF",
"# 	c #F6FFFF",
"$ 	c #F4FFFF",
"% 	c #EFFFFF",
"& 	c #E6FFFF",
"* 	c #EAFFFF",
"= 	c #F9FFFF",
"- 	c #E7FFFF",
"; 	c #C7FFFF",
"> 	c #AFFFFF",
", 	c #A3FFFF",
"' 	c #A0FFFF",
") 	c #8FFFFF",
"! 	c #A5FFFF",
"~ 	c #E1FFFF",
"{ 	c #FCFFFF",
"] 	c #FBFFFF",
"^ 	c #D7FFFF",
"/ 	c #90FFFF",
"( 	c #70FFFF",
"_ 	c #66FFFF",
": 	c #60FFFF",
"< 	c #63FFFF",
"[ 	c #61FFFF",
"} 	c #6FFFFF",
"| 	c #BFFFFF",
"1 	c #F7FFFF",
"2 	c #E5FFFF",
"3 	c #94FFFF",
"4 	c #7FFFFF",
"5 	c #93FFFF",
"6 	c #87FFFF",
"7 	c #6EFFFF",
"8 	c #6BFFFF",
"9 	c #DFFFFF",
"0 	c #EDFFFF",
"a 	c #B5FFFF",
"b 	c #79FFFF",
"c 	c #92FFFF",
"d 	c #CFFFFF",
"e 	c #E8FFFF",
"f 	c #D8FFFF",
"g 	c #9DFFFF",
"h 	c #64FFFF",
"i 	c #F5FFFF",
"j 	c #D2FFFF",
"k 	c #83FFFF",
"l 	c #77FFFF",
"m 	c #A4FFFF",
"n 	c #E0FFFF",
"o 	c #DAFFFF",
"p 	c #86FFFF",
"q 	c #5FFFFF",
"r 	c #C9FFFF",
"s 	c #C3FFFF",
"t 	c #F8FFFF",
"u 	c #B8FFFF",
"v 	c #71FFFF",
"w 	c #D1FFFF",
"x 	c #72FFFF",
"y 	c #BAFFFF",
"z 	c #F3FFFF",
"A 	c #8AFFFF",
"B 	c #C0FFFF",
"C 	c #F2FFFF",
"D 	c #F1FFFF",
"E 	c #D4FFFF",
"F 	c #91FFFF",
"G 	c #DCFFFF",
"H 	c #8EFEFF",
"I 	c #9BFEFF",
"J 	c #9BFFFF",
"K 	c #81FFFF",
"L 	c #5DFFFF",
"M 	c #A2FFFF",
"N 	c #64FCFF",
"O 	c #5CF2FF",
"P 	c #57EEFF",
"Q 	c #5CF9FF",
"R 	c #88FFFF",
"S 	c #D9FFFF",
"T 	c #FEFFFE",
"U 	c #D9FDFF",
"V 	c #8FECFF",
"W 	c #52BAFF",
"X 	c #4CA2FF",
"Y 	c #80D8FF",
"Z 	c #9EFBFF",
"` 	c #B3FFFF",
" .	c #FDFFFD",
"..	c #F9FFF9",
"+.	c #FAFFFA",
"@.	c #FCFFFC",
"#.	c #F1FFF1",
"$.	c #EAFFEA",
"%.	c #F3FFF3",
"&.	c #F8FFF8",
"*.	c #F7FBFF",
"=.	c #BAD3FF",
"-.	c #4A84FF",
";.	c #1E6FFF",
">.	c #8EABFF",
",.	c #E9F5FF",
"'.	c #E1FFE1",
").	c #BCFFBB",
"!.	c #C7FFC6",
"~.	c #EFFFEF",
"{.	c #A4FFA2",
"].	c #95FF93",
"^.	c #B3FFB2",
"/.	c #C3FFC2",
"(.	c #CEFFCD",
"_.	c #E8FFE8",
":.	c #F2FAF8",
"<.	c #BFCBFE",
"[.	c #5281FD",
"}.	c #427AFB",
"|.	c #A9BCF9",
"1.	c #F0F8F9",
"2.	c #F6FFF6",
"3.	c #EBFFEB",
"4.	c #CAFFC9",
"5.	c #82FF7F",
"6.	c #54FF4D",
"7.	c #6CFF68",
"8.	c #CDFFCC",
"9.	c #B8FFB7",
"0.	c #51FF4B",
"a.	c #56FF4F",
"b.	c #65FF60",
"c.	c #6AFF66",
"d.	c #72FF6E",
"e.	c #92FF90",
"f.	c #BCFABF",
"g.	c #ADCBE4",
"h.	c #5383E6",
"i.	c #5082D2",
"j.	c #96C9C5",
"k.	c #BFFAC3",
"l.	c #C2FFC1",
"m.	c #B2FFB1",
"n.	c #8AFF88",
"o.	c #4BFF43",
"p.	c #45FF3C",
"q.	c #5EFF58",
"r.	c #C9FFC8",
"s.	c #E3FFE2",
"t.	c #AAFFA8",
"u.	c #95FF92",
"v.	c #74FF70",
"w.	c #62FF5D",
"x.	c #4DFF46",
"y.	c #67FA64",
"z.	c #71CB8C",
"A.	c #4A849F",
"B.	c #478380",
"C.	c #5CCA6A",
"D.	c #69FA66",
"E.	c #68FF64",
"F.	c #5BFF55",
"G.	c #49FF40",
"H.	c #4CFF44",
"I.	c #5AFF54",
"J.	c #B0FFAE",
"K.	c #ECFFEC",
"L.	c #F5FFF5",
"M.	c #B7FFB6",
"N.	c #90FF8D",
"O.	c #65FA62",
"P.	c #4CD04D",
"Q.	c #47876E",
"R.	c #458077",
"S.	c #59C56A",
"T.	c #68F966",
"U.	c #69FF65",
"V.	c #61FF5B",
"W.	c #89FF86",
"X.	c #BBFFBA",
"Y.	c #E1FFE0",
"Z.	c #F6FFF5",
"`.	c #E4FFE3",
" +	c #ABFDAC",
".+	c #6DE176",
"++	c #549593",
"@+	c #3976BD",
"#+	c #80B3C4",
"$+	c #BBF5C3",
"%+	c #E6FFE6",
"&+	c #ECFFED",
"*+	c #C9F0D6",
"=+	c #80A6DE",
"-+	c #2871F3",
";+	c #819EF8",
">+	c #E2EAF9",
",+	c #F8FEF9",
"'+	c #F2F7FB",
")+	c #ABBCFC",
"!+	c #487CFE",
"~+	c #688DFF",
"{+	c #D1D8FF",
"]+	c #FBFBFF",
"^+	c #F6F8FF",
"/+	c #ABBBFF",
"(+	c #3E77FF",
"_+	c #6389FF",
":+	c #CAD3FF",
"<+	c #FAFAFF",
"[+	c #F4F5FF",
"}+	c #A1B3FF",
"|+	c #3173FF",
"1+	c #2C72FF",
"2+	c #87A0FF",
"3+	c #DEE3FF",
"4+	c #F7F8FF",
"5+	c #FCFDFF",
"6+	c #DAE0FF",
"7+	c #6C8FFF",
"8+	c #136CFF",
"9+	c #0D6CFF",
"0+	c #3374FF",
"a+	c #819CFF",
"b+	c #B9C5FF",
"c+	c #EEF0FF",
"d+	c #F8F9FF",
"e+	c #FEFEFF",
"f+	c #DDE2FF",
"g+	c #8DA4FF",
"h+	c #4079FF",
"i+	c #226FFF",
"j+	c #2B71FF",
"k+	c #3F78FF",
"l+	c #2A71FF",
"m+	c #5381FF",
"n+	c #7594FF",
"o+	c #91A7FF",
"p+	c #BEC9FF",
"q+	c #E7EAFF",
"r+	c #90A7FF",
"s+	c #467BFF",
"t+	c #4B7EFF",
"u+	c #829CFF",
"v+	c #AFBEFF",
"w+	c #B0BEFF",
"x+	c #87A1FF",
"y+	c #5B85FF",
"z+	c #3A76FF",
"A+	c #2871FF",
"B+	c #5683FF",
"C+	c #8DA5FF",
"D+	c #FDFDFF",
"E+	c #E0E5FF",
"F+	c #5080FF",
"G+	c #7493FF",
"H+	c #ACBBFF",
"I+	c #E1E6FF",
"J+	c #E6EAFF",
"K+	c #C3CDFF",
"L+	c #A2B4FF",
"M+	c #92A8FF",
"N+	c #E9ECFF",
"O+	c #AFBDFF",
"P+	c #447AFF",
"Q+	c #7091FF",
"R+	c #EFF2FF",
"S+	c #F9FAFF",
"T+	c #A5B6FF",
"U+	c #5F87FF",
"V+	c #7D9AFF",
"W+	c #D8DFFF",
"X+	c #FBFCFF",
"Y+	c #F6F7FF",
"Z+	c #A7B7FF",
"`+	c #3474FF",
" @	c #9AADFF",
".@	c #EDF0FF",
"+@	c #EAEDFF",
"@@	c #C8D1FF",
"#@	c #CDD5FF",
"$@	c #F0F2FF",
"%@	c #B3C1FF",
"&@	c #FCFCFF",
"*@	c #FAFBFF",
"                              . + +                             ",
"                      . @ # $ % & * =                           ",
"                    @ - ; > , ' ) ! ~ {                         ",
"                  ] ^ / ( _ : < [ } | 1                         ",
"                { 2 3 : < 4 5 6 7 8 5 9 {                       ",
"              . 0 a b 8 c d e f g _ h > i                       ",
"              ] j k l m n @ . @ o p q 3 e .                     ",
"              = r b l s t       # u v 4 w ]                     ",
"              ] w 4 x y z .     # u ( 4 w ]                     ",
"              . * ' h A B & C D E k q F e .                     ",
"                ] G c < ( H I J K : L M $                       ",
"                  @ o / N O P Q q < R S {                       ",
"          T T T     @ U V W X Y Z ` n @    ...+.T               ",
"        @.#.$.%.&.+.T *.=.-.;.>.,.1 + T ..'.).!.~.T             ",
"      @.'.{.].^./.(._.:.<.[.}.|.1...2.3.4.5.6.7.8.+.            ",
"      &.9.0.a.b.c.d.e.f.g.h.i.j.k.l.m.n.c.o.p.q.r.+.            ",
"      @.s.t.u.v.c.w.x.y.z.A.B.C.D.E.F.G.H.I.d.J.K.T             ",
"        @.L._.(./.M.N.O.P.Q.R.S.T.U.b.V.W.X.Y.Z.T               ",
"            T +...2.`. +.+++@+#+$+/./.r.%+&.T                   ",
"                    @.&+*+=+-+;+>+,+..+.T                       ",
"                      T '+)+!+~+{+]+                            ",
"                        ^+/+(+_+:+<+                            ",
"                        [+}+|+1+2+3+4+5+.                       ",
"                      ]+6+7+8+9+0+a+b+6+c+d+e+                  ",
"                    ]+f+g+h+i+j+k+l+m+n+o+p+q+]+                ",
"                  ]+f+r+s+t+u+v+w+x+y+z+A+B+C+6+]+              ",
"                D+E+r+F+G+H+I+4+^+J+K+L+a+m+1+M+N+e+            ",
"                ^+O+P+Q+K+R+D+    e+S+[+I+T+U+V+W+X+            ",
"                Y+Z+`+ @.@e+            5++@@@#@$@e+            ",
"                5+I+%@E+&@                e+*@*@e+              ",
"                  5+d+5+                                        ",
"                                                                "};
