/* XPM */
static char * player2_xpm[] = {
"32 32 234 2",
"  	c #9EFFFF",
". 	c #9DFFFF",
"+ 	c #FFFFE6",
"@ 	c #FFFFD7",
"# 	c #FFFFAB",
"$ 	c #FFFFC0",
"% 	c #FFFFB9",
"& 	c #FFFFCC",
"* 	c #F4F4C3",
"= 	c #F4F4DD",
"- 	c #F4F4CF",
"; 	c #FFFFA2",
"> 	c #FFFF9C",
", 	c #FFFF99",
"' 	c #FFFF97",
") 	c #FFFFB4",
"! 	c #9DFFF1",
"~ 	c #FFFF92",
"{ 	c #FFFF62",
"] 	c #E1E14A",
"^ 	c #B3B339",
"/ 	c #9E8255",
"( 	c #9D6C40",
"_ 	c #9B633B",
": 	c #73554B",
"< 	c #8D725B",
"[ 	c #AA8931",
"} 	c #BDBD2D",
"| 	c #D7D766",
"1 	c #F4F44B",
"2 	c #FFFF31",
"3 	c #FFFF7A",
"4 	c #FFFFE1",
"5 	c #9DFFFE",
"6 	c #9DFFF4",
"7 	c #FFFF67",
"8 	c #E1E125",
"9 	c #ACA534",
"0 	c #995634",
"a 	c #8E3520",
"b 	c #832900",
"c 	c #5F261C",
"d 	c #732912",
"e 	c #9D381E",
"f 	c #A03D20",
"g 	c #9F592F",
"h 	c #A8893C",
"i 	c #E1E147",
"j 	c #FFFF61",
"k 	c #FFFFB3",
"l 	c #FFFFE7",
"m 	c #FFFFBA",
"n 	c #FFFF98",
"o 	c #CBCB4F",
"p 	c #A99544",
"q 	c #974D2D",
"r 	c #614733",
"s 	c #5E5941",
"t 	c #55633F",
"u 	c #5E6C4C",
"v 	c #434D36",
"w 	c #3F3620",
"x 	c #54381D",
"y 	c #583D25",
"z 	c #542818",
"A 	c #70473D",
"B 	c #A9A576",
"C 	c #E1E16F",
"D 	c #FFFF8E",
"E 	c #FFFFD0",
"F 	c #FFFF79",
"G 	c #F4F44C",
"H 	c #A38952",
"I 	c #623026",
"J 	c #4C4327",
"K 	c #329D32",
"L 	c #33D733",
"M 	c #7AEB7A",
"N 	c #57F457",
"O 	c #84CD84",
"P 	c #6BBC6B",
"Q 	c #2CA62C",
"R 	c #3C893C",
"S 	c #606D60",
"T 	c #363636",
"U 	c #78564A",
"V 	c #B3B378",
"W 	c #FFFFAC",
"X 	c #FFFFDC",
"Y 	c #FFFFBE",
"Z 	c #FFFF4D",
"` 	c #E9E946",
" .	c #94593B",
"..	c #1E271E",
"+.	c #246624",
"@.	c #17E117",
"#.	c #2BFF2B",
"$.	c #68CB68",
"%.	c #7EAC7E",
"&.	c #83BA83",
"*.	c #9DE99D",
"=.	c #6DBC71",
"-.	c #74BC74",
";.	c #96AB96",
">.	c #616161",
",.	c #673026",
"'.	c #9D8257",
").	c #F4F4A4",
"!.	c #FFFFC2",
"~.	c #CDCD52",
"{.	c #8E553C",
"].	c #223122",
"^.	c #228722",
"/.	c #1CFF1C",
"(.	c #51FF51",
"_.	c #A8CBA8",
":.	c #727777",
"<.	c #9BACAC",
"[.	c #CBE9E9",
"}.	c #94AAAA",
"|.	c #505858",
"1.	c #ABABAB",
"2.	c #6C6C6C",
"3.	c #622F27",
"4.	c #9F7645",
"5.	c #F4F48F",
"6.	c #BDBD5E",
"7.	c #864735",
"8.	c #304730",
"9.	c #2B9D2B",
"0.	c #47FF47",
"a.	c #9BFF9B",
"b.	c #D8D8D8",
"c.	c #C3CBCB",
"d.	c #B7CBCB",
"e.	c #CCEAEA",
"f.	c #A4BCBC",
"g.	c #ABBCBC",
"h.	c #878787",
"i.	c #494949",
"j.	c #64433D",
"k.	c #A49D7D",
"l.	c #C6C674",
"m.	c #7D4739",
"n.	c #354735",
"o.	c #379137",
"p.	c #8AFF8A",
"q.	c #DDFFDD",
"r.	c #FFFFFF",
"s.	c #FAFFFF",
"t.	c #F5FFFF",
"u.	c #EFFFFF",
"v.	c #F1FFFF",
"w.	c #C6C6C6",
"x.	c #636367",
"y.	c #1B1B1B",
"z.	c #595959",
"A.	c #D7D7D7",
"B.	c #9DFFF9",
"C.	c #E1E1C6",
"D.	c #91897C",
"E.	c #001E00",
"F.	c #546954",
"G.	c #83A583",
"H.	c #D8E1D8",
"I.	c #F4F4F4",
"J.	c #727272",
"K.	c #1F1F1F",
"L.	c #1D1D1D",
"M.	c #898989",
"N.	c #9DF4F4",
"O.	c #BCBCBC",
"P.	c #000000",
"Q.	c #474747",
"R.	c #828282",
"S.	c #9D9D9D",
"T.	c #AEAEAE",
"U.	c #919191",
"V.	c #313131",
"W.	c #252525",
"X.	c #CBCBCB",
"Y.	c #2B2B2B",
"Z.	c #3D3D3D",
"`.	c #4B4B4B",
" +	c #E1E1E1",
".+	c #A5A5A5",
"++	c #787878",
"@+	c #222222",
"#+	c #161616",
"$+	c #B3B3B3",
"%+	c #9DFDFF",
"&+	c #56568C",
"*+	c #000079",
"=+	c #565683",
"-+	c #9DFCFF",
";+	c #6363B7",
">+	c #0000C1",
",+	c #6363A6",
"'+	c #6363B8",
")+	c #0000B8",
"!+	c #6363BD",
"~+	c #6363BC",
"{+	c #0000DC",
"]+	c #6363CD",
"^+	c #AAF9FF",
"/+	c #6363CF",
"(+	c #0000DE",
"_+	c #6363DA",
":+	c #E6F6FF",
"<+	c #6363C4",
"[+	c #6363D3",
"}+	c #C1F8FF",
"|+	c #A0FFFF",
"1+	c #0000CE",
"2+	c #9FFFFF",
"3+	c #A1FFFF",
"4+	c #A2FFFF",
"5+	c #A5FFFF",
"6+	c #A3FFFF",
"7+	c #0000CF",
"8+	c #6363BB",
"9+	c #63639B",
"0+	c #000097",
"a+	c #5F635F",
"b+	c #000D00",
"c+	c #B1FFFF",
"d+	c #ADFFFF",
"e+	c #648964",
"f+	c #002B00",
"g+	c #6D896D",
"h+	c #C8FFFF",
"i+	c #7FBC7F",
"j+	c #59BC59",
"k+	c #96BC96",
"  . . . . . . . . . . . . . . . . . . . . . . . . . . . . . . . ",
". . . . . . . . . . . . . . . . . . . . . . . . . . . . . . . . ",
". . . . . . . . . . . . . . . . . . . . . . . . . . . . . . . . ",
". . . . . . . . . . . . . . . . . . . . . . . . . . . . . . . . ",
". . . . . . . . . . . . . . . . . . . . . . . . . . . . . . . . ",
". . . . . . . . + @ # $ % & * = - ; > > , ' ) ! . . . . . . . . ",
". . . . . . . ! ~ { ] ^ / ( _ : < [ } | 1 2 3 4 . . . . . . . . ",
". . . . . 5 6 @ 7 8 9 0 a b b c d e f g h i j k l . . . . . . . ",
". . . . . 6 m n o p q r s t u v w x y z A B C D 4 . . . . . . . ",
". . . . . E F G H I J K L M N O P Q R S T U V W X . . . . . . . ",
". . . . . Y Z `  ...+.@.#.$.%.&.*.=.-.;.>.,.'.).X . . . . . . . ",
". . . . . !.7 ~.{.].^./.(._.:.<.[.}.|.1.2.3.4.5.4 . . . . . . . ",
". . . . . 4 n 6.7.8.9.0.a.b.c.d.e.f.g.h.i.j.k.* l . . . . . . . ",
". . . . . 6 ) l.m.n.o.p.q.r.s.t.u.v.w.x.y.z.A.. . . . . . . . . ",
". . . . . B.4 C.D.E.F.G.H.r.r.r.I.A.J.K.L.M.N.. . . . . . . . . ",
". . . . . . . . O.M.P.Q.2.R.S.T.U.2.V.W.2.X.. . . . . . . . . . ",
"  . . . . . . . . O.M.Q.P.Y.Z.Z.Z.Y.`.U.w.. . . . . . . . . . . ",
". . . . . . . . . .  +.+++z.@+#+W.R.$+ +. . . . . . . . . . . . ",
". . . . . . . . . . . . N.A.Q.P.`. +. . . . . . . . . . . . . . ",
". . . . . . . . . . . . . %+&+*+=+. . . . . . . . . . . . . . . ",
". . . . . . . . . . . . . -+;+>+,+. . . . . . . . . . . . . . . ",
". . . . . . . . . . . . . -+;+>+,+. . . . . . . . . . . . . . . ",
". . . . . . . . . . . . . %+'+)+!+-+. . . . . . . . . . . . . . ",
". . . . . . . . . . . . . . ~+{+]+^+. . . . . . . . . . . . . . ",
". . . . . . . . . . . . . . /+(+_+:+. . . . . . . . . . . . . . ",
". . . . . . . . . . . . . . <+(+[+}+. . . . . . . . . .   |+  . ",
". . . . . .       . . . . . <+1+/+}+. . . .   2+2+3+4+5+6+|+  . ",
"    . . . . . . . . . . . . ,+7+8+-+. . . . . . . . . . . . . . ",
". . . . . . . . . . . . . . 9+0+,+-+. . . . . . . . . . . . . . ",
". .   . . . . . . . . . . 5 a+b+a+. . . . . . . . . . . . . . . ",
"c+d+|+. . . . . . . . . . 6 e+f+g+. . . . . . . . . . . . . . . ",
"h+6+. . . . . . . . . . . 6 i+j+k+. . . . . . . . . . . . . . . "};
