/* XPM */
static char * playerf1_xpm[] = {
"32 32 477 2",
"  	c #38BDFF",
". 	c #36BCFF",
"+ 	c #37BCFF",
"@ 	c #38BCFF",
"# 	c #39BDFF",
"$ 	c #3ABDFF",
"% 	c #43C1FF",
"& 	c #40BEFF",
"* 	c #57C5FF",
"= 	c #60C8FF",
"- 	c #5DC7FF",
"; 	c #59C6FF",
"> 	c #50C3FF",
", 	c #4CC2FF",
"' 	c #46C0FF",
") 	c #41BFFF",
"! 	c #45C0FF",
"~ 	c #55C8FE",
"{ 	c #FFFFE1",
"] 	c #FFFFE7",
"^ 	c #5AC9FF",
"/ 	c #4DC2FF",
"( 	c #4CC1FF",
"_ 	c #4BC1FF",
": 	c #49C1FF",
"< 	c #44C0FF",
"[ 	c #43BFFF",
"} 	c #42BFFF",
"| 	c #3FBEFF",
"1 	c #3CBDFF",
"2 	c #3DBEFF",
"3 	c #81D7FF",
"4 	c #B3F3FF",
"5 	c #B8F6FF",
"6 	c #B6F5FF",
"7 	c #AFF1FF",
"8 	c #A3EBFF",
"9 	c #96E7FD",
"0 	c #FFFFDD",
"a 	c #FFFFAC",
"b 	c #FFFFB3",
"c 	c #FFFFBE",
"d 	c #FFFFB4",
"e 	c #FFFF96",
"f 	c #FFFFCC",
"g 	c #FFFFBC",
"h 	c #FFFF6E",
"i 	c #B0F5FF",
"j 	c #B2F3FF",
"k 	c #B1F2FF",
"l 	c #ADEFFF",
"m 	c #9BE4FF",
"n 	c #91DFFF",
"o 	c #C0FCFF",
"p 	c #C5FFFF",
"q 	c #C4FFFF",
"r 	c #FEFFD9",
"s 	c #FFFF6C",
"t 	c #FFFF4E",
"u 	c #F4F43E",
"v 	c #CACA88",
"w 	c #B4B47F",
"x 	c #B4B469",
"y 	c #C1C19A",
"z 	c #D7D79E",
"A 	c #E1E15A",
"B 	c #FFFF37",
"C 	c #FFFF8A",
"D 	c #BEFFFD",
"E 	c #C3FEFF",
"F 	c #66CBFF",
"G 	c #A3EAFF",
"H 	c #C3FDFF",
"I 	c #C2FFFE",
"J 	c #FFFF47",
"K 	c #C6C629",
"L 	c #AB912E",
"M 	c #A36933",
"N 	c #8E4E37",
"O 	c #622E26",
"P 	c #663831",
"Q 	c #6A4E47",
"R 	c #74564C",
"S 	c #AAA56B",
"T 	c #E1E15D",
"U 	c #FFFF33",
"V 	c #FFFF7E",
"W 	c #FFFFD7",
"X 	c #C1FFFF",
"Y 	c #5AC6FF",
"Z 	c #ABEEFF",
"` 	c #C3FFFF",
" .	c #FFFF97",
"..	c #FFFF42",
"+.	c #BCBC51",
"@.	c #9F6334",
"#.	c #8E351A",
"$.	c #673100",
"%.	c #4A361A",
"&.	c #203420",
"*.	c #183118",
"=.	c #1B351B",
"-.	c #243D24",
";.	c #4C4733",
">.	c #A38953",
",.	c #E1E14C",
"'.	c #FFFF5A",
").	c #FFFFD2",
"!.	c #5FC8FF",
"~.	c #C3FFFE",
"{.	c #BCBC6A",
"].	c #988964",
"^.	c #392C00",
"/.	c #203819",
"(.	c #194D19",
"_.	c #1C7A1C",
":.	c #297C29",
"<.	c #497C49",
"[.	c #178517",
"}.	c #176317",
"|.	c #223222",
"1.	c #9A472A",
"2.	c #C6C63F",
"3.	c #FFFF61",
"4.	c #FFFFCE",
"5.	c #61C9FF",
"6.	c #E1E184",
"7.	c #99896D",
"8.	c #002C00",
"9.	c #265B26",
"0.	c #1B911B",
"a.	c #1DC61D",
"b.	c #2DFF2D",
"c.	c #70FF70",
"d.	c #96FF96",
"e.	c #8AFF8A",
"f.	c #5AA65A",
"g.	c #2E3D2E",
"h.	c #943D28",
"i.	c #AC9D1F",
"j.	c #FFFF58",
"k.	c #FFFFBA",
"l.	c #BFFFFF",
"m.	c #62C9FF",
"n.	c #FFFFD8",
"o.	c #E1E197",
"p.	c #AAA570",
"q.	c #784738",
"r.	c #275627",
"s.	c #1AA51A",
"t.	c #2DF52D",
"u.	c #52CB52",
"v.	c #77CB7A",
"w.	c #ABD8AB",
"x.	c #D2F0E7",
"y.	c #CDE1E1",
"z.	c #B4B4B4",
"A.	c #535353",
"B.	c #893421",
"C.	c #A98D3D",
"D.	c #FFFF3C",
"E.	c #FFFFBF",
"F.	c #BEFFFF",
"G.	c #FFFFA4",
"H.	c #B3B347",
"I.	c #A1562B",
"J.	c #6B473C",
"K.	c #3E9D3E",
"L.	c #23E123",
"M.	c #64F464",
"N.	c #9EAC9F",
"O.	c #6F7777",
"P.	c #AECBCB",
"Q.	c #BFE1E1",
"R.	c #90A5A5",
"S.	c #8E9090",
"T.	c #4D4D4D",
"U.	c #472D29",
"V.	c #987F5D",
"W.	c #FEFFCD",
"X.	c #FFFF98",
"Y.	c #AA822D",
"Z.	c #97361E",
"`.	c #6E5942",
" +	c #66D766",
".+	c #79FF79",
"++	c #97F497",
"@+	c #BABABA",
"#+	c #A1ACAC",
"$+	c #B4CBCB",
"%+	c #C5E1E1",
"&+	c #96A5A5",
"*+	c #2B2B2B",
"=+	c #7F7F7F",
"-+	c #F3F4C0",
";+	c #8F6C52",
">+	c #702200",
",+	c #656C5D",
"'+	c #84F484",
")+	c #8BFF8B",
"!+	c #E0FEE0",
"~+	c #F4F4F4",
"{+	c #F1F4F4",
"]+	c #F1F5F5",
"^+	c #EDF0F0",
"/+	c #E1E1E1",
"(+	c #8D8D8D",
"_+	c #A8ECFF",
":+	c #3BBDFF",
"<+	c #64CAFF",
"[+	c #C2FEFE",
"}+	c #7C7C7C",
"|+	c #485248",
"1+	c #658A65",
"2+	c #8BBD8B",
"3+	c #D7F4D7",
"4+	c #FFFFFF",
"5+	c #9D9D9D",
"6+	c #474747",
"7+	c #B3B3B3",
"8+	c #C1FCFF",
"9+	c #9CE5FF",
"0+	c #56C5FF",
"a+	c #4FC3FF",
"b+	c #BDC1C1",
"c+	c #898989",
"d+	c #000000",
"e+	c #222222",
"f+	c #3F3F3F",
"g+	c #6C6C6C",
"h+	c #828282",
"i+	c #AEAEAE",
"j+	c #919191",
"k+	c #696969",
"l+	c #C2FFFF",
"m+	c #97E3FF",
"n+	c #53C4FF",
"o+	c #BCBDBD",
"p+	c #636363",
"q+	c #1D1D1D",
"r+	c #434343",
"s+	c #BCBCBC",
"t+	c #D6DADA",
"u+	c #BEDAC2",
"v+	c #BEDCC5",
"w+	c #DEFFE5",
"x+	c #97E2FF",
"y+	c #3CBEFF",
"z+	c #C6C6C6",
"A+	c #727272",
"B+	c #595959",
"C+	c #323232",
"D+	c #2C2C2C",
"E+	c #838383",
"F+	c #303F30",
"G+	c #4A894A",
"H+	c #BCFFBC",
"I+	c #BCFCFC",
"J+	c #D5DBDB",
"K+	c #646464",
"L+	c #272727",
"M+	c #5C5C5C",
"N+	c #B9BDC1",
"O+	c #9B9EA6",
"P+	c #838390",
"Q+	c #59595C",
"R+	c #1A2D1A",
"S+	c #BEFFFE",
"T+	c #B8FFFB",
"U+	c #E5F4E9",
"V+	c #BCFBFA",
"W+	c #BBFCFC",
"X+	c #BDFFFF",
"Y+	c #B2FFFF",
"Z+	c #686868",
"`+	c #4A4A4A",
" @	c #8589B4",
".@	c #5E5EBA",
"+@	c #0000A8",
"@@	c #2B2B57",
"#@	c #5E5E5E",
"$@	c #728272",
"%@	c #9FB6A2",
"&@	c #DFFFE4",
"*@	c #E1FFE1",
"=@	c #84BC84",
"-@	c #608960",
";@	c #556155",
">@	c #757575",
",@	c #7F7F9A",
"'@	c #7F7FB0",
")@	c #7A7A97",
"!@	c #22225D",
"~@	c #000079",
"{@	c #0D0D7A",
"]@	c #2020A4",
"^@	c #1D1DCF",
"/@	c #6C6CBD",
"(@	c #93959F",
"_@	c #CBCFCF",
":@	c #3EBEFF",
"<@	c #C2FDFF",
"[@	c #6EBC6E",
"}@	c #002F00",
"|@	c #272F27",
"1@	c #2B2B7E",
"2@	c #2B2BC3",
"3@	c #27277D",
"4@	c #050579",
"5@	c #0000B8",
"6@	c #0303B8",
"7@	c #2323A6",
"8@	c #6C6CA9",
"9@	c #B1CBD5",
"0@	c #55C4FF",
"a@	c #BFFCFF",
"b@	c #E7FFE7",
"c@	c #96BC96",
"d@	c #779577",
"e@	c #626C62",
"f@	c #616161",
"g@	c #59598D",
"h@	c #5959B5",
"i@	c #4D4D88",
"j@	c #13139D",
"k@	c #0606CF",
"l@	c #2828CF",
"m@	c #8E98BE",
"n@	c #C6CCCC",
"o@	c #52C3FF",
"p@	c #98E3FF",
"q@	c #C0FFFF",
"r@	c #B9FCFC",
"s@	c #E3EBEB",
"t@	c #DBE0E0",
"u@	c #D8DEDF",
"v@	c #B0B6BC",
"w@	c #2E2EB7",
"x@	c #1414D7",
"y@	c #4E4ED7",
"z@	c #D4EDF5",
"A@	c #44BFFF",
"B@	c #1818C0",
"C@	c #0000D9",
"D@	c #2929C9",
"E@	c #91A5CA",
"F@	c #C1DDE2",
"G@	c #CCF8FF",
"H@	c #63C9FF",
"I@	c #797988",
"J@	c #0A0AA8",
"K@	c #0505B3",
"L@	c #1212AE",
"M@	c #4747C4",
"N@	c #8083D1",
"O@	c #9FB3C9",
"P@	c #DEEDF4",
"Q@	c #BCFFFF",
"R@	c #70CFFF",
"S@	c #B9FFFF",
"T@	c #CBCBCB",
"U@	c #626292",
"V@	c #000088",
"W@	c #3F3F90",
"X@	c #6B6B9E",
"Y@	c #4D4DB3",
"Z@	c #0000C5",
"`@	c #6C6CD0",
" #	c #8FA5CD",
".#	c #D3DFE1",
"+#	c #73D0FF",
"@#	c #B4F4FF",
"##	c #BDFAFF",
"$#	c #BEFAFF",
"%#	c #C0FBFF",
"&#	c #C2F2F4",
"*#	c #2B2BAF",
"=#	c #6161CC",
"-#	c #9BB3CD",
";#	c #DDE1E1",
">#	c #A2A5AC",
",#	c #7878B3",
"'#	c #2B2BCC",
")#	c #4D4DCF",
"!#	c #8895C8",
"~#	c #BCCBD1",
"{#	c #BBFFFF",
"]#	c #6FCEFF",
"^#	c #7BD4FF",
"/#	c #7ED5FF",
"(#	c #82D7FF",
"_#	c #8EDDFF",
":#	c #A5EBFF",
"<#	c #ADF5FF",
"[#	c #ABC2D0",
"}#	c #6161BB",
"|#	c #2B2BC9",
"1#	c #828ED3",
"2#	c #C5E7F4",
"3#	c #B8FBFF",
"4#	c #B9FBFF",
"5#	c #BFCBD0",
"6#	c #8C95BC",
"7#	c #4343CC",
"8#	c #2020C4",
"9#	c #6C6C96",
"0#	c #B8FCFF",
"a#	c #BFFBFF",
"b#	c #95E1FF",
"c#	c #52C4FF",
"d#	c #42C0FF",
"e#	c #5FCFFF",
"f#	c #63D0FF",
"g#	c #76D8FB",
"h#	c #888EB6",
"i#	c #2B2BD0",
"j#	c #6161C6",
"k#	c #B0C2CD",
"l#	c #E6F5FF",
"m#	c #7CD6FF",
"n#	c #7DD5FF",
"o#	c #7FD6FF",
"p#	c #CCDEE4",
"q#	c #8A91B8",
"r#	c #2F2F9A",
"s#	c #0B0B6E",
"t#	c #5B5B5B",
"u#	c #ACB1B4",
"v#	c #86DEFF",
"w#	c #88DAFF",
"x#	c #8FDEFF",
"y#	c #90DEFF",
"z#	c #77D2FF",
"A#	c #51C3FF",
"B#	c #41C0FF",
"C#	c #9EB39E",
"D#	c #5F6199",
"E#	c #30309A",
"F#	c #8C95B9",
"G#	c #ADF2F4",
"H#	c #44C1FF",
"I#	c #50C8FF",
"J#	c #D5D6D8",
"K#	c #1C1C1C",
"L#	c #0B1B0B",
"M#	c #505B50",
"N#	c #ACC6B0",
"O#	c #46C3FF",
"P#	c #48C1FF",
"Q#	c #CCFFCC",
"R#	c #64AA64",
"S#	c #425D42",
"T#	c #1F231F",
"U#	c #5ACDFF",
"V#	c #3BBEFF",
"W#	c #4BC5FF",
"X#	c #142814",
"Y#	c #193219",
"Z#	c #4DC6FE",
"`#	c #66CAFF",
" $	c #65CAFF",
".$	c #69CEFF",
"+$	c #BAF4D9",
"@$	c #5DA792",
"#$	c #316478",
"$$	c #486677",
"%$	c #ABB6BF",
"&$	c #65D0FF",
"*$	c #4AC1FF",
"=$	c #48C0FF",
"-$	c #47C0FF",
";$	c #53C7FF",
">$	c #B6C5D3",
",$	c #52797E",
"'$	c #2A5B6B",
")$	c #5D9183",
"!$	c #5ACCFD",
"  . + . . . . + + + @ @ @ + + + . . + + + + + + + @ #   # $ $ + ",
"+ . . . . . . . . . . . . . + % % % % % % + . . . . . . . . . + ",
"+ + & * = - ; > , ' ) & ) ! ~ { { ] { { { ^ / ( _ : < ! [ } | 1 ",
"+ + 2 3 4 5 6 4 7 8 9 0 a b c d e f g h e f i j j k 7 7 l m = } ",
"+ + } n o p p p q r e s t u v w x y z A B C g D q p p p E l F [ ",
"+ + > G H p p I g e J K L M N O P Q R S T U V W X p p p E l F [ ",
"+ + Y Z E p ` W  ...+.@.#.$.%.&.*.=.-.;.>.,.'.).X p p p E l F [ ",
". @ !.l E p ~.a h {.].^./.(._.:.<.[.}.|.1.2.3.4.X p p p E l F [ ",
".   5.l E p I d 6.7.8.9.0.a.b.c.d.e.f.g.h.i.j.k.l.p p p E l F [ ",
"+ # m.l E p n.o.p.q.r.s.t.u.v.w.x.y.z.A.B.C.D.E.F.p p p E l F [ ",
"+ # m.l E q G.H.I.J.K.L.M.N.O.P.Q.R.S.T.U.V.g W.F.p p p E l F [ ",
". # 5.l E q X.Y.Z.`. +.+++@+#+$+%+&+S.T.*+=+` p p p p p E l F [ ",
"+ $ m.l E ` -+;+>+,+'+)+!+~+{+]+^+/+z.A.*+(+` p p p p p H _+m.! ",
"  :+<+l E p [+}+*+|+1+2+3+4+4+4+4+4+5+6+6+7+` p p p p p 8+9+0+a+",
"# 1 <+l E p ` b+c+d+e+f+g+h+5+i+i+j+k+d+c+/+l+p p p p p o m+n+n+",
"$ 1 <+l E p p ` o+p+e+q+d+*+r+r+r+6+d+c+s+4+t+u+v+w+p p o x+n+n+",
":+y+<+l E p p p l+z+5+A+g+B+C+D+C+6+c+z.7+E+6+F+G+H+q p o x+n+n+",
"1 2 <+l E p p ` p q l+l.I+J+K+L+M+N+O+P+Q+d+d+R+G+H+q p o x+n+n+",
"2 2 <+l E S+T+U+V+W+X+F.F.Y+Z+d+`+ @.@+@@@p+#@$@%@&@` p o x+n+n+",
"2 2 <+l E *@=@-@;@>@,@'@'@)@!@~@{@]@^@/@(@_@l+q p p p p o x+n+n+",
"| :@= _+<@*@[@}@|@*+1@2@2@3@4@5@6@7@8@9@l.X p p p p p p o x+n+n+",
"[ < 0@9+a@b@c@d@e@f@g@h@h@i@j@k@l@m@n@X p p p p p p p p o x+n+n+",
"! ' o@p@o X q@q@r@s@t@u@u@v@w@x@y@z@p p p p p p p p p p o x+n+n+",
"A@< 0@9+8+p p p p p p p F.O+B@C@D@E@F@G@q@p p p p p p p o x+n+n+",
") 2 H@Z E p p p p p p p F.I@J@K@L@M@N@O@P@Q@q p p p p p o x+n+n+",
"2 # R@5 p p p p p p X S@T@U@V@W@X@Y@Z@`@ #.#F.p p p p p o x+n+n+",
"  $ +#@#####$#%#8+E S@&#(@*#=#-#;#>#,#'#)#!#~#{#p p p p o x+n+n+",
". + / ]#^#/#(#_#x+:#<#[#}#|#1#2#3#4#5#6#7#8#9#7+0#a#%#8+##b#c#n+",
". . + @ :+:+1 d#e#f#g#h#i#j#k#l#m#n#o#p#q#r#s#t#u#v#w#x#y#z#( A#",
". . + @ + + + B#b@3+C#D#E#F#G#H#+ @ @ I#J#A+K#L#M#N#O#$ :+:+$ P#",
". . + + + + + H#Q#R#S#T#h+T@U#V#. . . . W#J##@X#Y#-@Z#. . . . & ",
"- ' * <+`# $ $.$+$@$#$$$%$&$/ _ *$=$-$-$-$;$>$,$'$)$!$} :@$ $ / "};
