/* XPM */
static char * player3_xpm[] = {
"32 32 328 2",
"  	c #91FFFF",
". 	c #D4FFFF",
"+ 	c #C0FFFF",
"@ 	c #ADFFFF",
"# 	c #9FFFF9",
"$ 	c #FFFFE1",
"% 	c #FFFFE7",
"& 	c #FAFFE9",
"* 	c #DCFFFF",
"= 	c #C6FFF8",
"- 	c #FFFFDD",
"; 	c #FFFFAC",
"> 	c #FFFFB3",
", 	c #FFFFBE",
"' 	c #FFFFB4",
") 	c #FFFF96",
"! 	c #FFFFCC",
"~ 	c #FFFFBC",
"{ 	c #FFFF6E",
"] 	c #FFFFCE",
"^ 	c #E5FFFF",
"/ 	c #E3FFFF",
"( 	c #9EFFFF",
"_ 	c #FFFFD8",
": 	c #FFFF6C",
"< 	c #FFFF4E",
"[ 	c #F4F43E",
"} 	c #CACA88",
"| 	c #B4B47F",
"1 	c #B4B469",
"2 	c #C1C19A",
"3 	c #D7D79E",
"4 	c #E1E15A",
"5 	c #FFFF37",
"6 	c #FFFF8A",
"7 	c #D4FFF9",
"8 	c #A1FFF4",
"9 	c #FFFF47",
"0 	c #C6C629",
"a 	c #AB912E",
"b 	c #A36933",
"c 	c #8E4E37",
"d 	c #622E26",
"e 	c #663831",
"f 	c #6A4E47",
"g 	c #74564C",
"h 	c #AAA56B",
"i 	c #E1E15D",
"j 	c #FFFF33",
"k 	c #FFFF7E",
"l 	c #FFFFD7",
"m 	c #92FFFF",
"n 	c #CDFFFB",
"o 	c #FFFF97",
"p 	c #FFFF42",
"q 	c #BCBC51",
"r 	c #9F6334",
"s 	c #8E351A",
"t 	c #673100",
"u 	c #4A361A",
"v 	c #203420",
"w 	c #183118",
"x 	c #1B351B",
"y 	c #243D24",
"z 	c #4C4733",
"A 	c #A38953",
"B 	c #E1E14C",
"C 	c #FFFF5A",
"D 	c #FFFFD2",
"E 	c #D0FFFF",
"F 	c #A4FFF5",
"G 	c #BCBC6A",
"H 	c #988964",
"I 	c #392C00",
"J 	c #203819",
"K 	c #194D19",
"L 	c #1C7A1C",
"M 	c #297C29",
"N 	c #497C49",
"O 	c #178517",
"P 	c #176317",
"Q 	c #223222",
"R 	c #9A472A",
"S 	c #C6C63F",
"T 	c #FFFF61",
"U 	c #C9FFFF",
"V 	c #9DFFF4",
"W 	c #E1E184",
"X 	c #99896D",
"Y 	c #002C00",
"Z 	c #265B26",
"` 	c #1B911B",
" .	c #1DC61D",
"..	c #2DFF2D",
"+.	c #70FF70",
"@.	c #96FF96",
"#.	c #8AFF8A",
"$.	c #5AA65A",
"%.	c #2E3D2E",
"&.	c #943D28",
"*.	c #AC9D1F",
"=.	c #FFFF58",
"-.	c #FFFFBA",
";.	c #CAFFFF",
">.	c #95FFFF",
",.	c #E7FFFF",
"'.	c #E1E197",
").	c #AAA570",
"!.	c #784738",
"~.	c #275627",
"{.	c #1AA51A",
"].	c #2DF52D",
"^.	c #52CB52",
"/.	c #77CB7A",
"(.	c #ABD8AB",
"_.	c #D2F0E7",
":.	c #CDE1E1",
"<.	c #B4B4B4",
"[.	c #535353",
"}.	c #893421",
"|.	c #A98D3D",
"1.	c #FFFF3C",
"2.	c #FFFFBF",
"3.	c #D7FFFF",
"4.	c #93FFFF",
"5.	c #D0FFF9",
"6.	c #FFFFA4",
"7.	c #B3B347",
"8.	c #A1562B",
"9.	c #6B473C",
"0.	c #3E9D3E",
"a.	c #23E123",
"b.	c #64F464",
"c.	c #9EAC9F",
"d.	c #6F7777",
"e.	c #AECBCB",
"f.	c #BFE1E1",
"g.	c #90A5A5",
"h.	c #8E9090",
"i.	c #4D4D4D",
"j.	c #472D29",
"k.	c #987F5D",
"l.	c #B9FFF7",
"m.	c #FFFF98",
"n.	c #AA822D",
"o.	c #97361E",
"p.	c #6E5942",
"q.	c #66D766",
"r.	c #79FF79",
"s.	c #97F497",
"t.	c #BABABA",
"u.	c #A1ACAC",
"v.	c #B4CBCB",
"w.	c #C5E1E1",
"x.	c #96A5A5",
"y.	c #2B2B2B",
"z.	c #7F7F7F",
"A.	c #9DFFFF",
"B.	c #AEFFFF",
"C.	c #94FFFF",
"D.	c #F4F4BF",
"E.	c #8F6C52",
"F.	c #702200",
"G.	c #656C5D",
"H.	c #84F484",
"I.	c #8BFF8B",
"J.	c #E0FEE0",
"K.	c #F4F4F4",
"L.	c #F1F4F4",
"M.	c #F1F5F5",
"N.	c #EDF0F0",
"O.	c #E1E1E1",
"P.	c #8D8D8D",
"Q.	c #DFFFFF",
"R.	c #9BFFFF",
"S.	c #B9FFFF",
"T.	c #9DF4F4",
"U.	c #7C7C7C",
"V.	c #485248",
"W.	c #658A65",
"X.	c #8BBD8B",
"Y.	c #D7F4D7",
"Z.	c #FFFFFF",
"`.	c #9D9D9D",
" +	c #474747",
".+	c #B3B3B3",
"++	c #B7FFFF",
"@+	c #99FFFF",
"#+	c #BCBCBC",
"$+	c #898989",
"%+	c #000000",
"&+	c #222222",
"*+	c #3F3F3F",
"=+	c #6C6C6C",
"-+	c #828282",
";+	c #AEAEAE",
">+	c #919191",
",+	c #696969",
"'+	c #E4E4E4",
")+	c #96FFFF",
"!+	c #B6FFFF",
"~+	c #636363",
"{+	c #1D1D1D",
"]+	c #434343",
"^+	c #CACACA",
"/+	c #A4FFFF",
"(+	c #98FFFF",
"_+	c #CFFFFF",
":+	c #9FFFFF",
"<+	c #C6C6C6",
"[+	c #727272",
"}+	c #252525",
"|+	c #2F2F2F",
"1+	c #707070",
"2+	c #CBCBCB",
"3+	c #91F0F0",
"4+	c #9AFFFF",
"5+	c #97FFFF",
"6+	c #D5FFFF",
"7+	c #C5FFFF",
"8+	c #B6F6F6",
"9+	c #C9C9C9",
"0+	c #787878",
"a+	c #868686",
"b+	c #D1D1D1",
"c+	c #D4D4D4",
"d+	c #999999",
"e+	c #5B5B5B",
"f+	c #717171",
"g+	c #2D2D2D",
"h+	c #3A3A3A",
"i+	c #939393",
"j+	c #91F5F5",
"k+	c #1C1C1C",
"l+	c #151540",
"m+	c #0B0B56",
"n+	c #060655",
"o+	c #383850",
"p+	c #BDBDBD",
"q+	c #A5A5A5",
"r+	c #313131",
"s+	c #101010",
"t+	c #383861",
"u+	c #121283",
"v+	c #010183",
"w+	c #5F5F5F",
"x+	c #AAAAAA",
"y+	c #91F4D0",
"z+	c #78B678",
"A+	c #00A400",
"B+	c #50525E",
"C+	c #4C5D8D",
"D+	c #101094",
"E+	c #020291",
"F+	c #030355",
"G+	c #090909",
"H+	c #5E5E5E",
"I+	c #7CE07C",
"J+	c #3EA93E",
"K+	c #8F9296",
"L+	c #4B5B8F",
"M+	c #06069E",
"N+	c #020280",
"O+	c #24244E",
"P+	c #2C2C2C",
"Q+	c #63A563",
"R+	c #ACCCB2",
"S+	c #91FFDF",
"T+	c #A8CFAF",
"U+	c #C3C4CB",
"V+	c #47518B",
"W+	c #000090",
"X+	c #05058D",
"Y+	c #535871",
"Z+	c #63B063",
"`+	c #96DDA3",
" @	c #91FFD7",
".@	c #454667",
"+@	c #05058A",
"@@	c #09098A",
"#@	c #6F7785",
"$@	c #9BC5A3",
"%@	c #B7E1BE",
"&@	c #8CEBF4",
"*@	c #74777D",
"=@	c #1F1F7F",
"-@	c #0C0C85",
";@	c #181885",
">@	c #717883",
",@	c #91FFF8",
"'@	c #949FC2",
")@	c #464E88",
"!@	c #0E0E8F",
"~@	c #1F1F9B",
"{@	c #1F1F78",
"]@	c #6F6F6F",
"^@	c #E7E7E7",
"/@	c #627490",
"(@	c #1B1B9B",
"_@	c #3E3E91",
":@	c #464D88",
"<@	c #202078",
"[@	c #3C3C3C",
"}@	c #91F4F4",
"|@	c #2D2D70",
"1@	c #0E0E6B",
"2@	c #464A7D",
"3@	c #A4A6AB",
"4@	c #696C73",
"5@	c #151515",
"6@	c #595959",
"7@	c #C8D9CB",
"8@	c #6CB26C",
"9@	c #13A513",
"0@	c #007800",
"a@	c #9AF4F4",
"b@	c #008500",
"c@	c #83B083",
"d@	c #91F4D7",
"e@	c #91FFF9",
"f@	c #61CA61",
"g@	c #43C743",
"h@	c #7D9E7D",
"i@	c #B8B8B8",
"j@	c #959595",
"k@	c #3E9B3E",
"l@	c #7CD27C",
"m@	c #91F4C9",
"                                                                ",
"                                                                ",
"                        . + @ # $ $ % $ $ &                     ",
"                    * = - ; > , ' ) ! ~ { ) ] ^                 ",
"                / ( _ ) : < [ } | 1 2 3 4 5 6 ~ 7               ",
"                8 ~ ) 9 0 a b c d e f g h i j k l               ",
"  m           n l o p q r s t u v w x y z A B C D E             ",
"  m           F ; { G H I J K L M N O P Q R S T ] U             ",
"  m         m V ' W X Y Z `  ...+.@.#.$.%.&.*.=.-.;.        >.( ",
"            ,._ '.).!.~.{.].^./.(._.:.<.[.}.|.1.2.3.        4.>.",
"            5.6.7.8.9.0.a.b.c.d.e.f.g.h.i.j.k.~ !               ",
"            l.m.n.o.p.q.r.s.t.u.v.w.x.h.i.y.z.A.B.C.4.m m       ",
"            l.D.E.F.G.H.I.J.K.L.M.N.O.<.[.y.P.A.Q.C.>.m     m 4.",
"          R.S.T.U.y.V.W.X.Y.Z.Z.Z.Z.Z.`. + +.+++            m   ",
"          @+U T.#+$+%+&+*+=+-+`.;+;+>+,+%+$+'+                  ",
"          C.)+!+A.#+~+&+{+%+y.]+]+]+ +%+$+^+              4.R./+",
"        m (+)+m _+:+<+`.[+=+[.y.}+|+1+2+3+            4.>.4+5+)+",
"        m   m >.)+@+6+7+++8+9+0+a+b+                  m m       ",
"          m 4.4.    m     c+d+e+f+<+                            ",
"          (+)+C.m       <+z.g+{+h+i+j+                          ",
"                      O.~+k+l+m+n+o+p+                          ",
"m                     q+r+s+t+u+v+n+w+x+                        ",
"                    y+z+A+B+C+D+E+F+G+H+q+O.O.                  ",
"          4.C.4.    y+I+J+K+L+M+N+O+P+%+~+Q+R+S+                ",
"4.    m C.4.        y+T+T+U+V+W+X+Y+`.[+%+Z+`+ @              4.",
"(+                        <+.@+@@@#@  #+q+$@%@ @              (+",
"                        &@*@=@-@;@>@      ,@,@,@                ",
"                        '@)@!@~@{@]@O.                          ",
"                      ^@/@(@_@:@<@[@$+}@                        ",
"                    }@q+|@1@2@3@4@5@6@.+                        ",
"                    7@8@9@0@0+a@.+H+b@c@d@e@                    ",
"                    7@f@g@h@i@A.5+j@k@l@m@,@                    "};
