/* XPM */
static char * wall2_xpm[] = {
"32 32 785 2",
"  	c #B30303",
". 	c #B40303",
"+ 	c #B50303",
"@ 	c #BC0606",
"# 	c #C60A0A",
"$ 	c #D01616",
"% 	c #D82323",
"& 	c #D42222",
"* 	c #D22121",
"= 	c #DC2727",
"- 	c #DF2828",
"; 	c #DF2C2C",
"> 	c #DF3737",
", 	c #DC2A2A",
"' 	c #D02020",
") 	c #CA1B1B",
"! 	c #C71919",
"~ 	c #C51616",
"{ 	c #C41515",
"] 	c #C41616",
"^ 	c #C21414",
"/ 	c #BC0E0E",
"( 	c #B80909",
"_ 	c #B90B0B",
": 	c #B60808",
"< 	c #B51010",
"[ 	c #B40606",
"} 	c #BA0B0B",
"| 	c #CD2323",
"1 	c #E33A3A",
"2 	c #EF4343",
"3 	c #F75555",
"4 	c #FA6C6C",
"5 	c #FA7373",
"6 	c #F97474",
"7 	c #FB7171",
"8 	c #FC7373",
"9 	c #FC6969",
"0 	c #FC5656",
"a 	c #FB6262",
"b 	c #FA6F6F",
"c 	c #F97373",
"d 	c #F67171",
"e 	c #F26C6C",
"f 	c #F36060",
"g 	c #F04343",
"h 	c #ED4242",
"i 	c #EA5353",
"j 	c #EC5050",
"k 	c #ED5252",
"l 	c #EA5F5F",
"m 	c #DF5858",
"n 	c #D74F4F",
"o 	c #D64B4B",
"p 	c #C12323",
"q 	c #B40505",
"r 	c #C41A1A",
"s 	c #EC7C7C",
"t 	c #FBA4A4",
"u 	c #FE6E6E",
"v 	c #FF6363",
"w 	c #FFAEAE",
"x 	c #FFD9D9",
"y 	c #FFDEDE",
"z 	c #FFC0C0",
"A 	c #FF9B9B",
"B 	c #FFAFAF",
"C 	c #FF8989",
"D 	c #FF5050",
"E 	c #FF6868",
"F 	c #FFB6B6",
"G 	c #FFDADA",
"H 	c #FED4D4",
"I 	c #FE9090",
"J 	c #FC3232",
"K 	c #EF3333",
"L 	c #DD5656",
"M 	c #EB4646",
"N 	c #FA6969",
"O 	c #FDB9B9",
"P 	c #FCD5D5",
"Q 	c #FAD5D5",
"R 	c #F8BDBD",
"S 	c #E25A5A",
"T 	c #BE1111",
"U 	c #B40404",
"V 	c #CA1616",
"W 	c #F68080",
"X 	c #FF7474",
"Y 	c #FF2A2A",
"Z 	c #FF4A4A",
"` 	c #FFBBBB",
" .	c #FFF7F7",
"..	c #FFF5F5",
"+.	c #FFCECE",
"@.	c #FF7D7D",
"#.	c #FE3434",
"$.	c #FC5858",
"%.	c #FE3535",
"&.	c #FF1818",
"*.	c #FF2F2F",
"=.	c #FFACAC",
"-.	c #FFFAFA",
";.	c #FFE1E1",
">.	c #FE8585",
",.	c #F23030",
"'.	c #CF3A3A",
").	c #BA1E1E",
"!.	c #D11A1A",
"~.	c #F58484",
"{.	c #FEE6E6",
"].	c #FFFCFC",
"^.	c #FEDBDB",
"/.	c #EF6969",
"(.	c #C51717",
"_.	c #B60909",
":.	c #D02222",
"<.	c #F95959",
"[.	c #FF3434",
"}.	c #FF4141",
"|.	c #FF9292",
"1.	c #FFE4E4",
"2.	c #FFC2C2",
"3.	c #FF5D5D",
"4.	c #FC2626",
"5.	c #EF3E3E",
"6.	c #E11414",
"7.	c #F31F1F",
"8.	c #FE3636",
"9.	c #FF8181",
"0.	c #FFDCDC",
"a.	c #FFFBFB",
"b.	c #FFEAEA",
"c.	c #FFAAAA",
"d.	c #F95A5A",
"e.	c #D93030",
"f.	c #B91919",
"g.	c #B91010",
"h.	c #F8C3C3",
"i.	c #FFF8F8",
"j.	c #FFFEFE",
"k.	c #FED8D8",
"l.	c #EE6868",
"m.	c #C41717",
"n.	c #B70D0D",
"o.	c #D42020",
"p.	c #FA2E2E",
"q.	c #FF1D1D",
"r.	c #FF6E6E",
"s.	c #FFD1D1",
"t.	c #FF6161",
"u.	c #FC1A1A",
"v.	c #EA2424",
"w.	c #C92828",
"x.	c #BD0909",
"y.	c #DF2E2E",
"z.	c #FB9494",
"A.	c #FFF6F6",
"B.	c #FFBCBC",
"C.	c #FC5959",
"D.	c #E43E3E",
"E.	c #BE1C1C",
"F.	c #B81B1B",
"G.	c #DD9090",
"H.	c #FBECEC",
"I.	c #FFFDFD",
"J.	c #FFEBEB",
"K.	c #FFBFBF",
"L.	c #FEA6A6",
"M.	c #EE6161",
"N.	c #BA1313",
"O.	c #DC2222",
"P.	c #FB4E4E",
"Q.	c #FFC8C8",
"R.	c #FFF4F4",
"S.	c #FE8181",
"T.	c #F92929",
"U.	c #E92626",
"V.	c #C62828",
"W.	c #B60A0A",
"X.	c #E97171",
"Y.	c #FDDFDF",
"Z.	c #FFD6D6",
"`.	c #FD7575",
" +	c #EA2121",
".+	c #C11717",
"++	c #B91212",
"@+	c #D16D6D",
"#+	c #F2DADA",
"$+	c #FEFCFC",
"%+	c #FFA6A6",
"&+	c #FF3C3C",
"*+	c #FE3A3A",
"=+	c #ED4848",
"-+	c #BC1818",
";+	c #DF3535",
">+	c #FC9999",
",+	c #FFDFDF",
"'+	c #FFEEEE",
")+	c #FFD4D4",
"!+	c #FD9D9D",
"~+	c #F04949",
"{+	c #D71717",
"]+	c #C32222",
"^+	c #B60C0C",
"/+	c #C62C2C",
"(+	c #E57575",
"_+	c #F9D1D1",
":+	c #FE8484",
"<+	c #F52929",
"[+	c #D11F1F",
"}+	c #B60404",
"|+	c #B50404",
"1+	c #CB4949",
"2+	c #F2CFCF",
"3+	c #FEFBFB",
"4+	c #FFCFCF",
"5+	c #FE5252",
"6+	c #FD1313",
"7+	c #FC1717",
"8+	c #EA2F2F",
"9+	c #C21111",
"0+	c #BC1A1A",
"a+	c #DF4040",
"b+	c #FCB5B5",
"c+	c #FFE9E9",
"d+	c #FFC6C6",
"e+	c #FD7979",
"f+	c #F04A4A",
"g+	c #CC4848",
"h+	c #B71515",
"i+	c #B50A0A",
"j+	c #C62121",
"k+	c #E98181",
"l+	c #FBDDDD",
"m+	c #FFDDDD",
"n+	c #FE9393",
"o+	c #F44242",
"p+	c #DB2525",
"q+	c #C40C0C",
"r+	c #BC0A0A",
"s+	c #C93C3C",
"t+	c #ECB7B7",
"u+	c #FDF8F8",
"v+	c #FFF9F9",
"w+	c #FFD2D2",
"x+	c #FD6767",
"y+	c #F41919",
"z+	c #EA0E0E",
"A+	c #F32222",
"B+	c #E11E1E",
"C+	c #BD0A0A",
"D+	c #BC1919",
"E+	c #DF3D3D",
"F+	c #FC9E9E",
"G+	c #FEACAC",
"H+	c #FA7171",
"I+	c #EC4141",
"J+	c #CE4545",
"K+	c #B92E2E",
"L+	c #B40B0B",
"M+	c #C11D1D",
"N+	c #E87777",
"O+	c #FCD9D9",
"P+	c #FF8E8E",
"Q+	c #F84A4A",
"R+	c #DD4141",
"S+	c #BF0E0E",
"T+	c #BA0909",
"U+	c #D14646",
"V+	c #F0BBBB",
"W+	c #FDF5F5",
"X+	c #FE7070",
"Y+	c #F31A1A",
"Z+	c #D30808",
"`+	c #C20909",
" @	c #DD1E1E",
".@	c #D81313",
"+@	c #B80606",
"@@	c #BC1616",
"#@	c #DF2929",
"$@	c #F94B4B",
"%@	c #EE4747",
"&@	c #D73131",
"*@	c #C53F3F",
"=@	c #B92D2D",
"-@	c #BC2929",
";@	c #C81818",
">@	c #E76E6E",
",@	c #FCD6D6",
"'@	c #FE9494",
")@	c #FA4949",
"!@	c #E84343",
"~@	c #C83C3C",
"{@	c #C12525",
"]@	c #D15353",
"^@	c #EFBCBC",
"/@	c #FE7878",
"(@	c #F92626",
"_@	c #DD1111",
":@	c #BA0707",
"<@	c #B80B0B",
"[@	c #D51414",
"}@	c #CF1D1D",
"|@	c #B50505",
"1@	c #DC1313",
"2@	c #E31818",
"3@	c #C21E1E",
"4@	c #B61919",
"5@	c #B41616",
"6@	c #C13030",
"7@	c #DA3A3A",
"8@	c #F07C7C",
"9@	c #FCD4D4",
"0@	c #FFF0F0",
"a@	c #FFCCCC",
"b@	c #F64A4A",
"c@	c #E14A4A",
"d@	c #CF2D2D",
"e@	c #BD2424",
"f@	c #D37272",
"g@	c #F1CDCD",
"h@	c #FDF7F7",
"i@	c #FFD7D7",
"j@	c #FE8282",
"k@	c #F43131",
"l@	c #E01616",
"m@	c #C90E0E",
"n@	c #B50707",
"o@	c #C61919",
"p@	c #E74646",
"q@	c #D02D2D",
"r@	c #B50808",
"s@	c #BB0B0B",
"t@	c #CB1313",
"u@	c #BC1E1E",
"v@	c #B30707",
"w@	c #B40909",
"x@	c #BF2A2A",
"y@	c #E34040",
"z@	c #F88C8C",
"A@	c #FEDADA",
"B@	c #FFE0E0",
"C@	c #FFA7A7",
"D@	c #FE6C6C",
"E@	c #F92F2F",
"F@	c #E04545",
"G@	c #C02121",
"H@	c #C11B1B",
"I@	c #D36363",
"J@	c #EFCCCC",
"K@	c #FE8080",
"L@	c #F53030",
"M@	c #C21212",
"N@	c #CF2727",
"O@	c #EB4E4E",
"P@	c #F79191",
"Q@	c #D24141",
"R@	c #B90F0F",
"S@	c #B30909",
"T@	c #C00C0C",
"U@	c #E53D3D",
"V@	c #FB9898",
"W@	c #FFDBDB",
"X@	c #FD3939",
"Y@	c #F43535",
"Z@	c #DF4B4B",
"`@	c #C93131",
" #	c #B90A0A",
".#	c #C84343",
"+#	c #EBBCBC",
"@#	c #FCF6F6",
"##	c #FB3535",
"$#	c #E15353",
"%#	c #BF2020",
"&#	c #B90404",
"*#	c #D01C1C",
"=#	c #F05454",
"-#	c #FDA7A7",
";#	c #F9C3C3",
">#	c #D24949",
",#	c #B60707",
"'#	c #B80F0F",
")#	c #B70E0E",
"!#	c #C72222",
"~#	c #E92828",
"{#	c #FC8080",
"]#	c #FD8C8C",
"^#	c #F93232",
"/#	c #F01A1A",
"(#	c #D62929",
"_#	c #BE1D1D",
":#	c #CA4343",
"<#	c #E7B0B0",
"[#	c #FAF1F1",
"}#	c #FF8282",
"|#	c #EA6060",
"1#	c #BA0A0A",
"2#	c #CB0B0B",
"3#	c #ED3939",
"4#	c #FDA3A3",
"5#	c #FFE6E6",
"6#	c #F9D3D3",
"7#	c #D72525",
"8#	c #EF4D4D",
"9#	c #FD8E8E",
"0#	c #FDD2D2",
"a#	c #F78484",
"b#	c #E64141",
"c#	c #D13535",
"d#	c #C61C1C",
"e#	c #BE0B0B",
"f#	c #C84141",
"g#	c #FBF1F1",
"h#	c #FFE3E3",
"i#	c #FE9999",
"j#	c #F93838",
"k#	c #E65F5F",
"l#	c #C94141",
"m#	c #B60606",
"n#	c #CA0D0D",
"o#	c #EC2F2F",
"p#	c #FD9090",
"q#	c #F7D1D1",
"r#	c #DC2525",
"s#	c #F85D5D",
"t#	c #FDD4D4",
"u#	c #F79797",
"v#	c #EB6060",
"w#	c #D82222",
"x#	c #BE2626",
"y#	c #B50C0C",
"z#	c #BC0D0D",
"A#	c #D44F4F",
"B#	c #ECBABA",
"C#	c #FAEFEF",
"D#	c #FFC7C7",
"E#	c #FE9595",
"F#	c #F76969",
"G#	c #E26262",
"H#	c #C53838",
"I#	c #BB0C0C",
"J#	c #CA0808",
"K#	c #EB3838",
"L#	c #FFE5E5",
"M#	c #FDFAFA",
"N#	c #F0C4C4",
"O#	c #C73A3A",
"P#	c #DE5656",
"Q#	c #FBBBBB",
"R#	c #FDDADA",
"S#	c #F5C2C2",
"T#	c #D21D1D",
"U#	c #C40D0D",
"V#	c #BB1919",
"W#	c #B60E0E",
"X#	c #C12929",
"Y#	c #DC6F6F",
"Z#	c #F3C6C6",
"`#	c #FDF3F3",
" $	c #FDB6B6",
".$	c #F86363",
"+$	c #EF3C3C",
"@$	c #DA3C3C",
"#$	c #C32828",
"$$	c #B90707",
"%$	c #CB0808",
"&$	c #EC3B3B",
"*$	c #FCAEAE",
"=$	c #F1D2D2",
"-$	c #DC8A8A",
";$	c #C22D2D",
">$	c #BA0C0C",
",$	c #D96969",
"'$	c #F2B8B8",
")$	c #E57D7D",
"!$	c #CA3D3D",
"~$	c #C01919",
"{$	c #B70606",
"]$	c #B70808",
"^$	c #BD1515",
"/$	c #CA2323",
"($	c #D45353",
"_$	c #EBACAC",
":$	c #FAE4E4",
"<$	c #FEF3F3",
"[$	c #FDD5D5",
"}$	c #F78989",
"|$	c #E64A4A",
"1$	c #CE2323",
"2$	c #C12222",
"3$	c #BB1010",
"4$	c #C50707",
"5$	c #E73C3C",
"6$	c #FCB6B6",
"7$	c #FDF6F6",
"8$	c #EBB3B3",
"9$	c #C84A4A",
"0$	c #BB2222",
"a$	c #B91515",
"b$	c #C74141",
"c$	c #C73939",
"d$	c #BD0E0E",
"e$	c #C11212",
"f$	c #D00C0C",
"g$	c #E03434",
"h$	c #F28888",
"i$	c #F9D4D4",
"j$	c #FDF4F4",
"k$	c #FDECEC",
"l$	c #F5BCBC",
"m$	c #E76161",
"n$	c #D31C1C",
"o$	c #BF0909",
"p$	c #CD0B0B",
"q$	c #E84747",
"r$	c #FABABA",
"s$	c #FFFFFF",
"t$	c #F5B9B9",
"u$	c #D03535",
"v$	c #BD1818",
"w$	c #B70707",
"x$	c #BB1313",
"y$	c #B70F0F",
"z$	c #C72F2F",
"A$	c #E63030",
"B$	c #F64141",
"C$	c #FC9494",
"D$	c #FEDFDF",
"E$	c #FDF0F0",
"F$	c #F7D7D7",
"G$	c #E69191",
"H$	c #C93535",
"I$	c #BC0909",
"J$	c #B60505",
"K$	c #B90505",
"L$	c #C10505",
"M$	c #D91010",
"N$	c #F25151",
"O$	c #FCC3C3",
"P$	c #EEAFAF",
"Q$	c #D63737",
"R$	c #C70707",
"S$	c #B70303",
"T$	c #C40909",
"U$	c #CA2626",
"V$	c #BA0606",
"W$	c #BA0E0E",
"X$	c #C42222",
"Y$	c #D73333",
"Z$	c #EF3F3F",
"`$	c #FC8585",
" %	c #FFBABA",
".%	c #E79797",
"+%	c #CB4747",
"@%	c #BD1919",
"#%	c #DC0E0E",
"$%	c #EF3D3D",
"%%	c #FA8686",
"&%	c #FED1D1",
"*%	c #FDFBFB",
"=%	c #F9E9E9",
"-%	c #EEACAC",
";%	c #CE3333",
">%	c #BF0404",
",%	c #D20808",
"'%	c #E91B1B",
")%	c #DA3838",
"!%	c #BC0B0B",
"~%	c #D22D2D",
"{%	c #E13535",
"]%	c #F02424",
"^%	c #FA5151",
"/%	c #FFCBCB",
"(%	c #F8A8A8",
"_%	c #E76060",
":%	c #C01B1B",
"<%	c #B70404",
"[%	c #C20505",
"}%	c #CC0707",
"|%	c #E71616",
"1%	c #FA5A5A",
"2%	c #FEC2C2",
"3%	c #FFEFEF",
"4%	c #FDF9F9",
"5%	c #F8EDED",
"6%	c #EABCBC",
"7%	c #D26666",
"8%	c #C61F1F",
"9%	c #BD0505",
"0%	c #BC0404",
"a%	c #F21A1A",
"b%	c #FA6A6A",
"c%	c #DF5353",
"d%	c #BC0808",
"e%	c #C40B0B",
"f%	c #ED4A4A",
"g%	c #FB6767",
"h%	c #FE8888",
"i%	c #FFB3B3",
"j%	c #FDC1C1",
"k%	c #F7A4A4",
"l%	c #E86363",
"m%	c #D12828",
"n%	c #C20D0D",
"o%	c #C20606",
"p%	c #DA0B0B",
"q%	c #EF1515",
"r%	c #F84646",
"s%	c #FD9191",
"t%	c #FEF7F7",
"u%	c #FBF5F5",
"v%	c #EBCBCB",
"w%	c #D17272",
"x%	c #BF2121",
"y%	c #D50909",
"z%	c #F21414",
"A%	c #FD6565",
"B%	c #FCBBBB",
"C%	c #DF5B5B",
"D%	c #CA1717",
"E%	c #F66D6D",
"F%	c #FDC7C7",
"G%	c #F8A3A3",
"H%	c #EA5A5A",
"I%	c #CE1B1B",
"J%	c #BC0505",
"K%	c #D70C0C",
"L%	c #EE1E1E",
"M%	c #FA5555",
"N%	c #FE8989",
"O%	c #FEF0F0",
"P%	c #F9F1F1",
"Q%	c #F0DDDD",
"R%	c #E1A3A3",
"S%	c #C23939",
"T%	c #DC0A0A",
"U%	c #FD8080",
"V%	c #DF5959",
"W%	c #D32D2D",
"X%	c #F89393",
"Y%	c #FA9A9A",
"Z%	c #EB5252",
"`%	c #D32020",
" &	c #C30606",
".&	c #B30202",
"+&	c #C20808",
"@&	c #E81C1C",
"#&	c #F94C4C",
"$&	c #FE8F8F",
"%&	c #FFD5D5",
"&&	c #F3E4E4",
"*&	c #DBADAD",
"=&	c #C86363",
"-&	c #D10707",
";&	c #FA3A3A",
">&	c #FEB3B3",
",&	c #FFEDED",
"'&	c #FCD8D8",
")&	c #D82C2C",
"!&	c #ED6F6F",
"~&	c #DC2F2F",
"{&	c #C10606",
"]&	c #BF0606",
"^&	c #CE0D0D",
"/&	c #EA4646",
"(&	c #FC8E8E",
"_&	c #FDF1F1",
":&	c #EFD0D0",
"<&	c #D17C7C",
"[&	c #BD2E2E",
"}&	c #B70909",
"|&	c #B80303",
"1&	c #C40505",
"2&	c #EA0C0C",
"3&	c #F81414",
"4&	c #FD4F4F",
"5&	c #FFBEBE",
"6&	c #E25C5C",
"7&	c #BD1010",
"8&	c #C51010",
"9&	c #C42323",
"0&	c #BE0A0A",
"a&	c #D80E0E",
"b&	c #EE2323",
"c&	c #F86666",
"d&	c #FDC3C3",
"e&	c #FEE8E8",
"f&	c #FBB7B7",
"g&	c #EF8686",
"h&	c #CD4A4A",
"i&	c #CA0707",
"j&	c #D80909",
"k&	c #ED0D0D",
"l&	c #F81010",
"m&	c #FD2929",
"n&	c #C01313",
"o&	c #BA0505",
"p&	c #C60909",
"q&	c #D12020",
"r&	c #E64545",
"s&	c #F87373",
"t&	c #FE9F9F",
"u&	c #F69494",
"v&	c #E13232",
"w&	c #CC0D0D",
"x&	c #C70606",
"y&	c #EE0D0D",
"z&	c #FA1111",
"A&	c #FE2727",
"B&	c #FF5555",
"C&	c #FFB1B1",
"D&	c #E55E5E",
"E&	c #BF1111",
"F&	c #C20E0E",
"G&	c #CB1111",
"H&	c #DD1C1C",
"I&	c #F05656",
"J&	c #F99898",
"K&	c #FDB3B3",
"L&	c #FCA5A5",
"M&	c #E43232",
"N&	c #C00808",
"O&	c #C80606",
"P&	c #E80E0E",
"Q&	c #FC2222",
"R&	c #FF5E5E",
"S&	c #FFF2F2",
"T&	c #FDB1B1",
"U&	c #ED5959",
"V&	c #C31515",
"W&	c #C91212",
"X&	c #F45252",
"Y&	c #F77070",
"Z&	c #F87C7C",
"`&	c #F87979",
" *	c #F88585",
".*	c #F89B9B",
"+*	c #F8AFAF",
"@*	c #F8B4B4",
"#*	c #F8A6A6",
"$*	c #F55C5C",
"%*	c #E01414",
"&*	c #C20707",
"**	c #C40808",
"=*	c #D61E1E",
"-*	c #EA3333",
";*	c #F54D4D",
">*	c #F87777",
",*	c #F89E9E",
"'*	c #F9ACAC",
")*	c #F9A0A0",
"!*	c #F99B9B",
"~*	c #F99A9A",
"{*	c #F99696",
"]*	c #F98B8B",
"^*	c #F98282",
"/*	c #F97070",
"(*	c #F95353",
"_*	c #F13535",
":*	c #C71616",
"<*	c #BB2525",
"[*	c #CB0F0F",
"}*	c #CB1010",
"|*	c #CB1818",
"1*	c #CB1212",
"2*	c #CB1C1C",
"3*	c #CB2A2A",
"4*	c #CB2D2D",
"5*	c #CB2C2C",
"6*	c #CA2424",
"7*	c #C81616",
"8*	c #C31212",
"9*	c #C82020",
"0*	c #CB2929",
"a*	c #CC2E2E",
"b*	c #D02F2F",
"c*	c #D22323",
"d*	c #D22020",
"e*	c #D21F1F",
"f*	c #D21414",
"g*	c #D01F1F",
"h*	c #CF2323",
"i*	c #D11515",
"j*	c #BD1717",
"  . + @ # $ % & * * & = - ; > , & ' ) ! ! ~ { ] ] ] ^ / ( _ : < ",
"[ } | 1 2 3 4 5 6 6 5 7 8 9 0 a b c d e f g h i j k l m n o p q ",
": r s t u v w x y x z A B C D E F G y H I J K L M N O P Q R S T ",
"U V W X Y Z `  ...+.@.#.$.%.&.*.=...-.;.>.,.'.).!.~.{.].-.^./.(.",
"_.:.<.[.}.|.1...2.3.4.5.6.7.8.9.0.a.b.c.d.e.f.g.o h.i.j.i.k.l.m.",
"n.o.p.q.r.0.i.s.t.u.v.w.x.y.z.;.a.A.B.C.D.E.q F.G.H.I.J.K.L.M.] ",
"N.O.P.X Q.R.;.S.T.U.V.W.] X.Y.].-.Z.`. +.+U ++@+#+$+R.%+&+*+=+{ ",
"-+;+>+,+'+)+!+~+{+]+^+/+(+_+-.a.0.:+<+[+}+|+1+2+3+-.4+5+6+7+8+9+",
"0+a+b+c+d+e+f+g+h+i+j+k+l+-.a.m+n+o+p+q+r+s+t+u+v+w+x+y+z+A+B+C+",
"D+E+F+G+H+I+J+K+L+M+N+O+a.a.m+P+Q+R+S+T+U+V+W+-.)+X+Y+Z+`+ @.@+@",
"@@#@$@%@&@*@=@-@;@>@,@-.v+0.'@)@!@~@{@]@^@W+-.x /@(@_@:@<@[@}@|@",
"/ 1@2@3@4@5@6@7@8@9@i.0@a@:+b@c@d@e@f@g@h@v+i@j@k@l@m@n@o@p@q@r@",
"s@t@u@v@w@x@y@z@A@A.B@C@D@E@F@G@H@I@J@u+v+Z.K@L@&@S+M@N@O@P@Q@: ",
"R@R@S@L+T@U@V@y  .W@9.X@Y@Z@`@ #.#+#@#v+Z.9.##$#%#&#*#=#-#;#>#,#",
"'#)#h+!#~#{#;.A.W@]#^#/#(#_# #:#<#[#-.x }###|#~@1#2#3#4#5#6#>#,#",
"} ) 7#8#9#i@'+0#a#b#c#d#e#T f#<#g#i.h#i#j#k#l#m#n#o#p#5#v+q#J+,#",
"r+r#s#G+,+t#u#v#w#x#y#U z#A#B#C#'+D#E#F#G#H#I#J#K#F+L#].M#N#O#,#",
"z#P#Q#R#S#>@T#U#V#W#|@X#Y#Z#`#c+ $.$+$@$#$$$%$&$*$'+I.@#=$-$;$U ",
">$,$'$)$!$~${$]$^$/$($_$:$<$[$}$|$1$2$3$+@4$5$6$R.j.7$8$9$0$a$|@",
"|@b$c$d$U _.e$f$g$h$i$j$k$l$m$n$o$n@  &#p$q$r$..s$W+t$u$|+,#v$m#",
"w$x$U |+y$z$A$B$C$D$E$F$G$H$I$J$}+K$L$M$N$O$A.s$j$P$Q$R$S$T$U$w$",
"|+V$W$X$Y$Z$`$ %m+9@.%+%@%U . . L$#%$%%%&%v+*%=%-%;%&#>%,%'%)%} ",
"!%~%{%]%^%j@/%R#(%_%:%. . <%[%}%|%1%2%3%4%5%6%7%8%9%0%Z+a%b%c%d%",
"e%f%g%h%i%j%k%l%m%n%|+}+o%p%q%r%s%Z.t%u%v%w%x%|+. 0%y%z%A%B%C%z#",
"D%E%F F%G%H%I%J%+ . o%K%L%M%N%a@O%P%Q%R%S%|@. + L$T%k@U%s.9@V%/ ",
"W%X%Y%Z%`% &+ .&. +&@&#&$&%&0@h@&&*&=&E.. + >%-&z+;&>&,&-.'&V%/ ",
")&!&~&{&+ + &#]&^&/&(&a@,&A._&:&<&[&}&|&1&,%2&3&4&5&A.s$I.O+6&7&",
"8&9&I#. + 0&a&b&c&d&,&i.e&f&g&h&'#J%i&j&k&l&m&}#w+i.s$s$I.R#m$n&",
"m#U o&p&q&r&s&t&x i.].{.u&v&w&K$+ x&y&z&A&B&C&,&].s$s$j.-.,@D&E&",
"F&G&H&I&J&K&Z.b...i.,&L&M&N&|&0%O&P&Q&R&w x '+....R.S&,&G T&U&V&",
"W&&$X&Y&Z&`& *.*+*@*#*$*%*&***=*-*;*>*,*'*)*!*~*~*{*]*^*/*(*_*:*",
"<*W&[*}*G&|*1*2*3*4*5*6*7*8*] 9*U$0*5*a*b*c** * d*e*f*f*g*h*i*j*"};
