/* XPM */
static char * wall_xpm[] = {
"32 32 243 2",
"  	c #FEFEFF",
". 	c #FDFCFF",
"+ 	c #FEFDFF",
"@ 	c #FFFEFF",
"# 	c #FFFFFF",
"$ 	c #F9F3FF",
"% 	c #EEDEFF",
"& 	c #F1E4FF",
"* 	c #F5ECFF",
"= 	c #EFE0FF",
"- 	c #EEE0FF",
"; 	c #F6EEFF",
"> 	c #F8F3FF",
", 	c #F9F5FF",
"' 	c #FAF6FF",
") 	c #FAF7FF",
"! 	c #FAF5FF",
"~ 	c #FBF8FF",
"{ 	c #EAD7FF",
"] 	c #CC90FF",
"^ 	c #C783FF",
"/ 	c #CC92FF",
"( 	c #C987FF",
"_ 	c #C782FF",
": 	c #C781FF",
"< 	c #C780FF",
"[ 	c #C67FFF",
"} 	c #C884FF",
"| 	c #CB8FFF",
"1 	c #CE97FF",
"2 	c #D3A3FF",
"3 	c #D6AAFF",
"4 	c #D9B1FF",
"5 	c #D5A9FF",
"6 	c #DEBEFF",
"7 	c #EEDFFF",
"8 	c #F2E7FF",
"9 	c #FBF7FF",
"0 	c #E7D2FF",
"a 	c #C06CFF",
"b 	c #B73EFF",
"c 	c #B847FF",
"d 	c #BA4DFF",
"e 	c #BA4CFF",
"f 	c #B94AFF",
"g 	c #B948FF",
"h 	c #B949FF",
"i 	c #B842FF",
"j 	c #B94CFF",
"k 	c #BA4FFF",
"l 	c #BB54FF",
"m 	c #BC5AFF",
"n 	c #C374FF",
"o 	c #FDFBFF",
"p 	c #F2E8FF",
"q 	c #BE61FF",
"r 	c #D4A5FF",
"s 	c #D3A4FF",
"t 	c #D19FFF",
"u 	c #C478FF",
"v 	c #D09CFF",
"w 	c #C477FF",
"x 	c #C886FF",
"y 	c #CD94FF",
"z 	c #C885FF",
"A 	c #C479FF",
"B 	c #BD5BFF",
"C 	c #B844FF",
"D 	c #F8F1FF",
"E 	c #F8F2FF",
"F 	c #B740FF",
"G 	c #C989FF",
"H 	c #F1E5FF",
"I 	c #F7F1FF",
"J 	c #E9D4FF",
"K 	c #D2A0FF",
"L 	c #C57CFF",
"M 	c #BB55FF",
"N 	c #E7D0FF",
"O 	c #EAD5FF",
"P 	c #C06AFF",
"Q 	c #C375FF",
"R 	c #E1C5FF",
"S 	c #F0E3FF",
"T 	c #EAD8FF",
"U 	c #DAB5FF",
"V 	c #C271FF",
"W 	c #B841FF",
"X 	c #B845FF",
"Y 	c #BE60FF",
"Z 	c #C988FF",
"` 	c #B741FF",
" .	c #CD93FF",
"..	c #F6EFFF",
"+.	c #F0E2FF",
"@.	c #CA8AFF",
"#.	c #D5A7FF",
"$.	c #E5CEFF",
"%.	c #CB8EFF",
"&.	c #BC5BFF",
"*.	c #BE64FF",
"=.	c #F4EBFF",
"-.	c #C270FF",
";.	c #C16DFF",
">.	c #CA8BFF",
",.	c #E9D6FF",
"'.	c #D4A6FF",
").	c #BF65FF",
"!.	c #D8B0FF",
"~.	c #DBB7FF",
"{.	c #C47AFF",
"].	c #DCB9FF",
"^.	c #BB53FF",
"/.	c #B94BFF",
"(.	c #D19EFF",
"_.	c #BE62FF",
":.	c #CA8DFF",
"<.	c #CE95FF",
"[.	c #EBDAFF",
"}.	c #D6ACFF",
"|.	c #C16EFF",
"1.	c #EBD8FF",
"2.	c #FEFCFF",
"3.	c #EBD9FF",
"4.	c #D2A1FF",
"5.	c #C57BFF",
"6.	c #CA8CFF",
"7.	c #C376FF",
"8.	c #BE63FF",
"9.	c #E3C8FF",
"0.	c #EFE1FF",
"a.	c #D19DFF",
"b.	c #BF66FF",
"c.	c #FCFAFF",
"d.	c #ECDAFF",
"e.	c #D09DFF",
"f.	c #C272FF",
"g.	c #BC57FF",
"h.	c #E1C4FF",
"i.	c #F8EFFF",
"j.	c #D2A2FF",
"k.	c #BA4EFF",
"l.	c #C680FF",
"m.	c #DAB6FF",
"n.	c #E6CEFF",
"o.	c #F6F0FF",
"p.	c #BA52FF",
"q.	c #CF9AFF",
"r.	c #F0E4FF",
"s.	c #C06BFF",
"t.	c #DBB8FF",
"u.	c #F5EDFF",
"v.	c #FCF9FF",
"w.	c #C67EFF",
"x.	c #C579FF",
"y.	c #F1E6FF",
"z.	c #D9B3FF",
"A.	c #ECDBFF",
"B.	c #F9F4FF",
"C.	c #B947FF",
"D.	c #BC58FF",
"E.	c #C57AFF",
"F.	c #B843FF",
"G.	c #BF67FF",
"H.	c #E3C9FF",
"I.	c #F7F2FF",
"J.	c #D7ADFF",
"K.	c #B846FF",
"L.	c #CB8DFF",
"M.	c #D6ABFF",
"N.	c #DDBAFF",
"O.	c #FEFBFF",
"P.	c #BB52FF",
"Q.	c #BA50FF",
"R.	c #BF64FF",
"S.	c #E0C3FF",
"T.	c #ECDDFF",
"U.	c #DFC1FF",
"V.	c #EDDCFF",
"W.	c #FDFAFF",
"X.	c #CF98FF",
"Y.	c #BD5DFF",
"Z.	c #E0C2FF",
"`.	c #CD95FF",
" +	c #E8D3FF",
".+	c #E4CBFF",
"++	c #B73DFF",
"@+	c #C069FF",
"#+	c #EFE2FF",
"$+	c #D3A2FF",
"%+	c #E6CFFF",
"&+	c #DDBCFF",
"*+	c #CC91FF",
"=+	c #E1C3FF",
"-+	c #E0C1FF",
";+	c #B73BFF",
">+	c #EAD6FF",
",+	c #BD5CFF",
"'+	c #E8D2FF",
")+	c #E2C5FF",
"!+	c #CE98FF",
"~+	c #E5CDFF",
"{+	c #D7AEFF",
"]+	c #F7EFFF",
"^+	c #DBB6FF",
"/+	c #D1A0FF",
"(+	c #C67DFF",
"_+	c #F2E6FF",
":+	c #CD92FF",
"<+	c #D7AFFF",
"[+	c #D3A5FF",
"}+	c #B73FFF",
"|+	c #BD5EFF",
"1+	c #BF68FF",
"2+	c #B73CFF",
"3+	c #EDDEFF",
"4+	c #D09BFF",
"5+	c #F3E9FF",
"6+	c #C57DFF",
"7+	c #BA51FF",
"8+	c #D8B1FF",
"9+	c #F7F0FF",
"0+	c #C98AFF",
"a+	c #E3C7FF",
"b+	c #E5CCFF",
"c+	c #C377FF",
"d+	c #C16FFF",
"e+	c #DFBFFF",
"f+	c #FBF9FF",
"g+	c #E6D0FF",
"h+	c #BB56FF",
"i+	c #DAB4FF",
"j+	c #E2C7FF",
"k+	c #F4EAFF",
"l+	c #DFC2FF",
"m+	c #ECDCFF",
"n+	c #D5A8FF",
"o+	c #C273FF",
"p+	c #D5AAFF",
"q+	c #DDBBFF",
"r+	c #DFC0FF",
"s+	c #BD60FF",
"t+	c #DEBDFF",
"  . + @ + + + + + + + + + + + + + + @ # # # # # # # # # # # # # ",
"$ % & * & = - - - - - - - - - - = & ; > , ' ) ! ~ . + + @ # # # ",
"{ ] ^ / ( _ : : : : : : : : : < [ } | 1 2 3 4 5 6 { 7 8 9 @ # # ",
"0 a b c d d d d d e e d d d d f g h i i j k l g m n < / { o # # ",
"p ^ b q 1 r s t ] u _ v r s 1 w q x y | z A B C C i c d s D @ # ",
"E / F G H I J K L M w N * O 1 P Q R ; ; S T U V W X Y f Z H + # ",
"> y `  ...+.@.c g Y #.= $.%.&.*.5 =.  @ + ~ 0 -.b ;.>.d _ = + # ",
"> y ` / ,.'.Y i ).!.,.~.{.j Z ].8 . # # . H 2 ^./.t (.d : - + # ",
"> y ` z ] _.:.<.R [.}.|.&.%.1.! + # 2.E 3.4.5.6.s 1.s d : - + # ",
"> y ` 7.8.u 9.* 0.a.b.;.K % c.# # c.d.e.f.g.f.h.I i.j.k.l.7 + # ",
"> y ` Z m.n...o.U m p.q.r.. # # c.{ _ g b s.t.u.v.{ w./.x.1.. # ",
"> y `  .u.~ y.z.[ g.>.A.o # + B.J x C.D.E.h.I c.7 @.F.e G.H.c.# ",
"> y ` y I.E J.l K.L.A.c.# o +.M.u /._ N.S ~ O.S <.P.Q.^.R.S.v.# ",
"> y ` / T.U.^ g u ,.c.@ v.V.| k X L J '   W.0.X.k.i s.Y.).Z.v.# ",
"> y ` _ 6.G.Q `. +v.. u..+6.^.C.P R ~ # . [.Z k ++@+(.R.).Z.v.# ",
"> y F _.f k.q.#+v.v.A.X.G.f ^ $+%+B.@ # E 4.C.g f.h.&+).).Z.v.# ",
"> *+b h j z [.~ ..N G /.C L J > o @   ~ 1._ Q.:  +> =+b.).-+v.# ",
"> L.;+;+V >+, A.4.w M ,+z '+v.# # + u.)+!+Q.| d.c.c.~+|.Y.~.~ # ",
"> ] ++j {+]+[.z /.k.5.^+r.c.# # + ..~.;.A /+V.c.# + H Z F.v B.# ",
">  .F (+{ $.G Q./.^ N E + # @ c._+~.Q g 1 r.o # @ ~ #+:+i ] ; @ ",
"> y ` z <+{.f n K A.v.@ # o * ~+ .@+m 6.d.o # 2.> ,.[+:.f z & + ",
"E ] }+|+b.m >.~+... # 2.I n.%.s.C.G.t % c.# c.A.5 6.1+: e : = + ",
"& u 2+b 8.t 3+v.@ @ v.A.4+_.W g [ 6 5+.   ~ { 6+f 7+*+`.d [ 3++ ",
"=+l 2+m 8+p . # 2.9+%+G g 2+k.0+{ '     ..a+/ X g n H.#.k.a b+c.",
"!./.W >.5++ @ v.7 [+n l m c+4 & o # # v.b+u d+0+2 0 ]+e+D.g t B.",
"'.h ,+6 f+  B.g+%.h+k u i+0.'   # #   * 5 q V j+9+o O.T P F >.I ",
"r d A [.v.; )+6+j } r '+E + # # #   ! H.f.D.K k+  # @ * ( }+] E ",
"'.d < 3.{ (.n ,+L.,.I ~ v.v.v.v.~ =.j+q.q *+d.' ~ ' ! 8 L.F y > ",
"'.d 5.~.Z /.h [ l+m+7 1.H.S.Z.Z.e+n+o+s.z p+q+r+&+}.r <._.W v B.",
"'./.q |.l h h+V [ : l.E.P b.).).).q g.g.Y.m l |+s+Q.d C.++h+6 v.",
"{+d h f C.C.f e d d k.Q.Y ).).).).).R.R.Y k.i h+@+E.l.l.} i+*   ",
"T :+Z 4+2 s r '.'.'.'.}.&+Z.Z.Z.Z.Z.Z.Z.t+5 1 z.j+1.7 S * 9   # "};
